<?xml version="1.0" standalone="no"?>
<!DOCTYPE svg PUBLIC "-//W3C//DTD SVG 1.1//EN" "http://www.w3.org/Graphics/SVG/1.1/DTD/svg11.dtd" >
<svg xmlns="http://www.w3.org/2000/svg">
<metadata></metadata>
<defs>
<font id="itclegacyserif_lt_boldregular" horiz-adv-x="519" >
<font-face units-per-em="1000" ascent="800" descent="-200" />
<missing-glyph horiz-adv-x="225" />
<glyph unicode="&#xd;" horiz-adv-x="225" />
<glyph unicode=" "  horiz-adv-x="225" />
<glyph unicode="&#x09;" horiz-adv-x="225" />
<glyph unicode="&#xa0;" horiz-adv-x="225" />
<glyph unicode="!" horiz-adv-x="370" d="M103 67q0 14 7.5 28.5t19.5 26.5t27 19.5t29 7.5q13 0 27 -8t25 -20t18 -26.5t7 -27.5q0 -15 -8 -29.5t-20 -25t-26 -17t-26 -6.5q-14 0 -28 7t-25.5 18t-19 25t-7.5 28zM279 611q0 -12 -4 -31t-14 -58q-21 -79 -34.5 -160.5t-22.5 -162.5q-2 -13 -3 -15.5t-7 -3.5 q-1 -1 -8 -1.5t-12 -0.5q-7 0 -8.5 5.5t-3.5 28.5q-6 79 -15 149t-17 116q-6 37 -9.5 58t-5 33.5t-2 19t-0.5 14.5q0 23 11 33t33 14q4 1 15 2.5t23.5 3l25 3t20.5 1.5q14 0 21.5 -5t11.5 -12t4.5 -15.5t0.5 -15.5z" />
<glyph unicode="&#x22;" horiz-adv-x="556" d="M417 605q0 -12 -1 -23.5t-3.5 -25.5t-6 -31.5l-8.5 -42.5q-4 -18 -6.5 -31.5t-4 -26t-3 -26t-3.5 -30.5l-2.5 -15t-2.5 -4q-5 -2 -15 -2h-12q-8 0 -9 4t-3 23q0 4 -2 18.5t-4.5 34t-6 42.5t-7.5 44q-4 22 -6.5 35t-3.5 22t-1.5 15t-0.5 13q0 12 1.5 21t8 14.5t20.5 8.5 t39 3q29 0 36 -11.5t7 -28.5zM250 605q0 -12 -1 -23.5t-3.5 -25.5t-6 -31.5l-8.5 -42.5q-3 -18 -5.5 -31.5t-4.5 -26t-3.5 -26t-3.5 -30.5q-1 -12 -2 -15t-3 -4q-5 -2 -14 -2h-12q-8 0 -9.5 4t-3.5 23q0 4 -1.5 18.5t-4 34t-6 42.5t-7.5 44q-4 22 -6.5 35t-3.5 22t-1.5 15 t-0.5 13q0 12 1.5 21t8 14.5t20.5 8.5t39 3q28 0 35 -11.5t7 -28.5z" />
<glyph unicode="#" d="M306 270q1 6 5.5 22.5t9 34.5t9 34.5t6.5 23.5h-35h-26h-27h-37q-7 -25 -16 -59t-14 -56h125zM255 -2q-13 0 -16 0.5t-3 3.5l3 12.5t8 31t11 40.5t11 42.5t9 36t6 21.5h-125q-11 -39 -22 -84.5t-22 -90.5q-3 -10 -5 -11.5t-8 -1.5h-29q-13 0 -16 0.5t-3 3.5q0 1 3 13 t8 31t11 41t11.5 42.5t9.5 36t5 20.5q-6 0 -22 -0.5t-33.5 -1t-32.5 -1t-21 -0.5q-9 0 -9 5q0 3 2.5 10.5t5.5 16t5.5 15.5t3.5 10q8 21 10.5 26t9.5 5l103 -1q2 7 6 23.5t9 34.5t9 34.5t6 22.5q-6 0 -21.5 -0.5t-32.5 -1t-32 -1t-21 -0.5q-9 0 -9 6q0 1 3 10.5t7 20.5 t7.5 21.5l4.5 13.5q5 14 7 16.5t9 2.5l101 -1q3 9 8.5 32t12 48.5t12 48t7.5 31.5q2 6 8 7t30 1q14 0 17 -1t3 -6l-3 -11.5t-7.5 -28.5t-9.5 -37l-9.5 -38t-8 -31t-3.5 -15h125q2 10 8 33t12 48.5t12 47.5t8 31q2 6 8 7t29 1q14 0 17.5 -1t3.5 -6q0 -2 -5.5 -23.5t-13 -49 t-14 -53t-9.5 -34.5h15h30t30 0.5t17 0.5q16 0 19 -1t3 -4q0 -1 -3.5 -13.5t-8.5 -28t-9.5 -29t-7.5 -14.5q-2 -1 -17 -1h-34q-18 0 -34.5 0.5t-21.5 0.5q-6 -20 -9 -32.5t-6 -23.5t-6.5 -24t-8.5 -33h47t47 1q17 0 19.5 -1t2.5 -4q0 -1 -3.5 -13.5t-8.5 -27.5t-9.5 -27.5 t-7.5 -13.5q-2 -1 -17 -1h-34q-18 0 -35 0.5t-23 0.5q-11 -43 -22 -85.5t-22 -85.5q-2 -11 -4 -13.5t-9 -2.5h-29z" />
<glyph unicode="$" d="M239 569q-8 -2 -20 -5.5t-23 -12t-19 -23t-8 -36.5q0 -20 7.5 -35t18 -25.5t23 -18l22.5 -13.5v77zM279 253v-90t1 -95q6 1 18 5.5t25 14t22.5 26t9.5 43.5q0 22 -8 38t-20 27.5t-25 18.5t-23 12zM279 385q44 -17 82 -33.5t66 -38t44 -50t16 -70.5q0 -48 -25.5 -91.5 t-75.5 -66.5q-21 -10 -46 -15.5t-60 -7.5l1 -119q0 -9 -8 -9q-26 0 -31.5 0.5t-5.5 5.5l3 121q-13 0 -29.5 1t-44.5 3q-4 0 -14 1.5t-21.5 3t-21 3t-13.5 1.5q-10 0 -15.5 -5t-14.5 -5q-7 0 -10 4t-5 23q-2 11 -4.5 34t-5 47t-4.5 43t-2 24q0 9 4.5 14.5t10.5 8.5t11 3.5 t6 0.5q7 0 9 -4t6 -19q6 -21 14.5 -43.5t25 -41t44.5 -30.5t74 -13l1 203q-39 15 -74 31t-61 36.5t-41.5 49t-15.5 69.5q0 18 4 37.5t14.5 38.5t27.5 36t44 31q24 11 47 16.5t52 8.5q0 6 -0.5 20t-1.5 29.5t-1.5 29t-0.5 18.5t3 6t16 1h23q7 0 7 -7v-20q0 -13 -0.5 -28 t-1 -28t-0.5 -18q14 0 32 -0.5t41 -3.5q3 0 10.5 -1t15.5 -2t15 -2t10 -1t11.5 2t10.5 2q8 0 8 -9q0 -42 3 -85q0 -3 1 -12l2 -18t2 -17t1 -10q0 -10 -12.5 -13t-18.5 -3q-7 0 -9.5 5t-8.5 26q-14 48 -39.5 66t-74.5 22z" />
<glyph unicode="%" horiz-adv-x="759" d="M174 0q6 10 23.5 39.5t41.5 72t53 94.5t59 106t59 106.5t53 96.5t40.5 75.5t22.5 43.5h59q-8 -13 -18.5 -30t-21 -35.5t-21.5 -38t-21 -37.5q-22 -39 -48.5 -86.5t-53.5 -96t-52 -94t-45 -81.5q-19 -34 -30.5 -55.5t-19 -35.5t-12 -23.5t-8.5 -20.5h-60zM512 184 q0 -11 1.5 -36t8.5 -51t20.5 -46t37.5 -20q16 0 25.5 8.5t15 22t7.5 30.5t2 35q0 14 -2 40t-9.5 51t-21.5 43.5t-37 18.5q-16 0 -25.5 -10t-14.5 -25t-6.5 -31.5t-1.5 -29.5zM412 152q0 40 13 71t36 52t53.5 32t66.5 11q45 0 74 -16.5t45.5 -40.5t23 -51t6.5 -49 q0 -39 -13.5 -70.5t-36.5 -53t-54.5 -33t-67.5 -11.5q-27 0 -53 9t-47 28t-33.5 49t-12.5 73zM129 512q0 -11 1.5 -36.5t8.5 -51.5t20.5 -46t37.5 -20q16 0 25.5 8.5t15 22.5t7.5 31t2 35q0 16 -2.5 42t-10 50.5t-21.5 42t-36 17.5q-17 0 -26.5 -11t-14.5 -26.5t-6 -31.5 t-1 -26zM30 479q0 41 13.5 72t36 52t53 31.5t65.5 10.5q44 0 73 -16t46 -39.5t23.5 -51t6.5 -50.5q0 -39 -13 -70t-36.5 -53t-55 -33.5t-67.5 -11.5q-27 0 -53.5 9t-46.5 28t-32.5 49.5t-12.5 72.5z" />
<glyph unicode="&#x26;" horiz-adv-x="778" d="M413 135q-17 36 -33 59.5t-30.5 39t-26 24.5t-20.5 14q-4 3 -15.5 9.5t-25 13.5t-25.5 13.5t-17 9.5q-26 -21 -39 -51.5t-13 -63.5q0 -53 33 -87t86 -34q31 0 62.5 12t63.5 41zM308 399q6 3 14.5 8t16 13.5t13 21.5t5.5 32q0 20 -7 37.5t-18.5 30.5t-26.5 20.5t-30 7.5 q-21 0 -40 -17.5t-19 -52.5q0 -36 22 -57t70 -44zM353 376q34 -18 56.5 -34t38.5 -33t28 -36t25 -43q9 12 21.5 29t23.5 35t18.5 34.5t7.5 27.5q0 15 -16.5 19t-43.5 6q-9 0 -10 5.5t-1 14.5q0 10 2 15.5t13 5.5q13 0 42 -1.5t67 -1.5q26 0 50.5 1.5t50.5 1.5q8 0 9 -7 t1 -15q0 -11 -5 -14.5t-17 -6.5q-14 -4 -24 -9.5t-19.5 -14.5t-20.5 -22.5t-27 -33.5q-26 -33 -41.5 -52.5t-25 -31.5t-15.5 -19l-12 -14q15 -23 27 -41t24 -30t25.5 -18.5t31.5 -6.5q29 0 48 18t26 41q6 19 7.5 28t8.5 9q5 0 11 -1t12 -3q11 -3 11 -12q0 -21 -7 -51 t-25.5 -58.5t-50.5 -48.5t-81 -20q-37 0 -63.5 11.5t-44.5 27.5t-29 32.5l-17 25.5q-52 -54 -104.5 -75.5t-107.5 -21.5q-46 0 -82 14t-60.5 38t-37 55.5t-12.5 67.5q0 44 16 75.5t38.5 53.5t46 35t37.5 20q-11 9 -22 19t-19.5 23t-14 29.5t-5.5 37.5q0 40 17 71.5t45 53.5 t64 33.5t74 11.5q70 0 108 -35.5t38 -87.5q0 -31 -12 -52.5t-29 -36.5t-36 -23.5t-32 -14.5z" />
<glyph unicode="'" horiz-adv-x="370" d="M241 605q0 -12 -1 -23.5t-3.5 -25.5t-6 -31.5l-8.5 -42.5q-4 -18 -6.5 -31.5t-4 -26t-3 -26t-3.5 -30.5l-2.5 -15t-2.5 -4q-5 -2 -15 -2h-12q-8 0 -9 4t-3 23q0 4 -2 18.5t-4.5 34t-6 42.5t-7.5 44q-4 22 -6.5 35t-3.5 22t-1.5 15t-0.5 13q0 12 1.5 21t8 14.5t20.5 8.5 t39 3q29 0 36 -11.5t7 -28.5z" />
<glyph unicode="(" horiz-adv-x="370" d="M179 235q0 -135 47.5 -246t123.5 -188q5 -5 6 -7t1 -4t-3.5 -6.5t-8 -9t-9 -8.5t-7.5 -4q-2 0 -22.5 12.5t-51.5 38t-66 64t-65 90.5t-50 118t-20 146q0 95 30.5 184t91.5 162q23 27 47 50.5t45 41t35.5 27t17.5 9.5t8.5 -4t10 -9t8 -9.5t3.5 -6.5t-3.5 -6.5t-8 -10 t-9 -10.5t-6.5 -7q-50 -54 -79 -116t-43.5 -119.5t-18.5 -103.5t-4 -68z" />
<glyph unicode=")" horiz-adv-x="370" d="M191 235q0 27 -4 73.5t-19 103t-43.5 116.5t-77.5 114q-2 2 -6.5 7t-9.5 10.5t-8.5 10.5t-3.5 6q0 2 3.5 6.5t8.5 9.5t10 9t8 4t17.5 -9.5t35 -27t45 -41t47.5 -50.5q61 -73 92 -162.5t31 -184.5q0 -80 -20 -146t-50 -118t-65.5 -90t-66 -63.5t-52 -38t-22.5 -12.5 q-3 0 -7.5 4t-9 9t-8 9.5t-3.5 5.5q0 2 7.5 10t10.5 11q15 15 42 50t53 89t45.5 125.5t19.5 159.5z" />
<glyph unicode="*" d="M390 489l30 7.5t18 2.5q12 0 18.5 -5t10 -12t4.5 -15t1 -14q0 -5 -1 -12.5t-4 -15t-9 -13t-16 -5.5q-2 0 -24.5 4.5t-50 10.5t-53.5 11.5t-36 7.5q18 -20 29.5 -32t19.5 -20.5t15 -15.5l16 -16q20 -20 28.5 -31t8.5 -22q0 -9 -6 -17.5t-15.5 -14.5t-20 -10t-19.5 -4 q-14 0 -20 10.5t-9 22.5q-8 25 -13 40.5t-9.5 29t-10 29t-13.5 40.5q-2 -8 -7.5 -26t-11.5 -38.5t-11 -38.5t-7 -25q-5 -18 -12 -32t-24 -14q-10 0 -20.5 4t-19.5 11t-14.5 14.5t-5.5 15.5q0 9 7 18t28 32q17 18 34.5 38l45.5 52q-12 -3 -43.5 -10.5t-69.5 -17.5 q-19 -5 -29.5 -7.5t-18.5 -2.5q-12 0 -19 5.5t-10 13.5t-4 15.5t-1 12.5q0 15 6 30t25 15q4 0 23 -3.5t40 -8.5q29 -7 52 -11.5t49 -9.5q-17 18 -27.5 29t-19 20t-16 16.5t-17.5 18.5q-20 20 -29 31t-9 22q0 9 6 17.5t15.5 14.5t20 10t19.5 4q14 0 20 -10.5t10 -22.5 q6 -18 10.5 -32.5t9.5 -30.5t11 -34l14 -42q1 4 5 17t9.5 31t11.5 39t12 41q5 18 12 32t24 14q9 0 19.5 -4t19.5 -11t15 -15t6 -15q0 -9 -6.5 -18t-28.5 -32q-8 -8 -20 -21.5l-24 -27t-22 -25.5t-14 -16z" />
<glyph unicode="+" d="M221 535q0 5 1.5 6t7.5 1h35q14 0 20.5 -0.5t9 -1t2.5 -1.5v-184l175 1q8 0 9.5 -1t1.5 -8v-57q1 -8 -0.5 -9.5t-9.5 -1.5h-176v-180q0 -6 -8 -6h-36t-20 0.5t-9.5 1t-2.5 1.5v183h-164q-15 -1 -18.5 0t-3.5 9v35q0 14 0.5 20.5t1 9t1.5 2.5h183v180z" />
<glyph unicode="," horiz-adv-x="259" d="M11 -161q25 6 48.5 16.5t42 25.5t30 35t11.5 45q0 11 -2 18t-7.5 12t-15.5 10.5t-26 13.5q-11 6 -17.5 13t-9.5 13.5t-3.5 12.5t-0.5 9q0 8 3.5 19t11.5 21t22 17t34 7q25 0 44.5 -11.5t33 -30.5t20.5 -42t7 -47q0 -29 -9.5 -55t-27 -48t-41 -38.5t-50.5 -26.5 q-19 -7 -39 -11.5t-27 -4.5q-3 0 -7.5 1.5t-15.5 9.5l-12 8z" />
<glyph unicode="-" horiz-adv-x="315" d="M40 178v93h235v-93h-235z" />
<glyph unicode="." horiz-adv-x="259" d="M50 67q0 14 7.5 28.5t19.5 26.5t26.5 19.5t28.5 7.5t28 -8t25 -20t18 -26.5t7 -27.5q0 -15 -8 -29.5t-20 -25t-26 -17t-26 -6.5q-14 0 -28.5 7t-26 18t-18.5 25t-7 28z" />
<glyph unicode="/" horiz-adv-x="444" d="M6 -236q12 32 21.5 56t18.5 48.5t20 54.5t27 73.5t38.5 106t54.5 152.5q40 113 77 225t71 227h87q-81 -214 -156 -427.5t-145 -431.5q-8 -22 -13 -40t-13 -44h-88z" />
<glyph unicode="0" d="M181 316q0 -19 0.5 -43.5t2 -50.5t4.5 -52.5t8 -49.5q1 -7 5 -20t11.5 -25.5t20 -21.5t31.5 -9q16 0 29 8t23 36t15.5 81t5.5 142q0 11 -0.5 33.5t-2 51t-4 60t-7.5 60.5q-2 9 -5.5 21.5t-11 24.5t-19 20t-28.5 8q-16 0 -27 -7.5t-18.5 -18t-11.5 -22t-6 -20.5 q-3 -15 -6 -32t-5 -40.5t-3 -55.5t-1 -78zM36 315q0 63 12.5 122.5t40 105.5t71.5 74t106 28q57 0 98.5 -26t67.5 -70.5t38.5 -104t12.5 -126.5q0 -24 -2.5 -57.5t-10.5 -70.5t-22.5 -72.5t-39.5 -64.5t-61 -46.5t-87 -17.5q-11 0 -28.5 1.5t-38.5 8t-43.5 20.5t-41.5 40 q-26 33 -40.5 72t-21.5 75t-8.5 65.5t-1.5 43.5z" />
<glyph unicode="1" d="M339 382q0 -26 -0.5 -46t-0.5 -36v-29v-24q0 -40 0.5 -85t3.5 -74q2 -14 6.5 -23t15 -15t28 -8.5t44.5 -3.5q17 -1 19.5 -4t2.5 -11q0 -15 -2.5 -20t-13.5 -5q-10 0 -27 0.5t-38.5 1.5t-46.5 1.5t-50 0.5q-74 0 -119.5 -2t-60.5 -2q-7 0 -9.5 3.5t-2.5 18.5q0 9 3.5 13.5 t20.5 5.5q29 1 47 5.5t28.5 13t14.5 22t6 32.5q2 17 3 41.5t1.5 50t0.5 48.5v38v33v50t-0.5 54t-1.5 45q-2 25 -9.5 33t-19.5 8q-17 0 -54 -10q-8 -2 -16.5 -4.5t-12.5 -2.5q-5 0 -5 20q0 14 4 18t21 11q40 17 80 36.5t85 48.5q10 6 17.5 11t9.5 5t5 -2t15 -7t12 -12 q0 -6 -0.5 -20t-1 -30.5t-1 -32.5t-0.5 -27v-28v-42t-0.5 -40.5t-0.5 -22.5z" />
<glyph unicode="2" d="M276 645q83 0 127.5 -46t44.5 -118q0 -63 -29 -112.5t-82 -103.5q-9 -10 -32.5 -32t-49.5 -46t-49 -45.5t-32 -29.5h38t56.5 0.5t56 1t36.5 0.5q14 0 24.5 1t18.5 6t14.5 15.5t12.5 29.5q6 22 9 27.5t8 5.5q2 0 7 -0.5t10 -2t8.5 -4t3.5 -6.5q0 -3 -2.5 -15.5t-6 -31.5 t-8.5 -42.5t-10 -47.5q-3 -17 -5.5 -27t-5.5 -15t-7.5 -6.5t-11.5 -1.5q-54 1 -104 1.5t-82 0.5q-20 0 -47 -0.5t-54 -0.5t-49 -0.5t-30 -0.5t-9.5 6t-1.5 14t1.5 13.5t9.5 13.5q14 16 36.5 43t48 57.5t49.5 61t41 53.5q12 15 26.5 36t27.5 46.5t22 54.5t9 61q0 50 -27.5 74 t-63.5 24q-5 0 -20 -2t-32 -9.5t-32 -22.5t-20 -42q-2 -11 -6 -18t-15 -7q-4 0 -10 1t-12 3.5t-10.5 7.5t-4.5 13q0 16 12 43.5t38 54.5t67 46.5t98 19.5z" />
<glyph unicode="3" d="M300 373q8 0 20.5 -0.5t27.5 -3.5t30.5 -9t30.5 -17q17 -13 27.5 -29t16.5 -33t8 -33.5t2 -31.5q0 -48 -18 -89.5t-52.5 -72t-83.5 -48t-111 -17.5q-44 0 -74 9t-49 22t-27 28t-8 28t6.5 24.5t16.5 19t21.5 12t21.5 4.5q22 0 30.5 -12t19.5 -36q8 -18 21.5 -32.5 t44.5 -14.5q28 0 46 12t28.5 31t14.5 42t4 44q0 13 -2.5 35t-11 43t-26 36t-47.5 15q-15 0 -27.5 -3.5t-22.5 -8t-16 -8t-8 -3.5q-5 0 -13 19q-7 16 -3.5 21t22.5 14q24 11 46.5 26t40 34t27.5 41.5t10 49.5q0 36 -19.5 61.5t-51.5 25.5q-11 0 -22.5 -2t-22.5 -7t-20 -15 t-15 -25q-5 -12 -8.5 -18t-13.5 -6q-11 0 -22.5 9.5t-11.5 16.5q0 6 12 26.5t37 42t63.5 38.5t91.5 17q42 0 69 -12.5t43.5 -31t23 -39t6.5 -36.5q0 -32 -15 -57t-35 -44.5t-40.5 -32.5t-32.5 -19z" />
<glyph unicode="4" d="M113 244q28 -1 70.5 -1.5t114.5 0.5v249q-2 -3 -8 -10.5t-12 -16t-12 -16.5t-8 -11zM504 244q3 0 4.5 -1t1.5 -7q0 -25 -2 -42t-2 -25q-1 -7 -2.5 -8.5t-3.5 -1.5h-77v-50q0 -6 0.5 -20.5t0.5 -30.5q0 -15 0.5 -29t0.5 -19q0 -6 -1 -9t-7 -3q-7 0 -26 0.5t-39 0.5 q-14 0 -30.5 -0.5t-19.5 -0.5q-5 0 -6 3t-1 9q0 9 0.5 30.5t0.5 45.5t0.5 45t0.5 29l-261 -1q-5 0 -5 4v29q0 20 1 26t6 13l139 175q17 22 38.5 50t43.5 57t43.5 57t38.5 50q13 17 17 21t11 4q1 0 13.5 -1t34.5 -3q10 0 10 -9q0 -8 -0.5 -28t-1 -42t-1 -41.5t-0.5 -26.5 q0 -17 -0.5 -43t-0.5 -59v-71v-77h81z" />
<glyph unicode="5" d="M208 517q-2 -4 -6.5 -14t-9 -21t-8 -20t-3.5 -12q0 -5 5 -7t26 -9q31 -10 71 -25.5t76 -41.5t60.5 -65.5t24.5 -96.5q0 -39 -15.5 -77.5t-46.5 -69t-76 -50t-103 -19.5q-41 0 -71 9t-50 23.5t-30 32.5t-10 37q0 15 6.5 26t16 18.5t21 11.5t22.5 4q9 0 15.5 -2t11.5 -7 t9.5 -14l11.5 -23q4 -8 9.5 -17.5t14.5 -18t22.5 -14.5t32.5 -6q23 0 39.5 10t27.5 26t16.5 35.5t5.5 39.5q0 38 -15.5 64t-42.5 45.5t-64.5 34t-81.5 30.5q-19 6 -19 16q0 1 4 15.5t10.5 36t14 48t15 51t13 44t7.5 28.5q2 7 5 17t5.5 19.5t4.5 16t3 8.5q2 3 12 3h38h59h58 h37q21 0 26.5 3.5t10.5 10.5q2 4 4.5 5t12.5 1q3 0 6.5 -0.5t3.5 -3.5l-4 -17t-10 -38.5t-12 -41t-9 -24.5q-3 -6 -7.5 -9t-13.5 -4.5t-23 -1.5h-35h-129z" />
<glyph unicode="6" d="M199 286l3 26q1 13 3.5 20.5t14.5 18.5q13 13 38.5 27t63.5 14q24 0 52 -8t53 -28t41.5 -56t16.5 -91q0 -54 -18 -95.5t-48.5 -69t-72.5 -41.5t-90 -14q-13 0 -32 1.5t-39.5 7t-41 16t-37.5 28.5q-21 22 -34.5 48t-20.5 53t-9.5 53t-2.5 47q0 66 17.5 122t47.5 101.5 t69 80.5t81 58.5t85.5 35.5t81.5 12q20 0 34.5 -4.5t14.5 -26.5q0 -10 -4.5 -24t-19.5 -14q-6 0 -19.5 3.5t-30.5 3.5q-31 0 -69 -21t-71 -63.5t-55.5 -106.5t-22.5 -150q0 -42 6 -79.5t18 -66t29.5 -45.5t41.5 -17q31 0 51 30.5t20 98.5q0 66 -22 107t-61 41 q-23 0 -34.5 -12.5t-16.5 -20.5h-11z" />
<glyph unicode="7" d="M134 73q15 23 40 64.5t53.5 90t57.5 98.5t52.5 91t38.5 68t16 29h-122h-71t-39 -0.5t-24 -1.5q-13 -1 -20.5 -3.5t-12.5 -10.5t-8.5 -23t-9.5 -39q-2 -8 -6 -10.5t-14 -2.5q-11 0 -17.5 3t-6.5 6q0 4 2 17t4.5 29t5 30t3.5 19q0 3 1.5 17t3 31t3 32t1.5 20q2 12 10 12 q51 0 114 -1t141 -1q21 0 47 0.5t50 0.5t43 0.5t25 0.5q8 0 14.5 -11t6.5 -18q0 -2 -3.5 -8t-12.5 -22q-67 -117 -139 -248.5t-137 -262.5q-2 -5 -7.5 -17t-11.5 -25.5t-11.5 -24.5t-7.5 -14q-7 -13 -26 -13q-9 0 -19.5 3.5t-19.5 9t-15 12t-6 12.5q0 4 1 7.5t4.5 9.5 t10.5 16.5t18 27.5z" />
<glyph unicode="8" d="M207 289q-5 -5 -11 -13t-11.5 -20.5t-9.5 -30t-4 -42.5t5.5 -50.5t17 -45.5t29.5 -33t43 -13q37 0 59 27t22 72q0 27 -6.5 45t-22.5 33.5t-43 31.5t-68 39zM295 378q6 7 12.5 14.5t11.5 18.5t8.5 26.5t3.5 36.5q0 24 -5.5 45.5t-16 38t-25 26t-32.5 9.5q-11 0 -22 -4 t-20 -14t-14.5 -26.5t-5.5 -40.5t7 -42.5t20 -33.5t32.5 -28t45.5 -26zM325 357q36 -17 64.5 -35t48.5 -39.5t30.5 -49t10.5 -61.5q0 -42 -20.5 -84t-74.5 -70q-20 -10 -42.5 -16t-43.5 -9t-37.5 -3.5t-24.5 -0.5q-30 0 -52.5 3t-39 8.5t-28.5 12t-21 13.5q-23 19 -39.5 50 t-16.5 72q0 31 9.5 55t27 44t42.5 36.5t56 31.5q-16 9 -35.5 21.5t-36 31.5t-27.5 44.5t-11 58.5q0 36 14 68t41 55.5t66 37t90 13.5q30 0 62 -6t58.5 -22t43.5 -42.5t17 -67.5q0 -35 -12 -59t-30.5 -41t-42 -28.5t-46.5 -21.5z" />
<glyph unicode="9" d="M318 355l-3 -38q-1 -6 -2 -14.5t-5 -13.5q-13 -21 -45.5 -34t-67.5 -13t-63.5 13t-48.5 36t-31.5 55.5t-11.5 71.5q0 56 20 98.5t53 71t74.5 43t85.5 14.5q28 0 64.5 -10t68.5 -38t54 -79t22 -132q0 -102 -33.5 -178.5t-88 -127.5t-123.5 -77t-141 -26q-20 0 -31 6 t-11 25q0 24 7.5 32.5t19.5 8.5q6 0 19 -3t33 -3q34 0 70.5 19.5t67 59t50.5 100t20 143.5q0 27 -2.5 65.5t-12 74t-27.5 61t-48 25.5q-12 0 -24.5 -5.5t-23 -19.5t-17 -38t-6.5 -61q0 -40 7.5 -67.5t19 -45t26 -25t28.5 -7.5q18 0 28 11t16 22h13z" />
<glyph unicode=":" horiz-adv-x="259" d="M50 67q0 14 7.5 28.5t19.5 26.5t26.5 19.5t29.5 7.5q13 0 27 -8t25 -20t18 -26.5t7 -27.5q0 -15 -8 -29.5t-20 -25t-26 -17t-26 -6.5q-14 0 -28.5 7t-26 18t-18.5 25t-7 28zM50 349q0 14 7.5 29t19.5 27t26.5 19.5t28.5 7.5t28 -8t25 -20t18 -26.5t7 -27.5 q0 -15 -8 -29.5t-20 -25t-26 -17t-26 -6.5q-14 0 -28.5 7t-26 18t-18.5 24.5t-7 27.5z" />
<glyph unicode=";" horiz-adv-x="259" d="M11 -161q25 6 48.5 16.5t42 25.5t30 35t11.5 45q0 11 -2 18t-7.5 12t-15.5 10.5t-26 13.5q-11 6 -17.5 13t-9.5 13.5t-3.5 12.5t-0.5 9q0 8 3.5 19t11.5 21t22 17t34 7q25 0 44.5 -11.5t33 -30.5t20.5 -42t7 -47q0 -29 -9.5 -55t-27 -48t-41 -38.5t-50.5 -26.5 q-19 -7 -39 -11.5t-27 -4.5q-3 0 -7.5 1.5t-15.5 9.5l-12 8zM54 349q0 14 7.5 29t19 27t26 19.5t29.5 7.5q14 0 28 -8t25 -20t18 -26.5t7 -27.5q0 -15 -8 -29.5t-20 -25t-26 -17t-26 -6.5q-14 0 -28 7t-25.5 18t-19 24.5t-7.5 27.5z" />
<glyph unicode="&#x3c;" horiz-adv-x="513" d="M437 501l-209 -132l209 -143v-150l-362 248v8l362 225v-56z" />
<glyph unicode="=" d="M483 228q1 -8 -1 -9.5t-10 -1.5h-424q-10 0 -11.5 1t-1.5 8v57q0 8 1.5 9.5t9.5 1.5h425q9 0 10.5 -1t1.5 -8v-57zM483 351q1 -8 -1 -9t-10 -1h-424q-10 0 -11.5 1t-1.5 8v56q0 8 1.5 9.5t10.5 1.5h424q9 0 10.5 -1t1.5 -8v-57z" />
<glyph unicode="&#x3e;" d="M78 133l210 132l-210 143v149l362 -247v-8l-362 -226v57z" />
<glyph unicode="?" horiz-adv-x="426" d="M79 67q0 14 7.5 28.5t19.5 26.5t26.5 19.5t29.5 7.5q13 0 27 -8t25 -20t18 -26.5t7 -27.5q0 -15 -8 -29.5t-20 -25t-26 -17t-26 -6.5q-14 0 -28.5 7t-26 18t-18.5 25t-7 28zM161 649q42 0 75 -14.5t59 -37t44 -50t30 -54t17.5 -49t5.5 -33.5q0 -30 -12.5 -51.5 t-29.5 -35.5t-34.5 -22t-28.5 -12q-29 -11 -48.5 -18.5t-31.5 -13t-19 -9t-11 -7.5q-4 -5 -6 -13t-2 -33q0 -7 -0.5 -8.5t-2.5 -2.5q-4 -1 -8 -1h-16q-5 0 -7 2.5t-4 12.5q-7 29 -10.5 45.5t-5.5 26t-2.5 15t-0.5 12.5q0 18 5.5 30.5t18 23t33 21.5t51.5 26q29 14 47 23.5 t27.5 17.5t13 17t3.5 22q0 28 -20.5 47.5t-50.5 19.5q-17 0 -36 -4.5t-31 -9.5q-18 -8 -29 -12.5t-17.5 -7t-11 -3t-9.5 -0.5q-11 0 -19.5 7t-14.5 17.5t-9 22.5t-3 23q0 26 14 40t31.5 21t34 8t21.5 1z" />
<glyph unicode="@" horiz-adv-x="778" d="M441 411q-22 0 -42.5 -12.5t-36.5 -32t-25.5 -44t-9.5 -48.5q0 -5 0.5 -12t3 -14t7 -12t13.5 -5q13 0 30.5 18t33 44.5t26 55.5t10.5 51q0 11 -10 11zM428 249q-8 -14 -19.5 -31.5t-26.5 -33.5t-33.5 -26.5t-40.5 -10.5q-20 0 -34 8.5t-24 22t-14.5 30.5t-4.5 34 q0 35 19.5 74.5t53.5 75.5t80 63.5t99 38.5q7 16 23 16q4 0 11.5 -0.5t15 -3.5t13.5 -9t6 -16q0 -2 -3.5 -20.5t-8.5 -45.5t-11 -59t-11 -62t-8.5 -53.5t-3.5 -32.5q0 -6 3.5 -13t17.5 -7q22 0 43.5 15.5t38.5 41.5t27 61.5t10 76.5q0 50 -16 89t-44.5 66t-67.5 41.5 t-85 14.5q-60 0 -112.5 -23.5t-91.5 -65t-61.5 -99t-22.5 -125.5q0 -55 18 -100.5t51.5 -78t82 -50.5t108.5 -18q36 0 68.5 5.5t56.5 14.5q17 6 21.5 7.5t7.5 1.5q4 0 7.5 -4t5.5 -8.5t3 -9t1 -5.5q0 -3 -4.5 -6.5t-30.5 -13.5q-69 -27 -156 -27q-68 0 -132 17t-113.5 52.5 t-79.5 90t-30 129.5q0 73 28 139.5t80.5 117t128 80.5t169.5 30q69 0 127 -18.5t101 -51.5t67 -79.5t24 -102.5q0 -53 -20 -98t-56 -78t-86 -51.5t-110 -18.5q-11 0 -22 1.5t-20 6.5t-15 15.5t-6 27.5q0 16 3 29.5t5 21.5z" />
<glyph unicode="A" horiz-adv-x="704" d="M320 506q-11 -25 -24.5 -57t-27 -65t-26.5 -65t-23 -57q97 -3 195 0q-14 36 -29 74t-28 71.5t-23 59.5t-14 39zM322 630q42 7 57.5 9t23.5 2q6 0 9 -5.5t5 -14.5q8 -26 19.5 -57.5t25 -65.5t27.5 -68.5t27 -66.5q19 -48 33 -82t26 -62.5t23.5 -55.5t26.5 -61 q14 -32 28.5 -44.5t40.5 -17.5q8 -1 9 -6.5t1 -14.5q0 -11 -1 -16t-9 -5q-35 0 -68 1t-68 1q-28 0 -61 -1t-69 -1q-12 0 -14.5 4t-2.5 12q0 13 1.5 18.5t11.5 6.5q23 2 39.5 8t16.5 26q0 6 -6 25.5t-14.5 42.5t-16.5 44.5t-12 32.5q-20 0 -52.5 0.5t-66.5 0.5t-64.5 -0.5 t-46.5 -0.5q-6 -17 -14 -38.5t-15.5 -42t-12.5 -37.5t-5 -26q0 -21 19.5 -27.5t41.5 -7.5q17 -1 19.5 -3.5t2.5 -18.5q0 -8 -1.5 -13.5t-9.5 -5.5q-32 1 -62.5 1.5t-62.5 0.5q-21 -1 -47 -1.5t-38 -0.5q-8 0 -11.5 2.5t-3.5 13.5q0 10 1.5 16.5t9.5 8.5q15 3 26 12.5 t24.5 30.5t31.5 57t46 93q12 25 32.5 68.5t43 91.5t43 94.5t32.5 78.5q8 20 12.5 32.5t7.5 19.5t5 9.5t6 3.5z" />
<glyph unicode="B" horiz-adv-x="667" d="M262 315v-50t0.5 -70.5t1.5 -68t3 -42.5q2 -9 5.5 -16t11 -12.5t20.5 -8t34 -2.5q25 0 52 7.5t47 24.5q21 20 31 49.5t10 58.5q0 7 -1.5 23.5t-9.5 35t-25 35.5t-48 26q-29 9 -61.5 10t-70.5 0zM263 360q32 -1 51 0.5t35 3.5q30 5 46.5 21.5t25 35.5t10 36t1.5 25 q0 43 -15 66t-36 33.5t-44 12.5t-39 2q-20 0 -25.5 -1t-6.5 -5q-2 -5 -2.5 -37t-1 -71.5t0 -75t0.5 -46.5zM579 499q0 -32 -14 -60t-39 -48q-22 -17 -41.5 -23t-36.5 -10q24 -3 58.5 -11.5t69.5 -37.5q23 -18 38.5 -47t15.5 -71q0 -56 -25 -93t-62.5 -59.5t-81.5 -31.5 t-83 -9q-48 0 -86.5 2t-86.5 2q-23 0 -47.5 -0.5t-46 -1.5t-38.5 -1.5t-23 -0.5q-11 0 -13 5t-2 17q0 13 3.5 15t19.5 4q21 3 33 9t19 15.5t9.5 23.5t3.5 33q0 6 0.5 15t1 25t0.5 42v65v51q0 105 -1 160.5t-5 75.5q-2 14 -6.5 21.5t-12 11.5t-19 5.5t-27.5 3.5 q-11 2 -12.5 5t-1.5 16t4.5 16t22.5 3q12 0 35.5 0.5t52 1.5t59.5 2t59 2t49.5 1.5t31.5 0.5q15 0 37.5 -0.5t47.5 -4.5t50 -13t45 -25t32.5 -41t12.5 -61z" />
<glyph unicode="C" horiz-adv-x="685" d="M43 313q0 104 46.5 173.5t120.5 110.5q54 31 115 41t124 10q29 0 54 -1.5t54 -3.5q10 -1 24 -2.5t24 -1.5q5 0 8.5 1.5t8.5 3.5q2 2 6 2h5q14 0 16 -2.5t2 -5.5q0 -2 -1.5 -16.5t-3.5 -31.5t-4 -33t-2 -22q0 -5 -1 -17.5t-2 -26.5t-2 -25.5t-2 -13.5q-2 -4 -6 -5t-15 -1 q-14 0 -18 2t-6 15q-2 17 -6 38.5t-11 32.5q-11 18 -30.5 28t-41.5 15t-43.5 6t-35.5 1q-69 0 -108 -19t-61 -47q-21 -28 -37 -71.5t-16 -116.5q0 -75 18.5 -129t49.5 -89.5t72.5 -52t87.5 -16.5q10 0 32 2t47 11.5t50 30.5t42 60q10 23 13 28t8 5q1 0 6.5 -0.5t12 -2 t11.5 -5t5 -8.5l-4.5 -21.5t-10.5 -47.5t-11.5 -48.5t-8.5 -25.5t-23.5 -8.5t-51 -11t-68 -9.5t-73.5 -4q-95 0 -162.5 27t-111.5 72.5t-64.5 104t-20.5 121.5z" />
<glyph unicode="D" horiz-adv-x="796" d="M601 329q0 19 -2.5 47.5t-12 60t-27 61.5t-47.5 52q-21 15 -57.5 28.5t-103.5 13.5q-27 0 -43 -3.5t-24.5 -10t-11.5 -16t-4 -21.5q-1 -8 -1.5 -29t-0.5 -49t-0.5 -59.5t-0.5 -61.5v-54v-36t0.5 -36t1 -50t2 -49t4.5 -33q5 -21 29 -28.5t56 -7.5q35 0 69.5 7.5t64.5 27.5 q57 36 83 98t26 148zM753 336q0 -62 -14 -109.5t-36 -82t-49 -57.5t-52.5 -37.5t-46.5 -22t-31 -9.5q-49 -13 -98 -16.5t-96 -3.5q-17 0 -40.5 0.5t-47.5 0.5q-23 0 -44 0.5t-34 0.5q-14 0 -32 -0.5t-36 -0.5h-33h-20q-8 0 -9.5 5t-1.5 13q0 14 2 17t15 5q18 3 31 6t21.5 12 t13.5 26t6 47q1 28 2 63.5t1.5 72.5t0.5 73v66v59t-0.5 38t-1.5 25t-2 19q-2 17 -6.5 26.5t-13 14.5t-20.5 6.5t-30 3.5q-10 1 -11.5 4t-1.5 17q0 9 1 15.5t8 6.5q5 0 11.5 -0.5t17.5 -1.5q10 -1 24.5 -1.5t35.5 -0.5q24 0 64 0.5t81 1.5q42 1 76 1.5t47 0.5q79 0 143.5 -19 t110.5 -56.5t70.5 -95t24.5 -133.5z" />
<glyph unicode="E" horiz-adv-x="630" d="M125 337v87q0 36 -0.5 60t-1.5 38t-2 24q-3 32 -18.5 40.5t-44.5 9.5q-12 0 -14 2.5t-2 17.5t3 17.5t17 2.5t46 -0.5t68 -0.5q36 -1 68 -1.5t44 -0.5q38 0 74.5 0.5t71.5 1.5q35 0 68.5 0.5t62.5 0.5q9 0 10.5 -5t1.5 -13q0 -9 -3.5 -29.5t-5.5 -54.5q-1 -12 -2.5 -27.5 t-1.5 -25.5q0 -8 -4.5 -10t-17.5 -2q-12 0 -16 2.5t-5 9.5q-4 32 -9 52t-20.5 31t-46 15t-86.5 4h-21q-13 0 -26.5 -1t-25 -3t-14.5 -6q-5 -5 -6 -18t-1 -24q-1 -42 -1 -88t1 -88q69 0 108.5 1.5t59.5 7.5t26 16.5t8 28.5q3 20 6 23.5t19 3.5q7 0 13 -2.5t6 -7.5 q0 -6 -0.5 -18.5t-0.5 -26.5q0 -13 -0.5 -25.5t-0.5 -16.5q0 -6 0.5 -22t0.5 -34q0 -17 0.5 -32t0.5 -21q0 -10 -4 -12.5t-14 -2.5q-9 0 -14.5 1.5t-6.5 11.5q-4 28 -9.5 43t-28.5 22q-13 4 -28 6t-35.5 3t-46.5 1h-61v-41q0 -27 0.5 -57t1 -57t1.5 -39q1 -13 3 -23 t9.5 -16.5t23 -10t44.5 -3.5q60 0 94 6t54 20.5t31 38.5t25 61q2 6 10.5 6.5t16.5 -2.5q8 -2 13 -6t5 -9q0 -11 -10 -55.5t-27 -102.5q-2 -6 -6.5 -10.5t-12.5 -4.5q-12 0 -50 0.5t-86 1.5q-48 0 -96.5 0.5t-82.5 0.5q-31 0 -57 -0.5t-48 -0.5q-22 -1 -39 -1.5t-31 -0.5 q-9 0 -10.5 3t-1.5 16q0 14 4 17t22 5q38 3 47 21t11 45q1 18 2 48t1.5 63.5t0.5 65.5v55z" />
<glyph unicode="F" horiz-adv-x="593" d="M265 348q10 0 33.5 0.5t50 2t50 5t33.5 10.5q11 8 14 18t6 35q1 10 4.5 12.5t13.5 2.5q12 0 17.5 -2t5.5 -10q0 -5 -0.5 -16t-1 -25t-1 -29t-0.5 -28q0 -12 0.5 -26.5t1 -28.5t1 -26t0.5 -19q0 -9 -5 -11t-13 -2q-16 0 -19.5 2t-5.5 13q-2 24 -6 38.5t-21.5 21.5t-54.5 9 t-104 2q0 -49 0.5 -78.5t0.5 -47.5q0 -17 0.5 -27t1.5 -21q1 -21 3 -36t7 -25t15.5 -15.5t28.5 -6.5q14 -1 22 -1h18t9 -17q0 -9 -1 -16t-8 -7q-14 0 -35.5 0.5t-45.5 0.5t-46.5 0.5t-38.5 0.5q-54 0 -93.5 -1t-55.5 -1q-8 0 -8 20q0 13 3 15.5t17 5.5q20 4 32.5 9t19 16.5 t9 30.5t3.5 51q1 20 1.5 57t1 78t0.5 80v64q0 58 -1.5 90.5t-6.5 49.5q-6 18 -20 23.5t-34 6.5q-17 1 -21 2.5t-4 9.5q0 20 2 24.5t13 4.5h27q18 0 40.5 -0.5t48.5 -0.5h53t52.5 -0.5t48 -1t38.5 -0.5h26q11 0 37.5 0.5t55.5 0.5t54 0.5t34 0.5q8 0 9.5 -2t1.5 -5t-1.5 -17 t-4 -34t-5.5 -44.5t-5 -49.5q-1 -16 -4.5 -20t-19.5 -4q-17 0 -20.5 3.5t-5.5 16.5q-5 27 -8 43t-6.5 24.5t-9.5 12.5t-16 7q-13 4 -30.5 7t-36 5t-36.5 2.5t-32 0.5q-25 0 -39.5 -1t-22 -4.5t-9.5 -9t-2 -14.5v-205z" />
<glyph unicode="G" horiz-adv-x="759" d="M43 302q0 41 10 82t29.5 77.5t47.5 67.5t65 53q38 22 76.5 35t73.5 20t63 9t45 2q15 0 34 -1.5t36.5 -3t30.5 -3t18 -2.5q20 -3 25 -3.5t8 -0.5q5 0 7 0.5t10 5.5q4 2 8 2h6q10 0 12.5 -3.5t2.5 -13.5v-49t2 -48q1 -11 3 -29t2 -32q0 -7 -5 -9.5t-28 -2.5q-7 0 -10 6.5 t-6 17.5q-5 18 -12.5 37t-25.5 34.5t-51.5 25.5t-89.5 10q-62 0 -106.5 -20.5t-73 -57t-42 -85.5t-13.5 -106q0 -11 1.5 -34t7 -51t16.5 -57.5t31 -54.5t45 -40t50.5 -23.5t50 -11t42.5 -2.5q9 0 23.5 1t28 3.5t25 7.5t14.5 13q2 5 3 16.5t1.5 25t0.5 25.5v21 q0 35 -0.5 55.5t-2 31.5t-4 16t-5.5 9q-2 3 -5.5 5t-11.5 4t-22 3.5t-38 2.5q-8 0 -12 3t-4 14t1.5 17t12.5 6q10 0 22.5 -0.5t30.5 -1t43 -1t60 -0.5q49 0 80.5 1.5t45.5 1.5q10 0 10 -17q0 -9 -1 -15.5t-8 -8.5q-20 -5 -30.5 -9.5t-16 -15.5t-6.5 -33.5t-1 -63.5v-22 t0.5 -27l1 -28t1.5 -24q1 -7 2 -19.5t1 -20.5q0 -7 -7 -9.5t-21 -4.5q-22 -3 -49 -6t-56 -5.5t-59.5 -4t-58.5 -1.5q-45 0 -81 4t-66 10.5t-54.5 16t-45.5 21.5q-38 21 -64.5 52t-43 66t-23.5 72.5t-7 71.5z" />
<glyph unicode="H" horiz-adv-x="833" d="M265 302v-94t1 -66t3 -44t5 -29q6 -22 23.5 -26t52.5 -5q6 0 7.5 -5.5t1.5 -13.5t-1 -14.5t-9 -6.5q-10 0 -34 0.5t-51 1.5q-26 0 -50 0.5t-33 0.5q-25 0 -48 -0.5t-42 -0.5q-18 -1 -31 -1.5t-18 -0.5q-6 0 -8 6.5t-2 14.5q0 14 7.5 17t18.5 4q23 2 35.5 10.5t18.5 23.5 t7.5 35.5t2.5 46.5q1 10 1.5 43.5t1 75t0.5 83.5v70q0 57 -1.5 88.5t-6.5 48.5q-6 19 -20 24t-34 6q-15 0 -20.5 2t-5.5 10q0 16 2 23t10 7q5 0 21.5 -0.5t37.5 -0.5q22 0 47 -0.5t46 -0.5q14 0 32 0.5t36 0.5q19 0 37.5 0.5t32.5 0.5q8 0 10 -3.5t2 -11.5q0 -19 -4 -23 t-16 -4q-21 0 -34 -8t-19.5 -21.5t-9 -30t-2.5 -34.5q-1 -47 -1 -79v-64h305v64q0 32 -1 79q0 30 -2 48.5t-9 28.5t-22 13.5t-41 3.5q-12 0 -12 12q0 19 2.5 24.5t10.5 5.5q14 0 32.5 -0.5t36.5 -0.5q19 0 37 -0.5t32 -0.5q21 0 46 0.5t47 0.5q23 0 41 0.5t26 0.5q5 0 6 -5 t1 -13q0 -15 -3.5 -19.5t-17.5 -4.5q-42 0 -56 -23.5t-14 -67.5v-348q0 -25 1 -45t4.5 -35t10.5 -23.5t20 -9.5q37 -4 48 -5.5t11 -6.5q0 -18 -1 -25.5t-11 -7.5q-5 0 -17.5 0.5t-31.5 1.5q-19 0 -41.5 0.5t-48.5 0.5q-9 0 -32.5 -0.5t-50.5 -0.5q-27 -1 -51 -1.5t-34 -0.5 q-14 0 -14 24q0 16 20 16q5 0 15.5 1.5t21.5 7.5t21 17t13 30q3 15 4 39.5t2 53.5t1 59v56h-305z" />
<glyph unicode="I" horiz-adv-x="389" d="M125 406v37t-1 46.5t-2.5 44.5t-4.5 30q-3 10 -7.5 15.5t-13 8.5t-22.5 4t-37 3q-11 1 -13 4.5t-2 17.5t3 17t14 3q18 0 60 -1t94 -1q19 0 39.5 0.5t39.5 0.5q20 0 36.5 0.5t27.5 0.5h19q8 0 10 -3.5t2 -10.5q0 -19 -3 -23t-20 -6q-39 -2 -55 -14t-21 -49 q-2 -12 -2.5 -37t-1 -53.5t-0.5 -56.5v-44q0 -97 1 -162t5 -93q4 -21 13 -33t40 -14h31q8 0 9.5 -3t1.5 -14q0 -14 -1 -18t-9 -4q-11 0 -32 0.5t-47 0.5t-53 0.5t-50 0.5q-42 0 -75.5 -1t-64.5 -1q-5 0 -8 3.5t-3 17.5q0 13 5 15.5t25 4.5q20 1 33 7t21 16.5t11 27t4 39.5 q1 27 2 63t1.5 74t0.5 74v65z" />
<glyph unicode="J" horiz-adv-x="370" d="M-96 -150q0 14 8.5 25.5t20.5 19.5t24 12.5t19 4.5t15 -2.5t28 -14.5q19 -11 29 -14t18 -3q21 0 33 12t18 29.5t8 38t3 37.5q1 16 1.5 30.5t0.5 34.5t0.5 49.5t0.5 75.5v112v161q0 46 -1 73t-8 40.5t-22 17.5t-43 4q-21 0 -24.5 6.5t-3.5 17.5q0 14 4.5 17t14.5 3 q5 0 21 -0.5t37 -1t46 -1t48 -0.5q48 0 89 1.5t58 1.5q8 0 10 -3.5t2 -11.5q0 -11 -2 -18.5t-12 -9.5q-27 -3 -41 -10.5t-20.5 -20.5t-7.5 -32t-1 -45q0 -16 -0.5 -53.5t-1 -79.5t-0.5 -79v-51q-1 -60 -2.5 -104t-7.5 -78.5t-18.5 -63t-35.5 -56.5q-17 -22 -41 -43.5 t-53 -39t-60.5 -28.5t-63.5 -11q-5 0 -19 1t-29 6t-27 15.5t-12 28.5z" />
<glyph unicode="K" horiz-adv-x="741" d="M265 276q0 -83 0.5 -129.5t4.5 -70t13.5 -30t26.5 -7.5q8 -1 16 -1h15q8 0 8.5 -4.5t0.5 -13.5q0 -11 -1 -16t-9 -5t-24 0.5t-36 0.5t-42 0.5t-43 0.5q-18 0 -40 -0.5t-43 -0.5q-20 0 -36.5 -0.5t-23.5 -0.5q-6 0 -7 6t-1 14q0 13 2 15.5t16 4.5q17 3 28.5 7t18.5 14 t10 26.5t4 43.5q1 32 1.5 70t0.5 77v77v71q0 57 -1.5 91t-7.5 51q-5 17 -17.5 21t-44.5 9q-6 2 -7 6t-1 15q0 13 3.5 15.5t16.5 2.5q17 0 47 -1t72 -1q20 0 44 0.5t45 0.5q22 0 39 0.5t23 0.5q8 0 10 -4t2 -16t-3 -16t-20 -6q-34 -3 -44 -16.5t-13 -47.5q-1 -9 -1.5 -32.5 t-1 -53t-1 -60t-0.5 -52.5q16 15 37 34t42 38.5t41.5 38.5t36.5 34q31 30 47.5 47.5t24.5 28t9.5 15.5t1.5 9q0 9 -10 13.5t-39 4.5q-14 0 -18 2.5t-4 16.5q0 17 3.5 19.5t10.5 2.5q35 0 68.5 -1t68.5 -1q7 0 23.5 0.5t34.5 0.5q19 0 35 0.5t22 0.5q8 0 11.5 -2.5t3.5 -16.5 t-4.5 -17.5t-20.5 -7.5q-11 -3 -20.5 -6t-22 -10t-30.5 -19.5t-45.5 -33.5t-66.5 -53t-94 -77q36 -47 71 -92.5t64.5 -83.5t51.5 -66.5t33 -40.5q17 -20 29 -33t23.5 -21t23 -12t27.5 -6q6 -1 6.5 -6t0.5 -16q0 -17 -16 -17q-3 0 -17 0.5t-35 0.5t-47 0.5t-53 0.5 q-20 0 -41 -0.5t-40 -0.5q-18 0 -32.5 -0.5t-21.5 -0.5q-11 0 -11 23q0 11 3 15t17 4q14 1 26.5 3.5t12.5 14.5q0 4 -1.5 8.5t-5.5 11t-12 17t-21 27.5q-35 47 -68 90t-71 96z" />
<glyph unicode="L" horiz-adv-x="593" d="M325 59q65 0 102.5 4t58 13.5t29.5 25.5t18 41q8 23 11.5 36.5t11.5 13.5q6 0 15.5 -1.5t13.5 -5.5q3 -2 3 -20q0 -9 -3 -27t-6.5 -38.5t-7.5 -39.5t-6 -28q-4 -18 -8 -26.5t-13 -8.5q-10 0 -30 0.5t-55 1.5t-86.5 1.5t-124.5 0.5q-41 0 -73 -0.5t-57 -1.5 q-26 -1 -43.5 -1.5t-30.5 -0.5q-6 0 -8.5 3.5t-2.5 17.5t3.5 16t20.5 4q40 4 51.5 27t13.5 64q1 25 1.5 56.5t1 64t0.5 64.5v59v40q0 24 -0.5 48t-1 46t-1.5 36q-2 35 -16.5 42t-45.5 9q-12 2 -14 5t-2 17t3 16.5t17 2.5q20 0 53 -1t76 -1q20 0 43.5 0.5t44.5 0.5 q22 0 39.5 0.5t26.5 0.5q10 0 10 -14q0 -18 -3 -22.5t-20 -5.5q-22 -1 -35 -6t-20 -14t-9 -22t-3 -30q-2 -36 -2 -126q0 -89 1 -245q0 -30 1.5 -48t7 -28t17.5 -13t33 -3z" />
<glyph unicode="M" horiz-adv-x="981" d="M665 484q11 21 28 57t28 75q4 14 6 17.5t10 3.5q34 -1 67 -1.5t67 -0.5q15 1 30 1q16 0 31 1q8 0 9.5 -4t1.5 -15q0 -15 -2.5 -19t-17.5 -6q-25 -3 -39 -7.5t-20.5 -16.5t-7.5 -35.5t-1 -66.5v-44q0 -30 0.5 -69t1 -82t1 -81t1.5 -66t2 -37q3 -30 19 -39t48 -10 q14 -1 17 -5.5t3 -13.5q0 -14 -1 -18t-8 -4q-10 0 -27.5 0.5t-39.5 1.5q-21 0 -43.5 0.5t-42.5 0.5q-17 0 -37.5 -0.5t-42.5 -0.5q-22 -1 -42 -1.5t-34 -0.5q-6 0 -7 4t-1 18q0 11 4 14.5t18 4.5q28 3 43.5 7.5t23 21.5t8.5 52.5t1 98.5v38v36t-0.5 38t-0.5 46q-1 46 1 68.5 t4 42.5q-8 -25 -16 -45t-22.5 -48.5t-37.5 -72t-61 -115.5q-35 -67 -56.5 -111.5t-32.5 -70.5q-2 -6 -9.5 -9t-16.5 -5q-17 -5 -26 -7.5t-11 -2.5q-5 0 -8.5 8.5t-7.5 18.5q-7 18 -19.5 46t-27 60t-30 64.5t-28.5 60.5q-28 58 -46 96t-29 64t-18 45t-12 39q1 -21 1.5 -38.5 t0.5 -31.5q0 -12 -0.5 -40t-0.5 -59t-0.5 -59t-0.5 -38v-38t1 -47t3.5 -45.5t6.5 -33.5q8 -19 24 -25t55 -8q11 -1 14 -7t3 -15q0 -12 -1.5 -16t-12.5 -4q-7 0 -24 0.5t-37 1.5q-19 0 -35.5 0.5t-23.5 0.5q-8 0 -29.5 -0.5t-44.5 -0.5q-23 -1 -43 -1.5t-28 -0.5t-9 4t-1 19 q0 11 2 13.5t11 4.5q20 1 35.5 4.5t26 12t17.5 25t10 43.5q2 17 4.5 51.5t4.5 76t4 85.5t3 81.5t2 63.5t1 31q0 28 -4.5 43.5t-15 24t-26.5 11.5t-39 5q-6 1 -9 3.5t-3 11.5q0 14 2 19.5t15 5.5q6 0 18.5 -0.5t27.5 -0.5t31.5 -0.5t30.5 -0.5q26 0 48 1t42 1q14 0 18.5 -7.5 t12.5 -27.5q12 -32 25.5 -63t30 -66.5t37 -77.5t47.5 -95q4 -8 13.5 -26t19.5 -38.5t19 -39t13 -25.5z" />
<glyph unicode="N" horiz-adv-x="815" d="M630 416q0 15 -0.5 36.5t-1.5 43.5t-3.5 41.5t-6.5 29.5q-6 17 -22.5 23t-58.5 8q-10 1 -11.5 4t-1.5 18q0 8 3 12.5t13 4.5q7 0 26 -0.5t39 -0.5q21 0 39 -0.5t25 -0.5t25.5 0.5t38.5 0.5t38 0.5t24 0.5q8 0 9.5 -3.5t1.5 -17.5q0 -12 -1 -15t-8 -4q-23 -3 -39.5 -6.5 t-28 -13.5t-17.5 -29t-8 -53q-1 -17 -2.5 -61t-3 -98t-2.5 -111.5t-1 -101.5v-23t0.5 -29t1 -29.5t0.5 -23.5v-6q0 -5 -10 -9.5t-37 -16.5q-5 -2 -7.5 0t-6.5 7q-22 27 -40 48.5t-39.5 44.5t-49 51.5t-67.5 70.5q-8 8 -33 35t-56 60.5t-61 66.5t-48 52l-17.5 17.5 t-26.5 29.5q-1 -16 -1.5 -36.5t-0.5 -41.5v-40v-29q0 -95 0.5 -149t4.5 -82t12.5 -37t23.5 -12q4 -1 13 -1.5t19.5 -1t20 -1.5t12.5 -2q3 -2 3.5 -8t0.5 -11q0 -9 -2 -13.5t-10 -4.5q-17 0 -57 1t-81 1q-7 0 -24.5 -0.5t-37.5 -0.5t-37 -0.5t-23 -0.5q-5 0 -8.5 2.5 t-3.5 12.5q0 12 1 18t9 7q23 2 38 5.5t25 14t15 30t8 54.5q1 13 2.5 43t3 68t2.5 79t2 76t1.5 58.5t0.5 27.5q0 28 -4.5 46.5t-15 29.5t-27 16t-40.5 7q-6 1 -10 4t-4 16q0 14 4 18.5t12 4.5q13 0 40 -2t50 -2q25 0 47.5 2t39.5 2q8 0 15 -1t11 -9q14 -26 48.5 -65t84.5 -92 q10 -10 29.5 -31t44.5 -46.5t52 -53.5t51.5 -53.5t43.5 -45.5t28 -29v205z" />
<glyph unicode="O" horiz-adv-x="815" d="M195 344q0 -74 18.5 -130t50 -94t72 -57.5t85.5 -19.5q39 0 75 14.5t63.5 44.5t44 77t16.5 112q0 66 -17 121.5t-47 95t-71.5 62t-90.5 22.5q-37 0 -70.5 -12t-57.5 -34t-38.5 -51.5t-21.5 -58.5t-9 -54t-2 -38zM43 319q0 61 17.5 109.5t47 85t68 62t80.5 41.5t85 23.5 t81 7.5q83 0 148 -25t110 -68.5t68.5 -102t23.5 -125.5q0 -31 -7 -68t-24 -74.5t-45 -73t-69.5 -63t-98.5 -44t-132 -16.5q-94 0 -161 27t-109.5 72.5t-62.5 105.5t-20 126z" />
<glyph unicode="P" horiz-adv-x="611" d="M265 296q10 -1 21.5 -1.5t25.5 -0.5q76 0 108.5 43t32.5 113q0 51 -14 79t-35 42t-45 17t-44 3q-32 0 -40 -3.5t-9 -16.5q0 -3 -0.5 -22t-0.5 -47v-59v-62v-53v-32zM125 338v48q0 29 -0.5 59t-1.5 56.5t-2 43.5q-2 18 -7.5 28t-13.5 14.5t-17.5 6t-19.5 1.5q-14 0 -20 2 t-6 10q0 31 10 31q11 0 24 -0.5t29 -1.5q15 -1 32.5 -1.5t34.5 -0.5q21 0 47 0.5t52 1.5q27 1 53 1.5t46 0.5q74 0 125.5 -16.5t83.5 -63.5q13 -19 22 -44.5t9 -60.5q0 -20 -4 -42t-15 -45t-32 -44.5t-54 -39.5q-32 -17 -66 -25t-87 -8q-31 0 -48.5 1.5t-34.5 3.5 q1 -62 2 -105.5t4 -63.5q1 -12 3 -20.5t9.5 -14.5t23 -9t44.5 -3q9 0 11.5 -4t2.5 -14q0 -12 -1.5 -17t-12.5 -5q-18 0 -61.5 1t-93.5 1q-20 0 -42 -0.5t-42 -0.5t-35 -0.5t-22 -0.5q-12 0 -14.5 6.5t-2.5 14.5q0 14 5 16.5t19 4.5q31 4 43.5 17t16.5 49q3 23 3.5 71.5 t0.5 100.5v60z" />
<glyph unicode="Q" horiz-adv-x="815" d="M195 344q0 -74 18.5 -130t50 -94t72 -57.5t85.5 -19.5q40 0 76.5 15t63.5 45.5t43 77.5t16 110q0 66 -17 121t-47 95t-71.5 62.5t-90.5 22.5q-37 0 -70.5 -12t-57.5 -34q-25 -23 -39 -52.5t-21 -59t-9 -54t-2 -36.5zM385 -12q-71 2 -124.5 18.5t-91.5 43t-62.5 60.5 t-38.5 70t-19.5 72t-5.5 66q0 61 17 109.5t46.5 85t67.5 62.5t80.5 42t85.5 23.5t82 7.5q82 0 147 -24.5t110 -68t69 -102t24 -125.5q0 -35 -10 -82t-37 -93.5t-74 -86t-120 -60.5q27 -27 56 -54t59 -49t61 -35.5t61 -13.5q16 0 27.5 4t21.5 9q3 2 5.5 -1t7.5 -15 q5 -11 4 -16.5t-10 -9.5q-44 -19 -72 -23t-52 -4q-48 0 -93 16.5t-85 43.5t-74.5 61t-62.5 69z" />
<glyph unicode="R" horiz-adv-x="685" d="M261 322q9 -2 19 -2.5t28 -0.5q25 0 49 2.5t43.5 15.5t31.5 39t12 74q0 54 -15.5 83t-38 42.5t-47 16t-42.5 2.5q-28 0 -33 -6.5t-6 -25.5zM596 474q0 -48 -16.5 -79.5t-38.5 -51.5t-43.5 -29.5t-31.5 -13.5q13 -24 30.5 -53t36 -57t36.5 -52.5t32 -39.5q22 -24 40 -36.5 t32.5 -18.5t25.5 -7t18 -1t9 -2t2 -14t-1.5 -15.5t-10.5 -6.5q-11 -4 -31.5 -8.5t-46.5 -4.5q-41 0 -72.5 12t-54.5 28.5t-37 33t-21 25.5q-34 44 -61.5 93.5t-46.5 97.5q-27 -2 -45 -2t-40 1q1 -41 1 -66v-51q0 -40 2 -63.5t10 -35.5t24 -15.5t43 -3.5q10 0 12.5 -5 t2.5 -17q0 -8 -1 -13t-9 -5h-25t-45 0.5t-49 0.5h-37h-47t-42.5 -0.5t-34.5 -0.5h-20t-7 6.5t-1 14.5q0 11 4 14.5t21 5.5q21 3 32.5 11.5t17.5 20.5t7.5 27t1.5 31q1 29 2 65t1.5 73t0.5 72v66v37t-1 47.5t-2.5 45.5t-4.5 30q-7 19 -20 23.5t-45 7.5q-10 1 -11.5 4t-1.5 17 t6 16.5t14 2.5l99 -1q78 -1 139.5 3t89.5 4q52 0 91 -13t65.5 -35.5t39.5 -53.5t13 -66z" />
<glyph unicode="S" horiz-adv-x="574" d="M492 555q0 -26 2.5 -49.5t2.5 -30.5q0 -11 -13.5 -14.5t-20.5 -3.5q-9 0 -12 6t-9 29q-4 14 -11 31.5t-22 32.5t-41 25.5t-67 10.5q-38 0 -59 -11.5t-31.5 -26.5t-12.5 -29.5t-2 -19.5q0 -22 9 -38.5t23.5 -29t31.5 -22t34 -16.5q46 -20 77 -34t53 -25.5t37 -22.5t29 -26 q25 -27 33 -56.5t8 -52.5q0 -46 -21 -86t-57 -66q-23 -16 -60 -29t-104 -13q-13 0 -30 0.5t-35 2t-34.5 3.5t-28.5 4q-20 3 -30.5 5t-16.5 3t-8 1h-5q-12 0 -17 -5q-6 -3 -8.5 -4t-7.5 -1q-9 0 -12 4.5t-6 24.5q-2 12 -4 36.5t-4 49.5t-3.5 46t-1.5 26q0 16 10.5 22.5 t24.5 6.5q9 0 12 -4.5t8 -24.5q9 -32 18 -53.5t26 -38.5q22 -23 58.5 -35.5t74.5 -12.5t61.5 11t36.5 26.5t17.5 32.5t4.5 30q0 40 -24.5 63.5t-62.5 40.5q-48 21 -79 35t-52 25t-35 22t-27 25q-14 14 -28.5 41.5t-14.5 69.5q0 36 13.5 68.5t43 58t76.5 40.5t113 15 q18 0 32.5 -1t28.5 -2.5t29 -3.5t35 -5q12 -3 22 -3q2 0 12 2t11 2q10 0 10 -9v-73z" />
<glyph unicode="T" horiz-adv-x="667" d="M406 403v-77v-73t0.5 -63t0.5 -45q1 -37 3 -58t11 -31.5t27.5 -13t52.5 -3.5q11 -1 13 -6.5t2 -13.5q0 -11 -2.5 -16t-11.5 -5q-8 0 -22 0.5t-34 1.5q-21 0 -48.5 0.5t-65.5 0.5q-26 0 -49.5 -0.5t-44.5 -0.5q-21 -1 -39.5 -1.5t-34.5 -0.5q-6 0 -7 5.5t-1 16.5 q0 8 1.5 13t8.5 6q25 2 42 4.5t28 9.5t17 20t8 37q1 15 2 51.5t1.5 78.5t0.5 80v56q0 13 -0.5 39.5t-1 56t-1 57t-0.5 43.5q-64 -1 -101 -3.5t-58 -10.5t-30.5 -23.5t-16.5 -42.5q-6 -21 -9 -26t-14 -5q-16 0 -22.5 1.5t-6.5 9.5l1.5 10t3.5 24.5t4.5 32.5t5 34t4 28t2.5 17 q2 18 5 25.5t13 7.5q8 0 12.5 -3t14.5 -5q7 -2 24.5 -3t40.5 -2t49.5 -1.5t50.5 -0.5h44h31h31t60 0.5t74.5 1t74.5 1.5t60.5 3t31.5 5q5 2 10.5 3t8.5 1q11 0 11 -9q0 -2 -3 -14.5t-7 -28.5t-7 -31.5t-4 -23.5q0 -6 -2 -17t-4 -22.5t-4.5 -21t-3.5 -13.5q-2 -7 -7 -8.5 t-18 -1.5q-11 0 -16.5 2t-5.5 13q-1 28 -2 44.5t-3.5 25.5t-7 12t-13.5 6q-10 3 -31 5t-45 3t-47 1h-35v-169z" />
<glyph unicode="U" horiz-adv-x="759" d="M411 71q10 0 34 2t51 11.5t51 29t35 53.5q4 13 6.5 30t4 50t2 88.5t-0.5 144.5q0 41 -3 63.5t-12 33.5t-25.5 13.5t-44.5 4.5q-14 2 -16.5 4t-2.5 16q1 16 5.5 18.5t14.5 2.5q11 0 43.5 -1.5t83.5 -1.5q28 0 56 1.5t47 1.5q8 0 10.5 -4t2.5 -15q0 -15 -4 -18t-12 -5 q-23 -3 -36 -11t-19 -26t-7.5 -49.5t-2.5 -80.5q-1 -66 -2 -111.5t-3 -78t-7 -56t-13 -46.5q-16 -45 -47.5 -73.5t-70 -45t-80 -22.5t-76.5 -6q-50 0 -94.5 9t-79 28.5t-58 50t-31.5 73.5q-3 15 -4.5 32t-2 46.5t-1 75.5t-0.5 119v48v35t-0.5 24t-1.5 18q-2 17 -7 26.5 t-13.5 14t-20 6t-25.5 2.5q-8 1 -9.5 4.5t-1.5 15.5t2.5 16t9.5 4q37 0 73.5 -1t74.5 -1q36 0 72 1t72 1q12 0 15 -3t3 -14q0 -17 -3 -20.5t-16 -4.5q-36 -3 -54.5 -9t-23.5 -32q-2 -12 -3.5 -45t-2 -71.5t-0.5 -74.5v-53q0 -41 1.5 -71t5.5 -53t11.5 -40t19.5 -30 q21 -23 59 -33.5t72 -10.5z" />
<glyph unicode="V" horiz-adv-x="685" d="M382 138q35 81 69.5 162t66.5 162q4 10 9.5 24t10.5 28.5t8.5 28t3.5 22.5q0 17 -15 23.5t-56 6.5q-10 0 -12.5 2.5t-2.5 14.5q0 16 1.5 20t9.5 4q11 0 43 -1t73 -1q25 0 42.5 0.5t28.5 0.5q12 0 20 0.5t14 0.5q5 0 6 -3.5t1 -11.5q0 -14 -1 -18t-9 -6 q-16 -5 -25.5 -10.5t-21 -22t-28 -49t-45.5 -92.5q-4 -9 -16 -33t-28 -57.5t-34.5 -72t-36 -76.5t-33.5 -72t-26 -57q-7 -16 -10.5 -26t-6 -16t-4 -8.5t-3.5 -2.5q-8 -1 -19.5 -3t-22.5 -3.5t-19.5 -3t-11.5 -1.5q-5 0 -6.5 3t-5.5 15q-3 11 -12 36.5t-22 59t-28 72.5 l-30 78q-22 55 -37 93.5t-25.5 65.5t-17.5 44t-12 28.5t-8.5 19.5t-7.5 18q-11 24 -20 38t-17.5 21.5t-17 9.5t-18.5 3q-7 1 -8 5t-1 15t2 15.5t10 4.5t24 -0.5t36 -0.5t42.5 -0.5t42.5 -0.5t41.5 0.5t39.5 0.5q19 0 32 0.5t17 0.5q5 0 7.5 -3.5t2.5 -15.5q0 -14 -3 -17 t-17 -4q-21 -2 -36.5 -6.5t-15.5 -22.5q0 -6 5 -24t12 -38.5t14 -40.5t11 -30q11 -31 25 -69.5t28 -78.5t28 -78.5t26 -69.5z" />
<glyph unicode="W" horiz-adv-x="981" d="M555 440q9 15 18.5 33t17.5 35t13 32.5t5 25.5q0 11 -5 17t-12.5 9t-16.5 3.5t-17 0.5q-18 0 -33 -3t-15 -21q0 -8 4.5 -23t11 -33.5t14.5 -38.5t15 -37zM472 297l-90 229q-7 17 -12 29t-11 20t-13 12.5t-17 6.5q-11 2 -11 12q0 14 1.5 22t10.5 8q7 0 24 -0.5t45 -0.5 q28 -1 66.5 -1.5t86.5 -0.5q40 0 69.5 0.5t51.5 1.5q22 0 36 0.5t22 0.5q5 0 8.5 -2t3.5 -16t-3 -18.5t-15 -7.5q-8 -2 -14.5 -6t-12.5 -10.5t-12 -16.5t-15 -24q-10 -16 -22 -36.5t-24.5 -41.5t-24.5 -41t-22 -36l94 -241q30 66 64 138t67 143q6 11 15.5 31.5t18.5 42 t16 40.5t7 27q0 12 -5 18.5t-14 9.5t-22 4t-28 2q-11 0 -12.5 4t-1.5 18q0 8 1 13.5t7 5.5t19 -0.5t31 -0.5q18 -1 41 -1.5t49 -0.5q19 0 31.5 0.5t20.5 1.5q8 0 12 0.5t6 0.5q5 0 7 -3.5t2 -17.5t-2 -17.5t-12 -4.5q-6 -1 -12.5 -3t-14.5 -9.5t-18.5 -22t-26.5 -41.5 q-32 -54 -63 -114.5t-57 -114t-44.5 -94t-24.5 -54.5q-10 -23 -22 -51.5t-26 -65.5q-6 -21 -16 -22q-17 -3 -37 -6t-33 -3q-5 0 -8 3.5t-7 17.5l-85 226q-29 -55 -56 -107.5t-52 -114.5q-4 -11 -8 -15t-19 -5q-13 -2 -27 -4t-19 -2q-8 0 -10.5 5t-10.5 26q-29 79 -61 155.5 t-64 153.5q-41 96 -64.5 148.5t-37 78t-21.5 31t-18 7.5t-12 5.5t-2 15.5q0 11 1.5 15t7.5 4h24q18 0 37 -0.5t36 -0.5h26h40q21 0 39 0.5t31 0.5h18q6 0 9 -3t3 -16q0 -14 -3.5 -17t-17.5 -5q-25 -4 -36 -8.5t-11 -22.5q0 -5 0.5 -9t2.5 -10t6 -15t10 -24l151 -364z" />
<glyph unicode="X" horiz-adv-x="722" d="M398 401q11 12 26 30l30 36t27.5 33.5t18.5 23.5q18 22 25 33t7 18q0 13 -14.5 15.5t-28.5 3.5q-15 0 -18.5 3t-3.5 20q0 12 2.5 15.5t10.5 3.5q19 0 49 -1t59 -1t57 1t39 1q8 0 9 -5.5t1 -16.5t-4 -14.5t-18 -8.5q-5 -2 -10.5 -4.5t-13 -7.5t-18.5 -14.5t-26 -24.5 q-27 -26 -55.5 -56t-53.5 -56.5t-43 -46t-22 -24.5l104 -149q24 -33 38 -52.5t22.5 -31.5t13.5 -19.5t11 -15.5q17 -23 32.5 -35t38.5 -14q8 -1 11 -3.5t3 -16.5t-2.5 -18t-7.5 -4q-22 0 -46.5 0.5t-56.5 0.5h-75q-30 0 -51.5 -0.5t-36.5 -0.5h-25t-12.5 5t-1.5 16 q0 12 3.5 15.5t19.5 4.5q8 0 17 1t17 3.5t13 7t5 13.5q0 2 -0.5 5t-4 9.5t-11 18t-21.5 32.5q-9 14 -21 31.5t-24 35.5l-24 36t-22 32q-55 -67 -84.5 -104t-43 -56t-16 -26t-2.5 -15q0 -11 9 -16t43 -7q14 -1 17.5 -3t3.5 -14q0 -25 -6 -25t-24.5 0.5t-39.5 1.5 q-21 0 -39.5 0.5t-25.5 0.5q-24 0 -41 -0.5t-28 -0.5q-12 -1 -19.5 -1.5t-13.5 -0.5q-8 0 -9 4.5t-1 18.5t4 17t20 7q19 5 37 21t47 46q47 48 91 97.5t89 99.5q-11 15 -37 51t-55 76t-54.5 75t-35.5 48q-8 10 -13.5 16t-11.5 9.5t-14 5.5t-20 4q-10 2 -11.5 6.5t-1.5 15.5 t1 15.5t9 4.5q7 0 21.5 -0.5t32.5 -0.5t38 -0.5t39 -0.5q67 0 105.5 1t50.5 1q5 0 8 -2.5t3 -17.5t-4 -17.5t-23 -4.5q-6 0 -13 -1t-13 -3.5t-10 -7t-4 -11.5t5.5 -18.5t18 -31t33 -49t50.5 -71.5z" />
<glyph unicode="Y" horiz-adv-x="648" d="M475 507q18 29 24.5 42.5t6.5 21.5q0 15 -14 18.5t-28 4.5q-16 2 -19.5 3.5t-3.5 12.5q0 16 2 21t11 5q17 0 40.5 -1t61.5 -1q32 0 59 1t38 1q6 0 7.5 -4t1.5 -11q0 -14 -1.5 -19t-9.5 -7q-12 -4 -23 -9.5t-30.5 -25.5t-51 -60.5t-83.5 -112.5q-5 -8 -16.5 -23.5t-23 -32 t-21 -30t-10.5 -16.5q-2 -3 -2 -17v-34v-35t0.5 -48t2 -47t3.5 -31q6 -26 26 -31t54 -5q5 0 6 -4.5t1 -15.5t-1.5 -14.5t-9.5 -3.5q-19 0 -60 1t-85 1q-14 0 -37 -0.5t-47 -0.5t-46.5 -0.5t-35.5 -0.5q-5 0 -5 22q0 11 3.5 13.5t18.5 4.5q28 3 43 8.5t22 24.5t8 58t1 108 q0 9 -0.5 15t-3 13t-7.5 15.5t-14 22.5q-38 62 -77 122t-83 119q-12 17 -20 26.5t-15 14.5t-14.5 7t-19.5 5q-5 1 -6 4.5t-1 14.5t2 15t6 4q13 0 46.5 -1t83.5 -1q20 0 41.5 0.5t39.5 0.5t31.5 0.5t18.5 0.5q10 0 14 -2.5t4 -13.5q0 -14 -3 -19.5t-17 -5.5q-10 0 -22 -2 t-12 -16q0 -11 9 -29t16 -30t15 -24.5t20 -32.5t31 -50t48 -76z" />
<glyph unicode="Z" horiz-adv-x="648" d="M219 53q97 2 173.5 4.5t113.5 16.5q26 9 40 30.5t29 68.5q3 11 7 17t15 6q17 0 23.5 -2t6.5 -9q0 -14 -5.5 -48t-17.5 -85q-5 -20 -8 -30.5t-6 -15.5t-7 -6t-10 -1q-14 0 -44 0.5t-69 0.5t-83 0.5t-85 0.5q-97 0 -163 -1t-88 -1q-14 0 -16 1.5t-2 12.5q0 14 1 18.5 t6 10.5q10 10 28 33.5t41.5 54t50 66t52 70t48.5 66t39 53.5q9 12 28.5 40t41.5 59t41 58.5t27 37.5h-32t-53 -0.5t-59 -1.5t-50 -3q-33 -3 -53.5 -9.5t-34.5 -19t-23.5 -32t-19.5 -48.5q-4 -10 -9.5 -11.5t-14.5 -1.5q-11 0 -16.5 3t-5.5 12q0 7 3.5 27.5t8 43.5t8.5 44 t6 29q3 11 5.5 18t13.5 7q55 0 110 -1t110 -1q69 0 139 1t145 1q14 0 14 -16q0 -14 -2 -19.5t-7 -11.5q-27 -33 -72.5 -93t-99.5 -133.5t-111.5 -154.5t-107.5 -156z" />
<glyph unicode="[" horiz-adv-x="370" d="M341 703q5 0 7 -3t2 -14q0 -16 -2.5 -18.5t-12.5 -3.5q-6 0 -23 -0.5t-35 -1.5t-33 -2.5t-18 -2.5q-5 -2 -7 -9.5t-2 -26.5q-1 -25 -2 -67t-1.5 -91t-0.5 -101t-0.5 -97.5t-0.5 -81.5v-50v-39v-56t0.5 -65t1 -63t1.5 -50.5t2 -28.5q2 -12 11 -15t33 -5q5 0 18 -0.5 t26.5 -1.5t24.5 -1.5t13 -0.5q3 0 3.5 -3t0.5 -17q0 -13 -3 -15.5t-8 -2.5q-4 0 -13.5 0.5t-20.5 0.5q-10 0 -19 0.5t-13 0.5h-19t-27.5 -0.5t-32.5 -1.5t-33 -2q-8 0 -18.5 -1t-20 -1.5t-16.5 -1t-8 -0.5q-5 0 -6 2t-1 13q0 14 0.5 49t1 73.5t1.5 73t1 47.5q1 63 1.5 103 t0.5 65v42v31v157t-2 157q0 7 -0.5 25t-0.5 37q0 20 -0.5 37.5t-0.5 24.5q0 6 1.5 7t9.5 1q4 0 14 -0.5t21 -1.5t20.5 -1.5t13.5 -0.5q29 -2 57 -2h51z" />
<glyph unicode="\" horiz-adv-x="444" d="M107 707q35 -115 72 -227t76 -225q32 -90 55 -153.5t39.5 -109t28 -76.5t20.5 -55.5t17.5 -46.5t19.5 -50h-87q-8 27 -21 68t-28.5 87.5t-31.5 95t-30 91.5t-25.5 75.5t-16.5 47.5q-26 72 -45 125t-33.5 93t-25.5 71t-22 60t-22.5 59.5t-26.5 69.5h87z" />
<glyph unicode="]" horiz-adv-x="370" d="M122 702q21 0 53 1t60 3q5 0 18 1t17 1q7 0 9 -1t2 -7q0 -2 -0.5 -14.5t-0.5 -27.5t-0.5 -29t-0.5 -20q-1 -38 -1.5 -78.5t-1 -82.5t-0.5 -84v-79q0 -18 0.5 -67t1 -113.5t1.5 -137t3 -136.5v-53q0 -11 -1 -13t-6 -2l-6.5 0.5t-15.5 1t-18.5 1.5t-16.5 1q-33 2 -65 3 t-53 1q-4 0 -13.5 -0.5t-20.5 -0.5q-10 0 -19.5 -0.5t-12.5 -0.5q-5 0 -8 2.5t-3 15.5q0 14 1.5 17.5t12.5 3.5q8 0 24.5 1t33.5 2t31.5 2.5t19.5 4.5q6 4 7.5 21t2.5 31q1 18 1.5 56.5t0.5 80.5v83v64v40t-0.5 87t-1 111t-1 113t-1.5 91.5t-2 47.5q-1 6 -3.5 9.5t-10 5 t-21 2.5t-36.5 2q-3 0 -11.5 0.5t-18.5 1t-17.5 1t-8.5 0.5q-4 3 -4 16t1 17t8 4z" />
<glyph unicode="^" horiz-adv-x="476" d="M443 264l-149 236l-160 -236h-163l275 402h8l251 -402h-62z" />
<glyph unicode="_" horiz-adv-x="500" d="M500 -75v-50h-500v50h500z" />
<glyph unicode="`" horiz-adv-x="500" d="M173 661q8 0 16 -7.5t29 -36.5q9 -12 19.5 -27t22 -30.5t22 -30t19.5 -26.5q0 -1 5 -7.5t5 -7.5q0 -2 -8 -2h-12q-9 0 -14.5 0.5t-11.5 3t-14 7.5t-21 14q-8 6 -30 20t-45.5 29.5t-42.5 28t-21 14.5q-14 13 -14 24q0 8 5.5 13t24.5 9q23 6 42.5 9t23.5 3z" />
<glyph unicode="a" horiz-adv-x="500" d="M281 151q0 14 -2.5 23.5t-19.5 9.5q-8 0 -31.5 -4t-51.5 -18q-14 -7 -18 -15t-4 -22q0 -35 11 -50t43 -15q18 0 37 4.5t35 11.5zM504 84v-31q0 -6 -1 -9.5t-4 -6.5t-10 -6t-20 -9q-12 -6 -27.5 -12t-32.5 -11t-33.5 -8.5t-29.5 -3.5q-18 0 -29.5 5.5t-18.5 12.5t-10.5 14 t-4.5 10q-11 -5 -26.5 -12t-35.5 -13.5t-44 -11t-50 -4.5q-49 0 -74 27t-25 78q0 22 3.5 38t11 26.5t19 17.5t27.5 12q53 17 102 24.5t92 12.5q0 39 -1 64t-7 39.5t-19.5 20t-38.5 5.5q-2 0 -11 -0.5t-19 -2t-18 -5t-8 -10.5q0 -3 1.5 -10.5t1.5 -9.5q0 -15 -8.5 -19.5 t-24.5 -8.5q-23 -6 -43.5 -8.5t-24.5 -2.5q-14 0 -16.5 8t-2.5 10q0 15 18 39t49 46t72 38t87 16q8 0 20.5 -1t26.5 -4t28.5 -9t26.5 -15q20 -15 28.5 -37.5t8.5 -55.5q0 -11 -1 -36t-1.5 -53t-1.5 -53t-1 -34q0 -38 3.5 -51.5t25.5 -13.5q17 0 34.5 5t31.5 12z" />
<glyph unicode="b" horiz-adv-x="593" d="M201 351q0 -17 -0.5 -50t-0.5 -69q0 -35 0.5 -66.5t2.5 -46.5q3 -26 15.5 -41t27.5 -22.5t29.5 -10t22.5 -2.5q29 0 49.5 10t33.5 25t20 33.5t10.5 36t4 31.5t0.5 20q0 29 -5.5 58.5t-19.5 53.5t-39 39t-65 15q-28 0 -49 -4.5t-37 -9.5zM72 450v59q0 24 -0.5 39.5t-2 25 t-3.5 16.5q-6 19 -19 23t-33 6q-10 2 -11.5 5t-1.5 16q0 14 3 17.5t13 5.5q12 3 40.5 10.5t59 15t56.5 13.5t32 6q2 0 6.5 -1.5t4.5 -7.5q0 -1 -0.5 -6.5t-1.5 -12.5t-1.5 -13.5t-0.5 -9.5q-5 -49 -7 -111.5t-3 -149.5q25 9 46 15.5t40.5 11.5t38 7.5t38.5 2.5q42 0 77 -12 t60.5 -36t39.5 -59.5t14 -82.5q0 -45 -12 -82t-33.5 -66t-51 -50.5t-65.5 -35.5q-19 -7 -51.5 -14t-92.5 -7q-67 0 -110 6t-69 11q-6 2 -7 3.5t-1 5.5q0 10 2 23.5t3 24.5q1 16 1.5 32t1 44.5t1 75.5t1.5 126z" />
<glyph unicode="c" horiz-adv-x="444" d="M406 117l12 -37q2 -4 2 -11q0 -3 -14.5 -16.5t-40.5 -27.5t-61.5 -25.5t-76.5 -11.5q-48 0 -83.5 14.5t-59.5 40t-35.5 60.5t-11.5 75q0 60 22 107.5t58.5 80t84 50t98.5 17.5q27 0 49.5 -5t39.5 -13t26.5 -19.5t9.5 -24.5q0 -10 -6.5 -21.5t-16 -21t-20 -15.5t-18.5 -6 t-14 3.5t-20 14.5q-23 19 -45 24t-40 5q-11 0 -24 -2.5t-22 -10.5q-11 -9 -17 -23t-9 -29t-3.5 -27.5t-0.5 -18.5q0 -11 1.5 -26.5t5 -33t11 -35.5t19.5 -33q16 -20 38 -28.5t48 -8.5q45 0 70 15t36 24h8z" />
<glyph unicode="d" horiz-adv-x="593" d="M374 316q-1 5 -8 13.5t-20 16.5t-31.5 13.5t-41.5 5.5q-30 0 -49 -12.5t-29.5 -32t-14 -43.5t-3.5 -48q0 -12 2 -40.5t14 -57.5t38.5 -51.5t74.5 -22.5q24 0 39.5 4.5t27.5 9.5zM313 426q20 0 34 -1.5t28 -4.5v75q0 40 -2.5 61.5t-9 31.5t-18 12t-29.5 2q-5 0 -6 6t-1 12 q0 15 2 18.5t16 8.5q9 4 36 14.5t56 21.5t54 19.5t30 8.5q10 0 10 -9q0 -6 -1 -13t-2 -21t-3 -37.5t-3 -63t-2 -97t-1 -139.5q0 -89 1 -155t3 -91q2 -23 9 -30t20 -7q28 0 45 5t17 0v-17q0 -12 -2 -15.5t-13 -7.5q-12 -4 -36 -10.5t-50.5 -13t-51 -11.5t-37.5 -5t-20 4 t-10.5 11t-4 17t-0.5 23q-25 -11 -65 -25.5t-94 -14.5q-11 0 -24.5 1t-28.5 5t-30 10.5t-28 17.5q-35 28 -49.5 71t-14.5 83q0 54 20.5 100t57 79t87 52t111.5 19z" />
<glyph unicode="e" horiz-adv-x="463" d="M167 241q14 3 32 6.5t34.5 7.5t28 6.5l11.5 2.5q18 5 25 12t7 18q0 7 -3 21t-10.5 28t-20.5 24.5t-32 10.5q-15 0 -28.5 -8.5t-24 -25.5t-16 -42.5t-3.5 -60.5zM412 101l9 -15q2 -3 4.5 -7.5t2.5 -6.5q0 -5 -15.5 -18.5t-43.5 -28t-66 -26t-83 -11.5q-49 0 -83.5 16 t-56.5 43.5t-32.5 63.5t-10.5 76q0 61 19 107t50.5 77t72 46.5t83.5 15.5q67 0 114 -35.5t56 -95.5q1 -6 1.5 -8t4.5 -5q3 -2 4.5 -6.5t1.5 -24.5q0 -10 -4 -12.5t-22 -5.5q-50 -8 -80.5 -13t-55 -8.5t-49 -8t-61.5 -10.5q6 -36 19.5 -61t31.5 -40t39 -21.5t42 -6.5 q27 0 53.5 7t48.5 23h6z" />
<glyph unicode="f" horiz-adv-x="370" d="M373 390q0 -20 -2 -28t-13 -8l-132 2q0 -11 -0.5 -33.5t-0.5 -50.5v-57q0 -29 0.5 -55.5t1 -45.5t1.5 -26q2 -18 7 -27.5t14.5 -14t24.5 -5t37 -0.5q17 0 19.5 -3t2.5 -19t-10 -18.5t-27 -2.5q-9 0 -21 0.5t-28 1.5q-16 0 -35.5 0.5t-43.5 0.5q-17 0 -36 -0.5t-36 -0.5 q-17 -1 -32 -1.5t-24 -0.5q-11 0 -13.5 3t-2.5 17q0 12 1 16t8 5q19 2 30 5.5t17 12.5t8.5 27t3.5 50q1 31 1.5 65.5t1 65.5t0.5 55v36l-54 -1q-6 0 -8 3t-2 12q0 12 1 18t7 9l57 22q1 30 3 59t12 56.5t31 55.5t60 57q26 19 52.5 31t50.5 18.5t44 9t33 2.5q20 0 41.5 -3.5 t39.5 -12t29.5 -21.5t11.5 -31q0 -12 -9 -24t-21.5 -21.5t-25 -15.5t-19.5 -6q-12 0 -20.5 8.5t-22.5 20.5q-5 5 -19.5 13t-46.5 8q-34 0 -52.5 -10.5t-27.5 -34t-11 -62t-2 -94.5l132 1q11 0 14 -5v-28z" />
<glyph unicode="g" d="M404 -117q0 16 -8.5 26t-20 15.5t-23.5 7.5t-19 3t-25.5 2.5t-39 3t-39 3t-25.5 2.5q-37 -20 -60.5 -37t-23.5 -48q0 -20 13.5 -32.5t33 -20t42 -10.5t40.5 -3q34 0 63 7t49 19t31.5 28t11.5 34zM328 243q0 22 -6 47.5t-18 46.5t-30 35t-42 14q-5 0 -16 -2t-23 -10.5 t-21 -26t-9 -48.5q0 -8 1 -20.5t5 -27.5t12 -31.5t22 -32.5q17 -20 33.5 -26.5t30.5 -10.5q8 4 18.5 10t20 16.5t16 26.5t6.5 40zM509 -82q0 -38 -26 -72t-69 -60t-100 -41t-118 -15q-14 0 -36.5 1.5t-46 6.5t-45.5 13t-36 22q-10 10 -12.5 23t-2.5 45q0 16 0.5 26.5t3 17.5 t8 13t15.5 13t18.5 12t19.5 10.5t25.5 12t37.5 16.5q-11 3 -22 7.5t-23 14.5q-11 9 -19 22t-8 32q0 14 3.5 22.5t13 15.5t27 14t45.5 17q-57 16 -89.5 51.5t-32.5 95.5q0 34 13 66t39.5 57t67.5 40.5t97 15.5q42 0 64 -6.5t33 -10.5q35 5 71.5 5.5t72.5 0.5q11 0 13 -10.5 t2 -26.5q0 -21 -3.5 -27t-14.5 -6h-71q9 -14 16.5 -30t7.5 -45q0 -42 -20 -72.5t-48.5 -50.5t-60 -31.5t-55.5 -17.5q-4 -1 -16.5 -4.5t-26.5 -7t-25.5 -6.5t-12.5 -4q-7 -2 -7 -10q0 -9 8 -15t21.5 -9.5t31 -5t36.5 -2.5q49 -3 92 -7t75 -16t50.5 -35.5t18.5 -64.5z" />
<glyph unicode="h" horiz-adv-x="611" d="M408 435q6 0 19.5 -1.5t29 -7t31.5 -17t28 -30.5q3 -6 6 -13t5 -19.5t3 -31.5t1 -47v-178q1 -17 2.5 -26t6.5 -14t16 -6.5t30 -3.5q8 -1 10 -6.5t2 -13.5q0 -14 -4 -17.5t-17 -3.5q-7 0 -24.5 0.5t-36.5 0.5t-36 0.5t-23 0.5t-22 -0.5t-33 -0.5t-32 -0.5t-21 -0.5 q-12 0 -14 4t-2 18t2.5 16.5t16.5 5.5q13 3 23 7t15 17q3 9 5 24t3 32t1 33v28q0 42 -1.5 72.5t-10 51t-26.5 30.5t-52 10q-26 0 -47.5 -5.5t-41.5 -12.5h-1q0 -10 0.5 -30t0.5 -46v-53q0 -27 0.5 -52t1 -44.5t1.5 -28.5q2 -24 14 -29t29 -5q13 -1 15.5 -5.5t2.5 -16.5 t-2.5 -16.5t-13.5 -4.5q-7 0 -23 0.5t-34 0.5t-33.5 0.5t-21.5 0.5q-7 0 -24 -0.5t-36 -0.5t-35.5 -0.5t-22.5 -0.5q-12 0 -14.5 4t-2.5 16q0 16 3.5 19t18.5 5q16 1 25 9t13.5 21.5t6 32.5t1.5 43q1 32 1.5 60t0.5 55v54v58v47q0 33 -1 68.5t-2 65.5t-4 40q-5 17 -15.5 20 t-30.5 4q-11 1 -13.5 3.5t-2.5 14.5q0 13 2 16t13 8q10 4 35.5 12t54 16t52.5 14t30 6q14 0 16.5 -5t2.5 -11q0 -2 -1 -11t-1.5 -20.5t-1.5 -21.5t-1 -14q-1 -24 -2 -55t-1.5 -64t-0.5 -68v-66q13 7 34 17.5t46 20t53 16t56 6.5z" />
<glyph unicode="i" horiz-adv-x="315" d="M96 597q0 16 7.5 29.5t19 23.5t24.5 16t25 6t25 -5.5t23.5 -15.5t17 -22.5t6.5 -26.5q0 -15 -7 -29t-17.5 -24.5t-23.5 -16.5t-26 -6q-12 0 -25 5.5t-24 15t-18 22.5t-7 28zM229 363q-1 -16 -1.5 -31t-1 -34t-0.5 -43v-55v-32t0.5 -43t2 -40t3.5 -24q5 -14 20 -16.5 t44 -4.5q11 -1 13 -6t2 -14q0 -11 -3.5 -16.5t-14.5 -5.5q-33 0 -66.5 1.5t-66.5 1.5q-32 0 -63 -1.5t-63 -1.5q-8 0 -12 3.5t-4 17.5t2.5 17.5t17.5 5.5q28 4 39.5 16t15.5 41q3 20 3.5 65.5t0.5 98.5q0 25 -1 41t-6 25.5t-14.5 14.5t-25.5 8q-15 2 -17.5 4.5t-2.5 15.5 q0 15 2.5 18t15.5 7l124 36q14 4 26 6.5t21 2.5q6 0 11 -2t5 -9z" />
<glyph unicode="j" horiz-adv-x="296" d="M99 603q0 16 7.5 29.5t19 24t25 16.5t25.5 6t24.5 -6t23 -16t17.5 -23t7 -26q0 -15 -7 -29t-17.5 -24.5t-24 -16.5t-26.5 -6q-12 0 -25 5.5t-24 15t-18 22.5t-7 28zM-42 -221q0 24 20.5 39.5t41.5 15.5q9 0 15.5 -2.5t15.5 -9.5q16 -13 21 -15.5t10 -2.5q10 0 13 13.5 t3 57.5q0 32 0.5 68.5t0.5 73.5v75v70q0 52 -1 81t-2.5 44.5t-3 20.5t-3.5 9q-6 11 -18 14t-34 5q-8 0 -9.5 3.5t-1.5 16.5t3 16t17 8q8 3 27.5 10.5t41.5 16t40.5 15.5t23.5 9q10 4 23.5 8t21.5 4q7 0 8.5 -3.5t1.5 -8.5q0 -19 -1 -44.5t-2 -44.5q-2 -75 -2 -114v-60v-118 t-0.5 -71.5t-1 -40t-1.5 -23.5q-6 -54 -32.5 -89.5t-59 -57t-63 -30t-43.5 -8.5q-5 0 -16.5 1t-23.5 6t-21 15t-9 27z" />
<glyph unicode="k" horiz-adv-x="574" d="M219 190q0 -9 -0.5 -27t0 -38t1 -37.5t2.5 -24.5q4 -15 13.5 -18.5t26.5 -5.5q14 -1 17 -3.5t3 -16.5t-4 -17t-16 -3q-7 0 -24 0.5t-36 0.5t-36 0.5t-23 0.5q-37 0 -69.5 -1t-44.5 -1q-8 0 -9 4t-1 21q0 10 4.5 12t21.5 5q16 2 25 7.5t13 19.5t5 41t2 72q1 32 1.5 71 t0.5 79v79v68q0 31 -0.5 51t-0.5 23q-1 32 -8.5 47.5t-41.5 15.5q-12 0 -16.5 2t-4.5 13q0 12 2.5 18.5t17.5 11.5q13 4 36.5 12.5t49.5 16t49 13.5t34 6q8 0 12.5 -1.5t4.5 -7.5q0 -2 -1 -13t-1.5 -25t-1.5 -26.5t-1 -17.5q-2 -48 -2 -119v-172v-96q28 21 59 47t60 51 q19 17 28 25.5t9 15.5q0 11 -13 13t-38 4q-7 1 -8 8t-1 15q0 11 5.5 12.5t17.5 1.5q8 0 21.5 -0.5t28.5 -0.5t29.5 -0.5t25.5 -0.5q31 0 54.5 1t41.5 1q8 0 9.5 -4t1.5 -12q0 -7 -1 -12t-6 -7q-14 -4 -25.5 -8t-32.5 -16q-36 -20 -71 -42t-70 -45q5 -7 20 -25.5t35 -42.5 t42 -50.5t42.5 -50t37 -40.5t23.5 -21q3 -2 14 -6t13 -7q2 -2 2.5 -8.5t0.5 -13.5q0 -13 -12 -13q-8 0 -21.5 0.5t-29.5 0.5q-15 0 -30.5 0.5t-27.5 0.5q-11 0 -27 -0.5t-33 -0.5q-16 0 -30 -0.5t-20 -0.5q-8 0 -9.5 4t-1.5 11q0 16 2 19.5t16 4.5q8 0 14 2t6 8q0 8 -18 29 l-112 129z" />
<glyph unicode="l" horiz-adv-x="315" d="M92 429q0 62 -0.5 99.5t-2.5 54.5q-2 23 -15 28.5t-42 10.5q-8 1 -10.5 5t-2.5 11q0 12 4.5 16.5t22.5 9.5q10 3 34.5 10.5t51.5 15t51 13.5t34 6q5 0 9 -2t4 -13q0 -14 -2 -36.5t-2 -36.5q-1 -26 -1.5 -66t-1 -84t-0.5 -87v-73v-116t0.5 -72t1.5 -40.5t3 -21.5 q2 -11 15 -17t51 -6q16 0 19 -2.5t3 -17.5q0 -9 -1.5 -14t-10.5 -5q-13 0 -46 1t-93 1q-48 0 -85.5 -1t-49.5 -1q-9 0 -11.5 4.5t-2.5 16.5q0 9 3.5 13t18.5 6q31 4 39.5 19.5t10.5 29.5q2 17 2.5 80.5t1.5 189.5v71z" />
<glyph unicode="m" horiz-adv-x="889" d="M224 73q0 -19 10.5 -23.5t30.5 -7.5q15 -2 19 -3.5t4 -8.5q0 -19 -1.5 -25t-9.5 -6q-9 0 -25 0.5t-34 0.5q-17 0 -33.5 0.5t-26.5 0.5q-12 0 -28 -0.5t-33 -0.5t-33 -0.5t-27 -0.5q-9 0 -10.5 3.5t-1.5 17.5q0 15 3 18t22 6q14 2 24.5 10t14.5 34q1 7 1.5 24t1 35.5 t0.5 35.5v26v30q0 17 -0.5 32.5t-2 28.5t-3.5 19q-5 17 -18.5 20t-30.5 3q-8 0 -10 4.5t-2 13.5q0 8 0.5 12.5t3.5 7.5t8.5 6t16.5 7t33.5 12.5t46 16.5t43.5 14.5t28 6.5q17 0 20 -4t3 -10q0 -14 -2.5 -32.5t-4.5 -32.5q41 23 69 37t48.5 21.5t35 10t27.5 2.5q29 0 48 -8 t30.5 -19.5t17 -23t7.5 -17.5q10 6 30 17.5t44.5 23t51.5 19.5t52 8q41 0 66 -15.5t38.5 -37t17.5 -44t4 -36.5v-184q0 -29 1 -44.5t6 -23t16 -9t31 -1.5q15 0 17.5 -3.5t2.5 -18.5q0 -11 -2 -15t-9 -4q-4 0 -17.5 0.5t-33.5 0.5q-19 0 -42.5 0.5t-47.5 0.5q-34 0 -59.5 -1 t-44.5 -1q-6 0 -7.5 4.5t-1.5 12.5q0 15 2.5 18.5t16.5 6.5t22 9t12 25.5t5 56.5t1 103q0 60 -18.5 87t-69.5 27q-17 0 -35 -3.5t-29 -8.5l-8 -4v-230q0 -21 2 -33t7.5 -18.5t14 -9t21.5 -2.5q15 0 18.5 -2.5t3.5 -18.5q0 -12 -3 -16t-9 -4q-8 0 -40.5 1t-91.5 1 q-35 0 -67 -1t-41 -1q-5 0 -6 7t-1 15q0 14 3 16.5t20 6.5q12 3 19.5 6.5t11 16.5t5 39.5t1.5 75.5q0 44 -1.5 75t-9 50.5t-24.5 28.5t-47 9q-10 0 -22 -2t-22.5 -5t-19 -7t-10.5 -7q-3 -3 -3.5 -7.5t-0.5 -19.5v-224z" />
<glyph unicode="n" horiz-adv-x="611" d="M410 434q6 0 18.5 -1t27 -6t28.5 -14.5t25 -26.5q17 -25 19.5 -60t2.5 -70v-107q0 -42 2 -66q1 -15 4 -23t10 -12t19 -6t30 -3q12 -1 14.5 -5t2.5 -15t-2.5 -15.5t-14.5 -4.5q-32 0 -62.5 1t-62.5 1q-29 0 -59 -1t-59 -1q-9 0 -10.5 4.5t-1.5 13.5q0 14 2 16.5t13 5.5 q22 5 29.5 13.5t11.5 32.5q1 9 1.5 28t1 40.5t0.5 41.5v33q0 17 -1.5 37.5t-9 38.5t-25 30t-48.5 12q-22 0 -49 -6t-40 -12q-5 -2 -7 -5.5t-2 -20.5v-45v-65t0.5 -63.5t1.5 -40.5q1 -10 2.5 -19t6.5 -16t16 -11t31 -4q11 0 14 -3t3 -17q0 -11 -1.5 -15t-12.5 -4q-29 0 -58 1 t-58 1q-49 0 -81 -1t-49 -1q-8 0 -9.5 3.5t-1.5 14.5q0 14 3 18t19 6q23 3 33 14t12 34q2 15 2.5 50.5t0.5 90.5q0 32 -1 52.5t-5.5 33t-13 17.5t-23.5 6q-18 1 -22.5 3.5t-4.5 16.5q0 11 4.5 14.5t21.5 10.5q14 5 33 12l38 14t36.5 13.5t29.5 9.5q13 4 26 4q4 0 9 -1t5 -9 q0 -3 -1 -11.5t-2 -19t-2 -20t-1 -13.5q11 7 32.5 19t48 23.5t55.5 20t55 8.5z" />
<glyph unicode="o" horiz-adv-x="574" d="M181 251q0 -23 4.5 -58t17 -68.5t36 -57.5t62.5 -24q34 0 53 17t27.5 39.5t10 43.5t1.5 30q0 31 -6 67t-20.5 66.5t-38 51t-58.5 20.5q-33 0 -51.5 -17.5t-26.5 -40t-9.5 -43t-1.5 -26.5zM37 213q0 41 16 80.5t48.5 70.5t82.5 50t118 19q69 0 114.5 -21.5t72 -53.5 t37.5 -69.5t11 -69.5q0 -53 -20 -96t-56 -73t-85.5 -46t-108.5 -16q-29 0 -68.5 8.5t-78.5 35.5q-14 9 -29 23.5t-27 35.5t-19.5 51t-7.5 71z" />
<glyph unicode="p" horiz-adv-x="593" d="M217 339q0 -9 -0.5 -31.5t-1 -52.5t-1 -65.5t-0.5 -69.5q0 -8 2 -13t9 -10q14 -9 30.5 -14t31.5 -7t26 -2.5t13 -0.5q18 0 36 4.5t34 19.5q20 20 25 47.5t5 46.5q0 4 -0.5 17.5t-4.5 32t-12 38.5t-23 37.5t-37.5 28.5t-55.5 11q-28 0 -45 -5.5t-31 -11.5zM380 433 q35 0 67 -14t56 -40t38.5 -62.5t14.5 -82.5q0 -40 -15 -82.5t-47 -77.5t-82.5 -57.5t-121.5 -22.5q-26 0 -42.5 2.5t-33.5 5.5q0 -23 0.5 -52.5t1 -56.5t1 -48t0.5 -25q1 -12 4 -21t9.5 -15.5t19 -9.5t33.5 -3q16 0 18.5 -2.5t2.5 -17.5q0 -13 -1 -17t-8 -4q-25 0 -60.5 1 t-75.5 1q-44 0 -79.5 -1t-51.5 -1q-9 0 -9 19q0 13 4 16t21 5q14 2 22.5 7t13 11.5t6 13.5t2.5 13q1 11 2 48t1.5 80.5t0.5 83.5v56v45t-0.5 67.5t-1.5 65.5t-3 39q-4 20 -16.5 24t-40.5 6q-8 1 -10.5 2.5t-2.5 12.5q0 14 3 17.5t14 8.5q15 7 34 16t38.5 18.5t38.5 18.5 t35 15q17 7 30 7q14 0 14 -9q0 -3 -0.5 -10t-1.5 -15t-2 -14.5t-1 -9.5q38 20 78 32.5t83 12.5z" />
<glyph unicode="q" horiz-adv-x="574" d="M383 78v76q0 32 -0.5 55t-1.5 39.5t-2 31.5q-1 20 -6 37.5t-15.5 31t-28 21.5t-43.5 8q-36 0 -57.5 -13.5t-33 -35t-15 -47.5t-3.5 -51q0 -15 2.5 -43t15.5 -56t40 -48.5t76 -20.5q23 0 42 5.5t30 9.5zM307 433q26 0 61.5 -4t78.5 -18q27 13 36 16t13 3q19 0 19 -10 q0 -11 -1 -21.5t-2 -24.5q-1 -17 -1.5 -42.5t-0.5 -53.5v-54v-45v-192q0 -73 1 -114t3 -57.5t5 -22.5q6 -11 14 -14.5t34 -8.5q6 -2 7.5 -5.5t1.5 -15.5q0 -11 -2.5 -15.5t-15.5 -4.5q-17 0 -44.5 1t-72.5 1q-59 0 -86.5 -1t-42.5 -1q-7 0 -10 3.5t-3 16.5q0 14 4 17t21 5 q29 5 41 21.5t14 56.5l3 183q-31 -14 -71 -29t-90 -15q-39 0 -77.5 12t-64.5 45q-13 16 -21 34t-12.5 36t-6.5 35.5t-2 31.5q0 51 17.5 96.5t52 80t85 54.5t115.5 20z" />
<glyph unicode="r" horiz-adv-x="426" d="M219 347q12 9 32 24.5t41 29.5t40.5 24.5t31.5 10.5q14 0 25 -7.5t19 -18.5t12.5 -24t4.5 -24q0 -20 -10.5 -36.5t-23.5 -28t-25 -18t-15 -6.5q-5 0 -7.5 4.5t-4.5 9.5q-11 23 -19 34t-30 11q-16 0 -37 -9t-30 -17q-1 -1 -1.5 -7.5t-1 -15t-0.5 -15.5v-10q0 -78 1 -121 t6.5 -64t17.5 -25.5t34 -4.5q29 -1 36 -4.5t7 -15.5q0 -16 -3.5 -20t-14.5 -4q-18 0 -56 1t-94 1q-23 0 -54.5 -1t-57.5 -1q-14 0 -14 17q0 15 2 18t16 6q17 4 28 10.5t14 29.5q1 12 2 32.5t1.5 42t0.5 39.5v27v25q0 16 -1 31.5t-3.5 28.5t-6.5 18t-11 7.5t-27 4.5 q-6 0 -8.5 3t-2.5 18q0 5 1 8t5 5.5t11.5 6t19.5 8.5q5 2 16.5 6.5t25.5 10.5t28 12.5t25 12.5q18 10 26.5 12.5t20.5 2.5q14 0 14 -9q0 -4 -1 -16t-2 -26t-2 -26.5t-1 -17.5z" />
<glyph unicode="s" horiz-adv-x="426" d="M394 127q0 -36 -13.5 -58t-23.5 -32q-9 -9 -21 -18t-30 -15.5t-42.5 -11t-58.5 -4.5q-16 0 -46 2.5t-64 7.5q-2 1 -7.5 1.5t-10.5 0.5q-2 0 -9 -1t-9 -1q-5 0 -7.5 3t-2.5 12q0 20 0.5 38t-0.5 27q-1 16 -3.5 29t-2.5 26q0 3 1 6.5t9 5.5l25 3q4 0 7 -3t8 -17 q3 -10 10.5 -25.5t21.5 -30.5t35 -25.5t53 -10.5q36 0 51 21q9 13 9 31q0 13 -4 21.5t-16 17.5t-33.5 19.5t-57.5 27.5q-22 10 -42.5 20.5t-36 24t-25 32.5t-9.5 45q0 21 8 45t28.5 44.5t55.5 34t89 13.5q6 0 21.5 -1t32.5 -3t29 -3t16 -1q3 0 11 2q2 0 4.5 0.5t3.5 0.5 q5 0 7 -3.5t4 -20.5q1 -8 3 -22.5t4 -29.5t3 -27.5t1 -17.5t-3 -9t-22 -6q-12 -1 -15.5 1t-7.5 9q-21 42 -42 62.5t-60 20.5q-20 0 -31.5 -6t-17.5 -14t-7.5 -15.5t-1.5 -11.5q0 -12 5.5 -22t17.5 -19t31.5 -18t47.5 -20q24 -9 47 -20t41.5 -26t30 -36t11.5 -50z" />
<glyph unicode="t" horiz-adv-x="352" d="M200 354q0 -24 -0.5 -56t-0.5 -64v-58q0 -26 1 -40q0 -9 1.5 -21t8 -22.5t20 -18t37.5 -7.5q20 0 36.5 5.5t36.5 14.5h13v-26q0 -13 -2.5 -17t-18.5 -11q-57 -26 -95 -35.5t-63 -9.5q-21 0 -41 6.5t-31 16.5q-14 12 -23 35t-9 75q0 14 0.5 47.5t1.5 71t1.5 70.5t0.5 46 h-45q-6 0 -7 4t-1 11q0 11 1 17.5t6 9.5q10 6 26.5 18.5t34 26.5t34 28.5t26.5 24.5q15 15 21 18.5t20 3.5q11 0 15.5 -1.5t4.5 -8.5q0 -8 -3.5 -32.5t-4.5 -53.5h143q8 0 10 -1.5t2 -7.5v-50q0 -7 -3.5 -8t-15.5 -1h-138z" />
<glyph unicode="u" horiz-adv-x="593" d="M83 304q0 18 -2 28.5t-7 15.5t-14 6.5t-24 1.5q-11 0 -14 2.5t-3 18.5q0 12 2 14.5t16 6.5q12 3 37 9.5t51.5 13t49 11t30.5 4.5q9 0 10.5 -4.5t1.5 -8.5q0 -8 -0.5 -17.5t-2.5 -40.5q-2 -32 -2 -74v-74q0 -35 2 -63t10 -48.5t23.5 -31.5t42.5 -11q9 0 22.5 1.5t26.5 4.5 t22 7t11 10q1 4 1.5 18t0.5 35v47v52v64q0 18 -1 30.5t-5.5 21t-14.5 12t-28 3.5q-23 0 -28 2t-5 16t3 18t23 6q13 1 32 3.5t39 5.5t38 5.5t30 4.5q17 3 28 5t16 2q10 0 10 -13q0 -3 -0.5 -14.5t-1.5 -24t-2 -24.5t-1 -17q-1 -17 -2 -44.5t-1.5 -60t-1 -66.5t-0.5 -62 q0 -24 6.5 -33t22.5 -9q3 0 10 1t15.5 2t15.5 2t10 1q9 0 9 -17q0 -14 -1.5 -17t-9.5 -6q-26 -8 -57.5 -16t-60 -14t-49.5 -10t-26 -4q-11 0 -13 7.5t-2 16.5v11q0 6 1 17q-14 -7 -34 -16.5t-43 -18t-47.5 -14.5t-47.5 -6q-11 0 -26 3t-30 10t-28.5 19.5t-21.5 31.5 q-8 17 -10 40t-2 67z" />
<glyph unicode="v" horiz-adv-x="481" d="M276 123q5 11 16 37t23.5 55.5t23 55t14.5 35.5q7 17 11.5 30.5t4.5 22.5q0 14 -11.5 17.5t-31.5 5.5q-11 1 -14 4.5t-3 10.5q0 17 2.5 21t10.5 4q6 0 19.5 -0.5t28.5 -0.5t28 -0.5t18 -0.5q4 0 13 0.5t19 0.5q11 0 20.5 0.5t12.5 0.5q8 0 11 -3.5t3 -18.5q0 -14 -9 -19 q-14 -8 -24.5 -18t-24.5 -32.5t-35.5 -63.5t-57.5 -113q-8 -17 -20 -41.5t-23.5 -47.5t-19.5 -40.5t-9 -18.5q-1 -3 -14 -6q-20 -3 -36 -5t-20 -2t-5.5 2t-5.5 12q-13 30 -29 67t-32.5 76t-32.5 76.5t-28 67.5q-11 28 -19 43.5t-15 24.5t-14 13t-17 8q-7 3 -8 6.5t-1 16.5 q0 12 2.5 14t7.5 2q7 0 23.5 -0.5t35.5 -0.5t35.5 -0.5t22.5 -0.5t22 0.5t33 0.5t32.5 0.5t21.5 0.5q8 0 10.5 -2.5t2.5 -18.5q0 -13 -3.5 -16t-11.5 -4q-21 -2 -29.5 -5.5t-8.5 -16.5q0 -8 3.5 -21.5t14.5 -42.5q3 -8 13 -33.5t21 -54t21 -53.5t12 -31z" />
<glyph unicode="w" horiz-adv-x="722" d="M537 125q7 16 21.5 50.5t29.5 70.5t26 66.5t11 40.5q0 17 -10 21t-22 6q-18 2 -21 4.5t-3 18.5q0 12 3 15.5t9 3.5q22 0 51 -1t46 -1t34.5 1t22.5 1q7 0 8.5 -5.5t1.5 -12.5q0 -8 -1 -14t-8 -8q-11 -4 -20 -11t-24.5 -32t-40 -76t-66.5 -144q-3 -6 -9.5 -22t-13.5 -33 t-13.5 -32.5t-8.5 -21.5q-2 -5 -6.5 -7.5t-13.5 -4.5q-5 -2 -14 -3.5t-17.5 -2.5t-16 -2t-9.5 -1q-5 0 -9 3.5t-9 20.5q-16 51 -26.5 83.5t-17.5 55t-13 40t-13 38.5q-5 -11 -15.5 -31.5t-23.5 -48t-28 -59.5t-30 -66q-7 -16 -10 -19t-17 -5q-16 -3 -33 -6.5t-28 -3.5 q-5 0 -7 4.5t-8 22.5l-27.5 82.5t-29.5 85.5t-29.5 80.5t-26.5 67.5t-21.5 36.5t-17.5 9.5q-11 3 -14.5 5.5t-3.5 8.5q0 14 2 21t13 7q6 0 22 -0.5t34 -0.5t34 -0.5t22 -0.5q26 0 52.5 1t52.5 1q12 0 15 -5.5t3 -15.5t-2.5 -15t-16.5 -6q-9 0 -22.5 -4t-13.5 -22q0 -5 3 -17 t7.5 -26t9 -27t7.5 -20q12 -35 24 -69.5t25 -69.5l77 166q-5 14 -9.5 26t-9.5 27q-10 25 -20 31t-24 8q-5 2 -5 7v13q0 11 3.5 15t11.5 4q7 0 23 -0.5t34 -0.5t34 -0.5t22 -0.5t20.5 0.5t30.5 0.5t30 0.5t20 0.5q10 0 13 -6t3 -18q0 -9 -2 -13t-15 -4q-20 -1 -32.5 -4 t-12.5 -18q0 -5 4 -21.5t11 -39.5t15 -49.5t15.5 -51t14 -44z" />
<glyph unicode="x" horiz-adv-x="500" d="M104 328q-11 16 -18.5 25.5t-15 15t-16.5 8.5t-23 8q-5 2 -6.5 4.5t-1.5 10.5q0 17 3 19.5t14 2.5q14 0 42 -1t56 -1q51 0 76.5 1t39.5 1q9 0 11 -4t2 -24q0 -8 -2 -10t-12 -2q-11 -1 -18.5 -2.5t-7.5 -9.5q0 -5 7 -18t16.5 -27.5t19.5 -28t15 -20.5q7 7 19.5 20t25 27 t21.5 26.5t9 18.5q0 10 -11 12t-32 3q-8 0 -10.5 2.5t-2.5 16.5q0 12 2 16t10 4q11 0 35 -1t47 -1q24 0 44 1t28 1q11 0 13.5 -4.5t2.5 -16.5q0 -11 -2.5 -14t-13.5 -8t-21.5 -13t-33.5 -28q-8 -7 -14.5 -13.5t-17.5 -17t-28 -27t-45 -43.5q3 -4 12 -17.5t21.5 -31.5 t26 -37.5t25 -36.5t20.5 -29.5t11 -15.5q14 -18 24.5 -23.5t28.5 -7.5q8 -1 10 -4.5t2 -16.5q0 -18 -10 -18q-5 0 -17.5 0.5t-29.5 0.5q-16 0 -34 0.5t-33 0.5q-51 0 -76.5 -1t-42.5 -1q-10 0 -12.5 3t-2.5 12q0 17 3 20.5t14 3.5q15 0 23 2t8 10q0 6 -5 15t-8 15l-49 76 q-9 -11 -20.5 -23t-22.5 -24t-19.5 -21.5t-12.5 -14.5q-9 -13 -9 -19q0 -10 11.5 -12t24.5 -2q17 0 20 -3t3 -19q0 -13 -2.5 -16t-13.5 -3q-21 0 -39 1t-42 1q-20 0 -35.5 -1t-31.5 -1q-13 0 -18.5 2t-5.5 13q0 12 1.5 17.5t11.5 8.5q5 1 9.5 2.5t10.5 5.5t14 11t20 19 q30 29 60 58.5t60 59.5z" />
<glyph unicode="y" horiz-adv-x="481" d="M342 271q5 11 11 25t11 27t8.5 23t3.5 15q0 10 -8 13t-39 8q-9 2 -11.5 4t-2.5 15q0 15 3 18t9 3q24 0 47.5 -1t40.5 -1q7 0 17.5 0.5t20.5 0.5q11 0 20 0.5t14 0.5q10 0 11.5 -4t1.5 -18q0 -11 -3 -14.5t-17 -9.5q-14 -7 -25 -23t-29 -48q-60 -105 -118 -218t-118 -247 q-15 -32 -26 -53.5t-23.5 -34.5t-28.5 -18.5t-41 -5.5q-5 0 -12.5 0.5t-15 3.5t-12.5 9t-5 18q0 20 10.5 29.5t37.5 23.5q19 10 40.5 36t39.5 54t29.5 50t11.5 25q0 2 -3.5 11.5t-8 21t-9 22t-6.5 15.5q-17 41 -30 72t-24.5 59.5t-24 59.5t-28.5 73q-17 41 -29 53.5 t-24 14.5q-10 2 -13.5 5t-3.5 17q0 16 4 18.5t12 2.5q7 0 15.5 -0.5t20.5 -0.5t29.5 -0.5t41.5 -0.5q44 0 73 1t39 1q9 0 10.5 -3.5t1.5 -14.5q0 -15 -1.5 -18t-12.5 -4q-19 -2 -29 -5.5t-10 -17.5q0 -5 2.5 -15t6.5 -21.5t8 -22.5t6 -17q17 -45 33.5 -89t30.5 -81z" />
<glyph unicode="z" horiz-adv-x="463" d="M434 150q8 -1 9.5 -3.5t1.5 -6.5q0 -3 -3 -15.5t-7.5 -29.5t-11 -38t-13.5 -40q-2 -8 -5.5 -15.5t-8.5 -7.5q-3 0 -11.5 1.5t-10.5 1.5q-23 2 -44.5 2.5t-54.5 0.5h-147q-29 0 -56 -1t-37 -1q-9 0 -10.5 2.5t-1.5 14.5v14t1 8t3 5.5t6 6.5q0 1 29 35t76 95q27 34 46 59.5 t35 47t31 43t35 48.5h-35q-21 0 -44 -1.5t-43.5 -5.5t-31.5 -11q-15 -9 -23.5 -24.5t-19.5 -40.5q-5 -9 -6.5 -11.5t-6.5 -2.5q-1 0 -6.5 0.5t-12 2t-12 4t-5.5 7.5q0 3 3.5 14t3.5 14q6 26 10 47t9 48q1 7 2.5 9.5t7.5 2.5t14 -2t14 -4q6 -1 26.5 -1.5t44.5 -0.5h46h32 q44 0 85 0.5t71 0.5q14 0 21 -2.5t7 -15.5q0 -6 -1 -11t-4 -10.5t-9 -13.5t-16 -21q-13 -17 -25 -32t-28.5 -36.5t-40.5 -53.5t-60 -82q-4 -6 -14.5 -20.5t-22 -30.5t-21.5 -30t-14 -19q57 1 93 3t59 10t36.5 24.5t25.5 47.5q5 14 8 18.5t11 4.5z" />
<glyph unicode="{" horiz-adv-x="370" d="M249 -87q0 -33 3 -54t12 -33t24 -17t39 -5h15q4 0 6 -1t2.5 -7.5t0.5 -11.5v-9q0 -7 -2 -9t-10 -2h-9q-29 0 -57.5 1t-53 7.5t-44.5 20t-32 39.5q-5 10 -7.5 20.5t-4 28.5t-1.5 49v81v31t-0.5 42.5t-1 40.5t-1.5 26q-3 22 -13 35t-23.5 19t-29 7.5t-28.5 1.5 q-11 1 -12.5 3t-1.5 16q0 15 1 18.5t9 3.5q37 0 57.5 8t30 28t11.5 54t2 86q0 11 0.5 20.5t0.5 23.5v36v60q0 49 15.5 77t42 41.5t62 16.5t75.5 3h11q9 0 10 -2q2 -2 2 -5v-14q0 -14 -2.5 -16.5t-11.5 -2.5q-26 -1 -42.5 -3t-26.5 -11.5t-13.5 -30t-3.5 -57.5v-216 q-2 -51 -22.5 -78t-70.5 -37q33 -7 52 -20t28.5 -32t11.5 -42t2 -50z" />
<glyph unicode="|" horiz-adv-x="476" d="M286 750v-1000h-96v1000h96z" />
<glyph unicode="}" horiz-adv-x="370" d="M240 400q0 -38 2 -65t11.5 -45t29 -26.5t53.5 -8.5q11 0 13 -3t2 -16q0 -14 -1.5 -17.5t-12.5 -4.5q-36 -1 -56 -9t-29 -25t-10.5 -43.5t-1.5 -65.5v-152q0 -17 -1.5 -38t-9 -41.5t-23.5 -38t-46 -26.5q-10 -3 -20 -5t-23 -3.5t-31.5 -2t-45.5 -0.5q-13 0 -16 0.5t-4 2.5 q-1 4 -1 8v6v11q0 8 1 10q2 2 16 2q25 0 41 3.5t26 14.5t14 33t4 58v213q1 16 4 33t12.5 32t27.5 27t49 18q-35 7 -54 21t-27.5 35t-10 48.5t-1.5 61.5v38v63t-0.5 60t-0.5 32q-1 27 -5.5 41.5t-14.5 21.5t-26.5 8.5t-41.5 2.5q-7 0 -9 3t-2 16v14t2 5q0 1 4.5 1.5t10.5 0.5 h11h8q19 0 39.5 -0.5t40 -4.5t38 -12t34.5 -23q11 -11 17 -23.5t9 -32.5t3.5 -49.5t0.5 -73.5z" />
<glyph unicode="~" horiz-adv-x="634" d="M504 684q-5 -9 -15.5 -26.5t-26.5 -35.5t-37.5 -31t-47.5 -13q-4 0 -9 0.5t-13 2t-20 5t-30 10.5q-27 10 -44 15t-37 5q-30 0 -48 -18l-12.5 -12.5t-11.5 -12.5l-21 13q6 12 17 30t26.5 35t36 29.5t45.5 12.5q14 0 34.5 -6t58.5 -19q27 -8 39.5 -10t18.5 -2 q24 0 42.5 12.5t32.5 29.5z" />
<glyph unicode="&#xa1;" horiz-adv-x="370" d="M267 355q0 -15 -7.5 -29.5t-19.5 -26.5t-26.5 -19.5t-28.5 -7.5t-28 8t-25 20t-18 26.5t-7 27.5q0 15 8 29.5t20 25.5t26 17.5t26 6.5q14 0 28 -7t25.5 -18t19 -25t7.5 -28zM197 243q6 0 7.5 -5t3.5 -27q4 -45 8.5 -86.5t9 -76t8 -61.5t6.5 -43q6 -37 9.5 -58t5 -33 t2 -19t0.5 -14q0 -25 -11.5 -34.5t-31.5 -12.5q-2 0 -12.5 -2t-23.5 -4t-26.5 -3.5t-22.5 -1.5q-14 0 -21 5t-11 12t-4.5 15.5t-0.5 16.5q0 11 3.5 30t14.5 59q20 79 33.5 160t23.5 162q2 13 3 16t7 4z" />
<glyph unicode="&#xa2;" d="M277 467q-12 0 -26.5 -3t-27 -14t-20.5 -33.5t-8 -61.5q0 -65 23.5 -103t58.5 -55v270zM276 640q0 5 4.5 6t16.5 1q19 0 19 -4q0 -6 -0.5 -20.5t-0.5 -30.5q0 -15 -0.5 -28.5t-0.5 -18.5q34 2 60.5 -2.5t45 -13.5t28 -21t9.5 -25q0 -10 -6.5 -21t-16 -20.5t-20 -15.5 t-18.5 -6t-14 3.5t-20 14.5q-15 13 -26.5 17.5t-22.5 7.5v-272q44 -2 70.5 10t46.5 29h8l12 -35q2 -10 2 -13q0 -2 -9 -11t-26 -20.5t-43 -23.5t-59 -20q0 -6 0.5 -22t0.5 -34t0.5 -33.5t0.5 -21.5q0 -5 -21 -5h-14q-6 0 -6 7q0 4 0.5 18.5t0.5 31.5t0.5 32.5t0.5 21.5 q-54 -3 -93.5 11t-65 40t-38 61.5t-12.5 76.5q0 45 14 86t40.5 74t65 56.5t88.5 32.5z" />
<glyph unicode="&#xa3;" d="M46 266q-4 0 -4.5 2.5t-0.5 11.5q0 26 1 32.5t6 6.5h66q-5 14 -11.5 38.5t-6.5 53.5q0 49 20 92.5t53.5 76t77.5 51.5t92 19q36 0 60.5 -11t39.5 -26t21 -31.5t6 -28.5q0 -16 -8 -27t-20 -18t-25.5 -10.5t-23.5 -3.5q-16 0 -22 9.5t-16 33.5q-2 4 -6 11t-12 14t-20 12 t-29 5q-20 0 -34 -7.5t-22.5 -19.5t-12 -26.5t-3.5 -29.5q0 -11 1 -19t4 -19t8.5 -26.5t14.5 -41.5q8 -23 12.5 -41.5t6.5 -29.5l106 3q7 0 7 -8l-1 -26q0 -12 -0.5 -16t-4.5 -4h-97q2 -8 2 -17v-13q0 -42 -12 -67t-26 -45q10 -1 20.5 -2.5t24 -5t31.5 -11t42 -20.5 q19 -10 31 -16t19 -9t11.5 -4t9.5 -1q9 0 18 4.5t9 13.5q0 6 -4 12.5t-9 13t-9 13t-4 12.5q0 15 12.5 27t31.5 12q12 0 20.5 -5.5t14 -13.5t7.5 -17t2 -17q0 -23 -10 -47.5t-29 -44t-47 -32t-63 -12.5q-16 0 -30.5 2.5t-32 8t-38.5 14.5t-50 21q-20 8 -30 11.5t-17 5.5 q-10 -11 -27.5 -24.5t-45.5 -13.5q-14 0 -27.5 9.5t-13.5 29.5q0 24 15.5 39.5t36.5 24.5t41.5 13t30.5 6q1 14 -0.5 26.5t-6 28t-12.5 36.5t-20 52h-89z" />
<glyph unicode="&#xa4;" horiz-adv-x="634" d="M317 229q18 0 34 6.5t28 18.5t19 28t7 35q0 36 -25.5 62t-62.5 26t-62.5 -25.5t-25.5 -62.5q0 -19 7 -35t19 -28t28 -18.5t34 -6.5zM472 508l19 17q1 0 6.5 -5t11.5 -11t11 -11.5t5 -6.5l-11 -11.5t-24.5 -25l-24.5 -24.5l-12 -12q11 -14 22 -40t11 -61t-11 -60t-22 -41 q4 -4 16 -15.5t24.5 -24.5t22 -23l9.5 -10q0 -1 -4.5 -6.5t-10.5 -11.5t-11.5 -11t-7.5 -5t-8 6l-11 11q-12 12 -19 19.5t-12.5 12.5t-10.5 10t-12 13q-18 -12 -34.5 -19t-30 -10t-23 -3.5t-13.5 -0.5q-20 0 -46 6.5t-55 26.5l-14.5 -14.5t-24 -24.5t-23 -23t-11.5 -10 t-6.5 4.5t-11.5 10.5t-11 11.5t-5 7.5t6 8l11 11l55 54q-12 18 -19 34t-10 29.5t-3.5 23t-0.5 14.5q0 11 4 38.5t29 62.5l-55 54l-17 19q0 1 5 6.5t11 11.5t11.5 11t6.5 5t9 -7.5t10 -9.5q12 -12 19 -19.5t12.5 -12.5t10.5 -10.5t12 -12.5q11 8 36 20.5t65 12.5 q56 0 101 -33z" />
<glyph unicode="&#xa5;" d="M363 356l-39 -67h163q4 0 4.5 -5.5t0.5 -22.5q0 -11 -1 -14t-5 -3h-168v-47q0 -27 1 -54t3 -49.5t6 -31.5q8 -17 26 -20t41 -4q8 -1 9.5 -3t1.5 -12q0 -16 -1 -20t-9 -4q-21 0 -47 0.5t-53 0.5h-53h-47t-42.5 -0.5t-45.5 -0.5q-3 0 -3.5 6t-0.5 15q0 13 3 15t16 4 q33 4 49 13.5t20 41.5q1 12 1.5 32t1 41.5t0.5 41.5v35h-164q-5 0 -5 11q0 21 1 27.5t6 6.5h149l-36 67h-113q-4 0 -5.5 1.5t-1.5 9.5q0 20 1 27t6 7h91q-9 18 -21 43.5t-25.5 51t-26.5 47t-23 32.5q-11 11 -18 15t-25 9q-4 1 -4.5 6t-0.5 13q0 18 7 18q10 0 40.5 -1 t76.5 -1q54 0 77.5 1.5t31.5 0.5q9 -1 13 -3t4 -13q0 -16 -2.5 -20.5t-13.5 -4.5q-7 0 -17 -2.5t-10 -15.5q0 -6 6.5 -23t16.5 -40t22 -49.5t24 -51.5t21.5 -46t15.5 -32q19 33 36 64.5t31 59.5q6 11 13 26.5l14 31t11.5 29t4.5 22.5q0 14 -8 19t-25 7q-14 2 -17.5 3.5 t-3.5 12.5q0 15 1.5 20.5t9.5 5.5q14 0 33 -1t54 -1q29 0 53 1t31 1q6 0 10 -2.5t4 -13.5q0 -13 -1 -18t-9 -7q-8 -3 -16 -7t-17.5 -12.5t-22 -24t-28.5 -42.5q-5 -8 -14 -23.5t-18 -32t-17.5 -31t-11.5 -21.5h96q5 0 5.5 -4.5t0.5 -15.5t-0.5 -17.5t-2.5 -7.5h-126z" />
<glyph unicode="&#xa6;" horiz-adv-x="476" d="M286 175v-350h-96v350h96zM286 675v-350h-96v350h96z" />
<glyph unicode="&#xa7;" d="M349 89q6 8 13.5 20t7.5 32q0 29 -20 50.5t-65 47.5q-23 13 -53.5 32t-53.5 33q-7 -8 -15.5 -21t-8.5 -33q0 -18 7.5 -32t20 -25.5t28 -21t30.5 -18.5zM391 57q19 -15 29 -31.5t14.5 -31.5t5.5 -26.5t1 -15.5q0 -32 -17 -69t-48 -68.5t-75 -52.5t-99 -21q-32 0 -55 7.5 t-38 18t-22.5 23t-7.5 22.5q0 13 7.5 25t18 21t22 14.5t19.5 5.5q5 0 8.5 -0.5t7.5 -3t10 -7t16 -11.5q6 -5 20 -11t46 -6q7 0 22 1.5t30.5 7.5t27 18.5t11.5 34.5q0 17 -6.5 30t-22 26t-41 28t-63.5 37q-39 23 -68 42.5t-47.5 39t-27.5 41t-9 47.5q0 25 8.5 47t20.5 40.5 t26 33t25 25.5l-11.5 11.5t-14.5 19t-12 27t-5 35.5q0 43 20 82t52.5 68.5t74 47t84.5 17.5q55 0 85 -24t30 -54q0 -14 -8.5 -25t-19.5 -18t-21.5 -10.5t-14.5 -3.5q-7 0 -12.5 3.5t-24.5 20.5q-6 5 -21.5 11.5t-40.5 6.5q-9 0 -23.5 -1.5t-29 -8t-24.5 -19.5t-10 -35 q0 -17 6 -29.5t21.5 -26.5t43.5 -31t72 -43q24 -14 47 -29.5t41 -34.5t29 -42t11 -53q0 -24 -7 -44.5t-18 -38.5t-23.5 -33t-24.5 -27z" />
<glyph unicode="&#xa8;" horiz-adv-x="500" d="M345 613q23 0 40 -18t17 -42t-18.5 -41.5t-40.5 -17.5q-23 0 -42.5 17.5t-19.5 42.5q0 26 20.5 42.5t43.5 16.5zM162 613q23 0 40 -18.5t17 -41.5q0 -24 -18.5 -41.5t-40.5 -17.5q-23 0 -42.5 18t-19.5 42q0 25 20.5 42t43.5 17z" />
<glyph unicode="&#xa9;" horiz-adv-x="743" d="M372 39q55 0 104.5 21t87 58.5t60 88t22.5 110.5q0 58 -21.5 108.5t-59 88t-87 59.5t-106.5 22t-107 -22t-87.5 -59.5t-59 -88.5t-21.5 -108q0 -59 22.5 -110t60 -88.5t87.5 -58.5t105 -21zM372 -11q-68 0 -128.5 25.5t-105.5 69.5t-71.5 104t-26.5 129t26.5 129t72 104 t105.5 69.5t128 25.5t128.5 -26t105.5 -70.5t71 -104t26 -127.5t-26 -127.5t-70.5 -104t-105 -70.5t-129.5 -26zM168 317q0 30 11 62.5t39 60t75 45t118 17.5q6 0 19.5 -1t28 -1.5t27 -1.5t15.5 -1q2 0 8 2t8 2q9 0 12 -2t3 -6t-1.5 -15.5t-2.5 -14.5q0 -4 -1 -15.5 t-2.5 -24t-2.5 -22.5t-1 -11q-2 -3 -5 -3.5t-16 -0.5q-8 0 -10 3.5t-5 18.5q-2 10 -5 20t-12 17t-26.5 11.5t-48.5 4.5q-19 0 -40.5 -4t-40 -18t-30.5 -41t-12 -72q0 -40 10 -69t27 -47.5t40.5 -27.5t49.5 -9q42 0 64 17t32 38q5 14 7.5 17t7.5 3q4 0 14.5 -2t10.5 -10 q0 -2 -2.5 -13.5t-6 -25t-6.5 -25.5t-4 -14q-2 -3 -15.5 -7t-33 -7t-41.5 -5t-40 -2q-57 0 -97.5 15t-67 40t-39 57.5t-12.5 67.5z" />
<glyph unicode="&#xaa;" horiz-adv-x="426" d="M221 347q0 8 -1 11.5t-7 3.5q-19 0 -40 -8q-16 -6 -18.5 -10.5t-2.5 -11.5q0 -22 6 -29t22 -7q13 0 24.5 3t16.5 5v43zM365 309v-20q0 -7 -3 -11t-17 -11q-6 -3 -15 -6.5t-20 -6.5t-22.5 -5t-20.5 -2q-14 0 -25.5 5.5t-16.5 17.5q-11 -5 -37 -14t-59 -9q-69 0 -69 67 q0 15 3.5 27t19.5 21t49 16.5t91 13.5q0 21 -0.5 34.5t-4 21.5t-11 11t-21.5 3q-3 0 -8 -0.5l-10 -1t-9 -2t-4 -3.5t0.5 -9t-0.5 -9q-2 -11 -28 -15q-14 -3 -24.5 -4.5t-14.5 -1.5q-11 0 -13.5 6t-2.5 8q0 10 12 24.5t32 28t46.5 23t55.5 9.5q36 0 55.5 -8.5t28.5 -20.5 t10.5 -24.5t1.5 -20.5q0 -5 -0.5 -19.5t-1 -31t-1 -32t-0.5 -21.5q0 -24 1.5 -29.5t12.5 -5.5q9 0 16.5 2.5t16.5 7.5z" />
<glyph unicode="&#xab;" horiz-adv-x="555" d="M404 219q15 -16 36.5 -43t41.5 -54t34 -48t14 -25t-4.5 -8t-10 -7t-11 -4.5t-6.5 -1.5q-4 0 -12 7t-13 11q-45 42 -93 78.5t-98 71.5q-10 7 -12.5 12.5t-2.5 10.5q0 4 2 8.5t12 10.5q22 15 38.5 27t35 26t41 33t56.5 49q8 7 18.5 17t18.5 17q2 1 3.5 2t3.5 1t7.5 -2.5 t11.5 -6t10.5 -7.5t4.5 -8t-30 -48t-96 -119zM163 219q15 -16 36.5 -43t41.5 -54t34 -48t14 -25t-4 -7.5t-9.5 -6.5t-10.5 -5t-7 -2q-5 0 -13 7t-13 11q-45 42 -93 78.5t-98 71.5q-10 7 -12.5 12.5t-2.5 10.5q0 4 2 8.5t12 10.5q22 15 38.5 27t35 26t41 33t56.5 49 q8 7 18.5 17t18.5 17q2 1 3.5 2t3.5 1t7.5 -2.5t11.5 -6t10.5 -7.5t4.5 -8t-30 -48t-96 -119z" />
<glyph unicode="&#xac;" d="M313 350h-263v67h419v-254h-156v187z" />
<glyph unicode="&#xae;" horiz-adv-x="743" d="M372 39q55 0 104.5 21t87 58.5t60 88t22.5 110.5q0 58 -21.5 108.5t-59 88t-87 59.5t-106.5 22t-107 -22t-87.5 -59.5t-59 -88.5t-21.5 -108q0 -59 22.5 -110t60 -88.5t87.5 -58.5t105 -21zM372 -11q-68 0 -128.5 25.5t-105.5 69.5t-71.5 104t-26.5 129t26.5 129t72 104 t105.5 69.5t128 25.5t128.5 -26t105.5 -70.5t71 -104t26 -127.5t-26 -127.5t-70.5 -104t-105 -70.5t-129.5 -26zM328 324q21 -1 38.5 -0.5t31 6.5t21 20t7.5 41q0 28 -8.5 43.5t-20.5 22.5t-26.5 8t-26.5 1q-11 0 -13 -2t-2 -13q0 -10 -0.5 -26.5t-0.5 -35.5v-36v-29z M221 143q-22 -1 -27 0.5t-5 11.5q0 11 3 12.5t17 3.5q20 2 24 16.5t5 29.5q0 8 0.5 23t1 32t0.5 33v25q0 49 -0.5 76.5t-3 40.5t-7.5 16t-15 4q-6 0 -13 0.5t-8 1.5q-2 2 -2.5 5.5t-0.5 6.5q0 11 3.5 13t13.5 2h57q7 0 25.5 0.5t38.5 1t38 1t25 0.5q8 0 30 -1.5t44.5 -10.5 t40 -28t17.5 -55q0 -26 -9.5 -43.5t-22 -28.5t-25 -16.5t-17.5 -7.5q6 -14 15.5 -35t21.5 -42t25.5 -38t27.5 -22q1 0 5 -1t8.5 -1.5t8.5 -1.5l4 -1q7 0 7 -8q0 -9 -1.5 -12t-5.5 -5q-8 -5 -17 -6t-16 -1q-54 0 -92 43t-70 115q-22 -2 -43 0v-30t0.5 -31.5t1.5 -27.5t3 -18 q3 -11 10.5 -12.5t27.5 -2.5q7 0 10 -1.5t3 -12.5q0 -10 -2.5 -11.5t-7.5 -1.5h-152z" />
<glyph unicode="&#xaf;" horiz-adv-x="500" d="M396 588q12 1 14 -0.5t2 -6.5v-58q1 -8 -1 -9.5t-7 -1.5l-153 1h-145q-12 -1 -14 0.5t-2 6.5v58q-1 8 1 9.5t8 1.5l152 -1h145z" />
<glyph unicode="&#xb0;" d="M259 422q29 0 51.5 21t22.5 59q0 36 -22 57.5t-52 21.5q-31 0 -52.5 -22t-21.5 -57q0 -37 22.5 -58.5t51.5 -21.5zM259 358q-33 0 -60 11t-46.5 30.5t-30.5 46t-11 56.5t11 56t30.5 45.5t46.5 30.5t60 11t60.5 -11t47 -30.5t30.5 -45.5t11 -56t-11 -56.5t-30.5 -46 t-47 -30.5t-60.5 -11z" />
<glyph unicode="&#xb1;" d="M483 11q1 -8 -1 -9.5t-10 -1.5h-37h-54h-64h-63h-53h-34h-119q-10 0 -11.5 1t-1.5 8v57q0 8 1.5 9.5t10.5 1.5l212 -1h50h59t57.5 0.5t45.5 0.5q9 0 10.5 -1t1.5 -8v-57zM221 549q0 5 1.5 6t7.5 1h35q14 0 20.5 -0.5t9 -1t2.5 -1.5v-184h123l52 1q8 0 9.5 -1t1.5 -8v-57 q1 -8 -0.5 -9.5t-9.5 -1.5h-176v-123v-12v-17v-17v-11q0 -6 -8 -6h-36t-20 0.5t-9.5 1t-2.5 1.5v183h-164q-15 -1 -18.5 0t-3.5 9v35q0 14 0.5 20.5t1 9t1.5 2.5q2 1 9 0.5t10 -0.5h164v180z" />
<glyph unicode="&#xb2;" horiz-adv-x="370" d="M137 329h81q29 0 43 1.5t18 3.5t7 7q2 4 7 16t7 15q3 6 9 6q7 0 16 -2.5t9 -7.5q0 -2 -2.5 -14.5t-6 -28t-6.5 -29.5t-4 -18q-4 -15 -7.5 -19.5t-17.5 -4.5h-52h-59h-62h-59q-21 -2 -21 12q0 8 2.5 12.5t11.5 13.5q4 4 17 17.5t30 31.5t35 38t31 35q7 8 16.5 20t18 26.5 t14.5 31t6 34.5q0 30 -18 43t-35 13q-20 0 -33 -5t-21 -11.5t-11.5 -13t-4.5 -8.5q-2 -7 -5.5 -14.5t-8.5 -7.5q-3 0 -8.5 1t-11 3t-9.5 5.5t-4 8.5q0 8 7.5 25t25 33.5t46 29t69.5 12.5q62 0 92 -29.5t30 -69.5q0 -39 -21 -69t-58 -62q-6 -5 -21 -16.5t-31.5 -24.5 t-31 -24.5t-19.5 -15.5z" />
<glyph unicode="&#xb3;" horiz-adv-x="370" d="M223 478q10 0 28 -2t35 -11t30 -27.5t13 -52.5q0 -32 -14.5 -57.5t-39.5 -43t-58.5 -27t-71.5 -9.5q-34 0 -55.5 6.5t-33.5 15t-16.5 17.5t-4.5 15q0 17 17.5 28t32.5 11q14 0 19.5 -6.5t14.5 -23.5q8 -15 18.5 -20.5t24.5 -5.5q20 0 31.5 8t17 19.5t7 24t1.5 21.5 t-1.5 21.5t-7 23.5t-16 19t-28.5 8q-23 0 -35.5 -7t-20.5 -7q-4 0 -14 23q-3 7 20 16q84 33 84 85q0 5 -1.5 13.5t-6 16t-13.5 13t-23 5.5q-4 0 -11 -1t-14.5 -3.5t-14.5 -7.5t-11 -12q-7 -13 -9.5 -16t-8.5 -3q-9 0 -19 6.5t-10 12.5q0 4 8.5 16.5t25.5 26t44 23.5t65 10 q28 0 47.5 -7t31.5 -18t17.5 -24t5.5 -24q0 -21 -18.5 -46.5t-61.5 -42.5z" />
<glyph unicode="&#xb4;" horiz-adv-x="500" d="M326 661q3 0 14.5 -2t25 -4.5t25.5 -5.5t18 -5q13 -5 13 -17q0 -13 -11.5 -22t-27.5 -20q-15 -10 -33.5 -22t-37.5 -24.5t-37.5 -24.5t-33.5 -21q-9 -5 -14 -6t-22 -1h-11q-6 0 -6 2l7 10.5t18.5 26t25 34.5t26.5 36.5t23 31.5t15 20q8 10 13.5 12t9.5 2z" />
<glyph unicode="&#xb6;" horiz-adv-x="722" d="M521 539q-20 1 -38.5 0.5t-31.5 -0.5q-14 -1 -29 -3.5t-19 -16.5q-2 -6 -3 -35t-1.5 -64t-0.5 -67v-45v-88t1 -88q1 -20 3 -31t13.5 -16.5t36 -6.5t69.5 0v461zM572 686q-2 -42 -3 -73t-1 -39q29 0 45 0.5t24.5 3t11 6.5t3.5 12q2 16 6.5 30t27.5 14q15 0 28 -9.5 t13 -28.5q0 -4 -1.5 -11t-6 -15t-13.5 -15.5t-24 -12.5q-16 -5 -40.5 -6l-73.5 -3q-1 -70 -1 -140v-139q0 -16 0.5 -53.5t1 -79t1 -78.5t0.5 -51q0 -40 -1.5 -81t-9.5 -77q-4 -16 -12 -32t-20.5 -29t-30.5 -21t-41 -8q-32 0 -53 17.5t-21 47.5q0 27 18 42t40 15q11 0 18 -3 t12 -6q10 -8 13.5 -9.5t8.5 -1.5q14 0 19 14t7 35q3 26 4 62.5t1 78.5q-7 0 -26 -1t-40 -1.5t-40.5 -1t-27.5 -0.5q-74 0 -133 20t-100.5 57t-63.5 88t-22 113q0 55 17.5 103t53.5 84t91.5 56.5t131.5 20.5q9 0 32 -1t48.5 -1.5t47.5 -1.5t31 -1q-1 29 -2 60.5t-3 50.5h55z " />
<glyph unicode="&#xb7;" horiz-adv-x="259" d="M50 208q0 15 7.5 29.5t19.5 26.5t26.5 19.5t28.5 7.5t28 -8t25 -20t18 -26.5t7 -27.5q0 -16 -8 -30t-20 -25t-26 -17.5t-26 -6.5q-14 0 -28.5 7t-26 18.5t-18.5 25t-7 27.5z" />
<glyph unicode="&#xb8;" horiz-adv-x="500" d="M331 11q-16 -23 -25 -36.5t-9 -15.5q0 -7 18 -17q6 -4 14 -9t15 -13.5t12 -20t5 -27.5t-9 -35t-25 -35t-39 -27t-50 -11q-17 0 -27.5 4.5t-16.5 11.5t-8.5 13.5t-2.5 11.5q0 6 2.5 13.5t7 15t10.5 12.5t12 5t14.5 -3.5t22.5 -13.5q9 -7 14.5 -9t10.5 -2q17 0 17 16 q0 14 -10.5 23t-33.5 23q-24 13 -29 17t-5 9q0 7 5 14.5t18 22.5q14 17 22 27t13.5 16.5t8.5 10.5t8 9h40z" />
<glyph unicode="&#xb9;" horiz-adv-x="370" d="M243 412v-50q0 -19 0.5 -31.5t1.5 -19t2 -10.5q4 -11 17.5 -13.5t47.5 -5.5q5 0 5.5 -5t0.5 -10q0 -8 -1 -11t-8 -3q-16 0 -49 1t-66 1q-14 0 -31 -0.5t-33 -0.5t-30 -0.5t-21 -0.5t-8 4t-1 15q0 8 5 9.5t27 3.5q14 2 26 6t16 22q4 19 4 42v70v33v36t-0.5 30t-1.5 18 q-3 14 -12 14q-19 0 -32 -5.5t-21 -5.5q-6 0 -7 5.5t-1 11.5q0 9 3 11.5t14 7.5q32 13 52 22t36 18q10 5 23 12.5t16 7.5q2 0 6.5 -1t9.5 -3.5t9 -5.5t4 -7q0 -13 -0.5 -43.5t-1 -64t-1 -63.5t-0.5 -41z" />
<glyph unicode="&#xba;" horiz-adv-x="426" d="M158 405q0 -14 2.5 -34t9 -39t19 -32.5t32.5 -13.5q16 0 25 8.5t13.5 20.5t5.5 24.5t1 19.5q0 19 -3.5 39.5t-11 38t-19.5 28.5t-30 11q-16 0 -25 -9.5t-13 -21.5t-5 -23.5t-1 -16.5zM56 383q0 25 10.5 49t31 42.5t51.5 29.5t73 11q43 0 71.5 -13t45 -32t23.5 -42t7 -42 q0 -32 -13 -58t-35.5 -44t-54 -27.5t-67.5 -9.5q-13 0 -37 3.5t-47.5 17.5t-41 41t-17.5 74z" />
<glyph unicode="&#xbb;" horiz-adv-x="555" d="M151 218q-14 16 -35.5 43t-41.5 54t-34 48.5t-14 25.5t4.5 8t10.5 7t11 4.5l5 1.5q5 0 13 -7t13 -11q45 -42 92.5 -79t98.5 -72q9 -6 12 -11t3 -11q0 -4 -2 -8.5t-12 -11.5q-24 -16 -41 -27.5t-34.5 -25t-39.5 -32.5t-57 -49q-8 -7 -18.5 -17t-18.5 -17q-3 -3 -6 -3 q-2 0 -7.5 2.5t-11.5 6t-10.5 7.5t-4.5 7q0 5 30.5 49t94.5 118zM392 218q-14 16 -35.5 43t-41.5 54t-34 48.5t-14 25.5t4.5 8t10.5 7t11 4.5l5 1.5q5 0 13 -7t13 -11q45 -42 92.5 -79t98.5 -72q9 -6 12 -11t3 -11q0 -4 -2 -8.5t-12 -11.5q-24 -16 -41 -27.5t-34.5 -25 t-39.5 -32.5t-57 -49q-8 -7 -18.5 -17t-18.5 -17q-3 -3 -6 -3q-2 0 -7.5 2.5t-11.5 6t-10.5 7.5t-4.5 7q0 5 30.5 49t94.5 118z" />
<glyph unicode="&#xbc;" horiz-adv-x="815" d="M241 0q7 12 22.5 42.5t36 72t44.5 90.5t48 99t47 97.5t41.5 85.5t30.5 63t14 30q4 10 7 16t5 11.5t4.5 11.5t6.5 15h60q-8 -12 -16.5 -29t-18.5 -36t-19.5 -38.5t-18.5 -37.5q-19 -39 -42 -86.5t-46.5 -96t-45.5 -94t-39 -81.5l-27.5 -55t-16.5 -35t-9.5 -24t-7.5 -21 h-60zM243 412v-50q0 -19 0.5 -31.5t1.5 -19t2 -10.5q4 -11 17.5 -13.5t47.5 -5.5q5 0 5.5 -5t0.5 -10q0 -8 -1 -11t-8 -3q-16 0 -49 1t-66 1q-14 0 -31 -0.5t-33 -0.5t-30 -0.5t-21 -0.5t-8 4t-1 15q0 8 5 9.5t27 3.5q14 2 26 6t16 22q4 19 4 42v70v33v36t-0.5 30t-1.5 18 q-3 14 -12 14q-19 0 -32 -5.5t-21 -5.5q-6 0 -7 5.5t-1 11.5q0 9 3 11.5t14 7.5q32 13 52 22t36 18q10 5 23 12.5t16 7.5q2 0 6.5 -1t9.5 -3.5t9 -5.5t4 -7q0 -13 -0.5 -43.5t-1 -64t-1 -63.5t-0.5 -41zM635 150v60t0.5 38.5t1.5 26.5t2 23q-30 -43 -61 -80t-58 -68h21h33 h35h26zM782 150q5 1 6 -2t1 -11q0 -10 -1 -18.5t-1 -16.5q0 -6 -2 -7.5t-8 -1.5l-47 1l1 -83q0 -5 -1 -8.5t-7 -3.5h-83q-6 0 -6 10l1 85h-84t-83 -1q-9 0 -12 1.5t-3 9.5q0 21 0.5 26.5t4.5 9.5q24 26 54 60.5t58 66.5q19 22 44 52t44 51q7 8 11.5 12t10.5 4l42 -2 q5 -1 7.5 -2.5t2.5 -7.5v-17q0 -11 -0.5 -24t-1 -24t-0.5 -15v-144h52z" />
<glyph unicode="&#xbd;" horiz-adv-x="815" d="M581 74h81q29 0 43 1.5t18 3.5t7 7q2 4 7 16t7 15q3 6 9 6q7 0 16 -2.5t9 -7.5q0 -2 -2.5 -14.5t-6 -28t-6.5 -29.5t-4 -18q-4 -15 -7.5 -19.5t-17.5 -4.5h-52h-59h-62h-59q-21 -2 -21 12q0 8 2.5 12.5t11.5 13.5q4 4 17 17.5t30 31.5t35 38t31 35q7 8 16.5 20t18 26.5 t14.5 31t6 34.5q0 30 -18 43t-35 13q-20 0 -33 -5t-21 -11.5t-11.5 -13t-4.5 -8.5q-2 -7 -5.5 -14.5t-8.5 -7.5q-3 0 -8.5 1t-11 3t-9.5 5.5t-4 8.5q0 8 7.5 25t25 33.5t46 29t69.5 12.5q62 0 92 -29.5t30 -69.5q0 -39 -21 -69t-58 -62q-6 -5 -21 -16.5t-31.5 -24.5 t-31 -24.5t-19.5 -15.5zM227 0q6 11 21.5 41.5t37 74t47 95.5t51.5 105.5t51 105t44.5 93.5t33 70.5t16.5 36.5q2 3 2.5 6t2.5 6h60q-15 -26 -35 -66t-38 -75l-173 -358l-27.5 -55t-16.5 -35t-9.5 -24t-7.5 -21h-60zM226 412v-50q0 -19 0.5 -31.5t1.5 -19t2 -10.5 q4 -11 17.5 -13.5t47.5 -5.5q5 0 5.5 -5t0.5 -10q0 -8 -1 -11t-8 -3q-16 0 -49 1t-66 1q-14 0 -31 -0.5t-33 -0.5t-30 -0.5t-21 -0.5t-8 4t-1 15q0 8 5 9.5t27 3.5q14 2 26 6t16 22q4 19 4 42v70v33v36t-0.5 30t-1.5 18q-3 14 -12 14q-19 0 -32 -5.5t-21 -5.5q-6 0 -7 5.5 t-1 11.5q0 9 3 11.5t14 7.5q32 13 52 22t36 18q10 5 23 12.5t16 7.5q2 0 6.5 -1t9.5 -3.5t9 -5.5t4 -7q0 -13 -0.5 -43.5t-1 -64t-1 -63.5t-0.5 -41z" />
<glyph unicode="&#xbe;" horiz-adv-x="815" d="M241 0q5 10 20 39.5t36.5 72t46.5 94.5t51.5 105.5t51.5 106t46 96.5t35.5 75.5t19.5 44.5h60q-7 -12 -16 -29t-18.5 -36t-19.5 -38.5t-19 -37.5q-18 -38 -41.5 -85.5t-47 -96.5t-46 -95t-38.5 -81q-17 -34 -27 -55t-16 -35t-10 -24t-8 -21h-60zM223 478q10 0 28 -2 t35 -11t30 -27.5t13 -52.5q0 -32 -14.5 -57.5t-39.5 -43t-58.5 -27t-71.5 -9.5q-34 0 -55.5 6.5t-33.5 15t-16.5 17.5t-4.5 15q0 17 17.5 28t32.5 11q14 0 19.5 -6.5t14.5 -23.5q8 -15 18.5 -20.5t24.5 -5.5q20 0 31.5 8t17 19.5t7 24t1.5 21.5t-1.5 21.5t-7 23.5t-16 19 t-28.5 8q-23 0 -35.5 -7t-20.5 -7q-4 0 -14 23q-3 7 20 16q84 33 84 85q0 5 -1.5 13.5t-6 16t-13.5 13t-23 5.5q-4 0 -11 -1t-14.5 -3.5t-14.5 -7.5t-11 -12q-7 -13 -9.5 -16t-8.5 -3q-9 0 -19 6.5t-10 12.5q0 4 8.5 16.5t25.5 26t44 23.5t65 10q28 0 47.5 -7t31.5 -18 t17.5 -24t5.5 -24q0 -21 -18.5 -46.5t-61.5 -42.5zM635 150v60t0.5 38.5t1.5 26.5t2 23q-34 -48 -63.5 -83.5t-55.5 -64.5h21h33h35h26zM782 150q5 1 6 -2t1 -11q0 -10 -1 -18.5t-1 -16.5q0 -6 -2 -7.5t-8 -1.5l-47 1l1 -83q0 -5 -1 -8.5t-7 -3.5h-83q-6 0 -6 10l1 85h-84 t-83 -1q-9 0 -12 1.5t-3 9.5q0 21 0.5 26.5t4.5 9.5q24 26 54 60.5t58 66.5q19 22 44 52t44 51q7 8 11.5 12t10.5 4l42 -2q5 -1 7.5 -2.5t2.5 -7.5v-17q0 -11 -0.5 -24t-1 -24t-0.5 -15v-144h52z" />
<glyph unicode="&#xbf;" horiz-adv-x="426" d="M347 355q0 -15 -7.5 -29.5t-19.5 -26.5t-27 -19.5t-29 -7.5t-27.5 8t-24.5 20t-18 26.5t-7 27.5q0 15 8 29.5t20 25.5t26 17.5t26 6.5q14 0 28.5 -7t26 -18.5t18.5 -25.5t7 -27zM265 -227q-42 0 -75.5 14.5t-59 37t-44 50.5t-30 54t-17 48t-5.5 33q0 30 12.5 51.5 t29.5 35.5t34.5 22t28.5 12q29 11 48.5 18.5t31.5 13t19 9.5t11 8q5 5 6.5 14t1.5 32q0 7 0.5 8.5t2.5 1.5q3 1 6 1h18q5 0 7 -2t4 -12q7 -30 10.5 -47t5.5 -26.5t2.5 -14.5t0.5 -11q0 -18 -5.5 -30.5t-18 -23t-33.5 -22t-51 -26.5q-29 -14 -46.5 -23t-27.5 -17.5t-13.5 -17 t-3.5 -21.5q0 -26 19.5 -46.5t51.5 -20.5q17 0 35.5 4t31.5 9q18 8 28.5 12.5t17.5 7t11.5 3t9.5 0.5q10 0 18.5 -7t14.5 -17.5t9.5 -22.5t3.5 -23q0 -26 -14 -39.5t-31.5 -20.5t-34 -8t-21.5 -1z" />
<glyph unicode="&#xc0;" horiz-adv-x="704" d="M320 506q-11 -25 -24.5 -57t-27 -65t-26.5 -65t-23 -57q97 -3 195 0q-14 36 -29 74t-28 71.5t-23 59.5t-14 39zM322 630q42 7 57.5 9t23.5 2q6 0 9 -5.5t5 -14.5q8 -26 19.5 -57.5t25 -65.5t27.5 -68.5t27 -66.5q19 -48 33 -82t26 -62.5t23.5 -55.5t26.5 -61 q14 -32 28.5 -44.5t40.5 -17.5q8 -1 9 -6.5t1 -14.5q0 -11 -1 -16t-9 -5q-35 0 -68 1t-68 1q-28 0 -61 -1t-69 -1q-12 0 -14.5 4t-2.5 12q0 13 1.5 18.5t11.5 6.5q23 2 39.5 8t16.5 26q0 6 -6 25.5t-14.5 42.5t-16.5 44.5t-12 32.5q-20 0 -52.5 0.5t-66.5 0.5t-64.5 -0.5 t-46.5 -0.5q-6 -17 -14 -38.5t-15.5 -42t-12.5 -37.5t-5 -26q0 -21 19.5 -27.5t41.5 -7.5q17 -1 19.5 -3.5t2.5 -18.5q0 -8 -1.5 -13.5t-9.5 -5.5q-32 1 -62.5 1.5t-62.5 0.5q-21 -1 -47 -1.5t-38 -0.5q-8 0 -11.5 2.5t-3.5 13.5q0 10 1.5 16.5t9.5 8.5q15 3 26 12.5 t24.5 30.5t31.5 57t46 93q12 25 32.5 68.5t43 91.5t43 94.5t32.5 78.5q8 20 12.5 32.5t7.5 19.5t5 9.5t6 3.5zM260 871q13 0 20.5 -4.5t27.5 -26.5q13 -14 29 -31.5t31.5 -34t28.5 -30t19 -19.5l11 -11t6 -7q0 -3 -3.5 -3.5t-5.5 -0.5q-23 0 -31 1t-21 7q-6 2 -21.5 10.5 t-35.5 19.5t-42.5 23t-42 23t-33 19t-16.5 10q-8 5 -15.5 11.5t-7.5 14.5q0 5 3.5 9t20.5 8q6 1 17 3t22.5 4t22 3.5t16.5 1.5z" />
<glyph unicode="&#xc1;" horiz-adv-x="704" d="M320 506q-11 -25 -24.5 -57t-27 -65t-26.5 -65t-23 -57q97 -3 195 0q-14 36 -29 74t-28 71.5t-23 59.5t-14 39zM322 630q42 7 57.5 9t23.5 2q6 0 9 -5.5t5 -14.5q8 -26 19.5 -57.5t25 -65.5t27.5 -68.5t27 -66.5q19 -48 33 -82t26 -62.5t23.5 -55.5t26.5 -61 q14 -32 28.5 -44.5t40.5 -17.5q8 -1 9 -6.5t1 -14.5q0 -11 -1 -16t-9 -5q-35 0 -68 1t-68 1q-28 0 -61 -1t-69 -1q-12 0 -14.5 4t-2.5 12q0 13 1.5 18.5t11.5 6.5q23 2 39.5 8t16.5 26q0 6 -6 25.5t-14.5 42.5t-16.5 44.5t-12 32.5q-20 0 -52.5 0.5t-66.5 0.5t-64.5 -0.5 t-46.5 -0.5q-6 -17 -14 -38.5t-15.5 -42t-12.5 -37.5t-5 -26q0 -21 19.5 -27.5t41.5 -7.5q17 -1 19.5 -3.5t2.5 -18.5q0 -8 -1.5 -13.5t-9.5 -5.5q-32 1 -62.5 1.5t-62.5 0.5q-21 -1 -47 -1.5t-38 -0.5q-8 0 -11.5 2.5t-3.5 13.5q0 10 1.5 16.5t9.5 8.5q15 3 26 12.5 t24.5 30.5t31.5 57t46 93q12 25 32.5 68.5t43 91.5t43 94.5t32.5 78.5q8 20 12.5 32.5t7.5 19.5t5 9.5t6 3.5zM472 871q6 0 18 -1.5t24 -4t23 -4.5t16 -3q7 -2 14 -5t7 -10q0 -12 -14.5 -22t-23.5 -15q-47 -26 -74.5 -41t-44.5 -24.5t-26.5 -14.5t-18.5 -9q-17 -9 -25.5 -12 t-16.5 -3h-7t-10.5 0.5t-9.5 1t-4 2.5t2.5 4.5l12.5 12.5q13 13 29 30t32 34.5t32 34.5t29 31q11 11 16.5 14.5t19.5 3.5z" />
<glyph unicode="&#xc2;" horiz-adv-x="704" d="M320 506q-11 -25 -24.5 -57t-27 -65t-26.5 -65t-23 -57q97 -3 195 0q-14 36 -29 74t-28 71.5t-23 59.5t-14 39zM322 630q42 7 57.5 9t23.5 2q6 0 9 -5.5t5 -14.5q8 -26 19.5 -57.5t25 -65.5t27.5 -68.5t27 -66.5q19 -48 33 -82t26 -62.5t23.5 -55.5t26.5 -61 q14 -32 28.5 -44.5t40.5 -17.5q8 -1 9 -6.5t1 -14.5q0 -11 -1 -16t-9 -5q-35 0 -68 1t-68 1q-28 0 -61 -1t-69 -1q-12 0 -14.5 4t-2.5 12q0 13 1.5 18.5t11.5 6.5q23 2 39.5 8t16.5 26q0 6 -6 25.5t-14.5 42.5t-16.5 44.5t-12 32.5q-20 0 -52.5 0.5t-66.5 0.5t-64.5 -0.5 t-46.5 -0.5q-6 -17 -14 -38.5t-15.5 -42t-12.5 -37.5t-5 -26q0 -21 19.5 -27.5t41.5 -7.5q17 -1 19.5 -3.5t2.5 -18.5q0 -8 -1.5 -13.5t-9.5 -5.5q-32 1 -62.5 1.5t-62.5 0.5q-21 -1 -47 -1.5t-38 -0.5q-8 0 -11.5 2.5t-3.5 13.5q0 10 1.5 16.5t9.5 8.5q15 3 26 12.5 t24.5 30.5t31.5 57t46 93q12 25 32.5 68.5t43 91.5t43 94.5t32.5 78.5q8 20 12.5 32.5t7.5 19.5t5 9.5t6 3.5zM352 803q-9 -8 -30.5 -24t-44 -32.5t-41.5 -28.5t-24 -12q-7 0 -17.5 10t-10.5 14q0 2 4 7t9.5 11t10.5 11.5t8 8.5q20 22 42 47t40 48q17 21 28.5 28.5t28.5 7.5 q9 0 16 -2t13.5 -7t14 -13.5t19.5 -22.5q5 -6 15.5 -18t22.5 -25t23.5 -24.5l17.5 -17.5q2 -2 7 -6.5t9.5 -9.5t8 -9.5t3.5 -6.5t-3 -6t-7 -8.5t-8.5 -7.5t-6.5 -3t-9 3.5t-15.5 8.5t-16 9.5t-10.5 6.5q-6 4 -20.5 13t-30 19.5t-29 19t-17.5 11.5z" />
<glyph unicode="&#xc3;" horiz-adv-x="704" d="M320 506q-11 -25 -24.5 -57t-27 -65t-26.5 -65t-23 -57q97 -3 195 0q-14 36 -29 74t-28 71.5t-23 59.5t-14 39zM322 630q42 7 57.5 9t23.5 2q6 0 9 -5.5t5 -14.5q8 -26 19.5 -57.5t25 -65.5t27.5 -68.5t27 -66.5q19 -48 33 -82t26 -62.5t23.5 -55.5t26.5 -61 q14 -32 28.5 -44.5t40.5 -17.5q8 -1 9 -6.5t1 -14.5q0 -11 -1 -16t-9 -5q-35 0 -68 1t-68 1q-28 0 -61 -1t-69 -1q-12 0 -14.5 4t-2.5 12q0 13 1.5 18.5t11.5 6.5q23 2 39.5 8t16.5 26q0 6 -6 25.5t-14.5 42.5t-16.5 44.5t-12 32.5q-20 0 -52.5 0.5t-66.5 0.5t-64.5 -0.5 t-46.5 -0.5q-6 -17 -14 -38.5t-15.5 -42t-12.5 -37.5t-5 -26q0 -21 19.5 -27.5t41.5 -7.5q17 -1 19.5 -3.5t2.5 -18.5q0 -8 -1.5 -13.5t-9.5 -5.5q-32 1 -62.5 1.5t-62.5 0.5q-21 -1 -47 -1.5t-38 -0.5q-8 0 -11.5 2.5t-3.5 13.5q0 10 1.5 16.5t9.5 8.5q15 3 26 12.5 t24.5 30.5t31.5 57t46 93q12 25 32.5 68.5t43 91.5t43 94.5t32.5 78.5q8 20 12.5 32.5t7.5 19.5t5 9.5t6 3.5zM289 852q12 0 21.5 -1.5t21 -5.5t25 -10t33.5 -15q26 -11 41 -16.5t35 -5.5t31.5 7.5t25.5 24.5q6 8 8 8l5 -2l10 -4t9.5 -5t4.5 -4q0 -2 -9 -18t-23 -33 q-17 -21 -32 -33t-27.5 -18t-23.5 -7t-18 -1q-24 0 -44.5 7.5t-46.5 20.5q-17 9 -38.5 17.5t-46.5 8.5q-22 0 -32.5 -8.5t-18.5 -19.5q-2 -2 -5.5 -7.5t-5.5 -5.5l-8.5 3.5t-10.5 5.5l-6 3t-4 4q0 1 8 18t24 37.5t40.5 37.5t56.5 17z" />
<glyph unicode="&#xc4;" horiz-adv-x="704" d="M461 829q21 0 40.5 -18t19.5 -43q0 -13 -5.5 -24t-14.5 -19t-20 -12.5t-21 -4.5t-21 4.5t-20 12.5t-14.5 19t-5.5 24t5.5 24t14.5 19.5t20 13t22 4.5zM253 829q10 0 20.5 -5t19.5 -13t14.5 -19t5.5 -24t-6 -24t-15 -19t-19.5 -12.5t-20.5 -4.5t-21 4.5t-20 12.5t-14.5 19 t-5.5 24t5.5 24t14.5 19.5t20 13t22 4.5zM320 506q-11 -25 -24.5 -57t-27 -65t-26.5 -65t-23 -57q97 -3 195 0q-14 36 -29 74t-28 71.5t-23 59.5t-14 39zM322 630q42 7 57.5 9t23.5 2q6 0 9 -5.5t5 -14.5q8 -26 19.5 -57.5t25 -65.5t27.5 -68.5t27 -66.5q19 -48 33 -82 t26 -62.5t23.5 -55.5t26.5 -61q14 -32 28.5 -44.5t40.5 -17.5q8 -1 9 -6.5t1 -14.5q0 -11 -1 -16t-9 -5q-35 0 -68 1t-68 1q-28 0 -61 -1t-69 -1q-12 0 -14.5 4t-2.5 12q0 13 1.5 18.5t11.5 6.5q23 2 39.5 8t16.5 26q0 6 -6 25.5t-14.5 42.5t-16.5 44.5t-12 32.5 q-20 0 -52.5 0.5t-66.5 0.5t-64.5 -0.5t-46.5 -0.5q-6 -17 -14 -38.5t-15.5 -42t-12.5 -37.5t-5 -26q0 -21 19.5 -27.5t41.5 -7.5q17 -1 19.5 -3.5t2.5 -18.5q0 -8 -1.5 -13.5t-9.5 -5.5q-32 1 -62.5 1.5t-62.5 0.5q-21 -1 -47 -1.5t-38 -0.5q-8 0 -11.5 2.5t-3.5 13.5 q0 10 1.5 16.5t9.5 8.5q15 3 26 12.5t24.5 30.5t31.5 57t46 93q12 25 32.5 68.5t43 91.5t43 94.5t32.5 78.5q8 20 12.5 32.5t7.5 19.5t5 9.5t6 3.5z" />
<glyph unicode="&#xc5;" horiz-adv-x="704" d="M320 506q-11 -25 -24.5 -57t-27 -65t-26.5 -65t-23 -57q97 -3 195 0q-14 36 -29 74t-28 71.5t-23 59.5t-14 39zM322 630q42 7 57.5 9t23.5 2q6 0 9 -5.5t5 -14.5q8 -26 19.5 -57.5t25 -65.5t27.5 -68.5t27 -66.5q19 -48 33 -82t26 -62.5t23.5 -55.5t26.5 -61 q14 -32 28.5 -44.5t40.5 -17.5q8 -1 9 -6.5t1 -14.5q0 -11 -1 -16t-9 -5q-35 0 -68 1t-68 1q-28 0 -61 -1t-69 -1q-12 0 -14.5 4t-2.5 12q0 13 1.5 18.5t11.5 6.5q23 2 39.5 8t16.5 26q0 6 -6 25.5t-14.5 42.5t-16.5 44.5t-12 32.5q-20 0 -52.5 0.5t-66.5 0.5t-64.5 -0.5 t-46.5 -0.5q-6 -17 -14 -38.5t-15.5 -42t-12.5 -37.5t-5 -26q0 -21 19.5 -27.5t41.5 -7.5q17 -1 19.5 -3.5t2.5 -18.5q0 -8 -1.5 -13.5t-9.5 -5.5q-32 1 -62.5 1.5t-62.5 0.5q-21 -1 -47 -1.5t-38 -0.5q-8 0 -11.5 2.5t-3.5 13.5q0 10 1.5 16.5t9.5 8.5q15 3 26 12.5 t24.5 30.5t31.5 57t46 93q12 25 32.5 68.5t43 91.5t43 94.5t32.5 78.5q8 20 12.5 32.5t7.5 19.5t5 9.5t6 3.5zM360 729q26 0 38.5 19.5t12.5 42.5t-12.5 43t-38.5 20t-38.5 -20.5t-12.5 -42.5q0 -10 3 -21t9 -20t15.5 -15t23.5 -6zM360 693q-24 0 -45.5 6.5t-38 19.5t-26 31 t-9.5 41q0 22 9.5 40.5t26 31.5t38 20t45.5 7t46 -7t38 -19.5t25.5 -31t9.5 -41.5t-9.5 -41.5t-26 -31t-38 -19t-45.5 -6.5z" />
<glyph unicode="&#xc6;" horiz-adv-x="981" d="M467 296q0 14 -0.5 51.5t-0.5 79.5t-0.5 80t-0.5 54l-40 -60q-17 -25 -30 -45.5t-28 -43t-33.5 -50t-44.5 -66.5h178zM257 247q-21 -33 -44 -68t-40 -64q-10 -17 -14 -28.5t-4 -20.5q0 -17 14.5 -21t36.5 -6q9 -1 14.5 -1.5t7.5 -2.5t2.5 -6.5t0.5 -11.5q0 -19 -13 -19 q-17 0 -54.5 1t-75.5 1q-30 0 -48 -1t-38 -1q-9 0 -11 4.5t-2 10.5q0 13 1.5 18t11.5 8q13 4 22.5 9.5t20 16t23.5 28t33 44.5q38 51 72.5 97.5t67.5 92.5t66.5 93t68.5 97q22 31 29 42.5t7 19.5q0 11 -9 13t-27 4q-8 0 -10 3t-2 16q0 10 2 15.5t10 5.5q15 0 56.5 -0.5 t95.5 -0.5t114.5 -0.5t112.5 -0.5q10 0 33 0.5t49 0.5t49 0.5t32 0.5q8 0 9.5 -2t1.5 -6t-1.5 -18.5t-3 -31.5t-3.5 -32.5t-2 -21.5q-1 -14 -2.5 -32.5t-2.5 -19.5q-2 -2 -9.5 -2.5t-13.5 -0.5q-13 0 -16 2.5t-4 9.5q-5 32 -10 52t-22 31t-50.5 15t-94.5 4q-32 0 -49.5 -1.5 t-26 -6.5t-10 -16t-1.5 -29v-175q72 0 113 1.5t62 7.5t27 16.5t9 28.5q1 10 2 15.5t3.5 8t7 3t12.5 0.5q14 0 17 -3t3 -9q0 -4 -0.5 -13.5t-0.5 -21.5t-0.5 -25t-0.5 -23q0 -7 0.5 -23t0.5 -34t0.5 -35t0.5 -24q0 -6 -3 -8t-16 -2q-14 0 -17.5 2.5t-4.5 10.5q-4 28 -10 43 t-29 22q-26 8 -65 9t-111 1v-194q0 -13 2 -23t10.5 -16.5t25.5 -10t46 -3.5q55 0 89 4.5t55.5 17t34 34t26.5 55.5q7 17 11.5 20.5t20.5 -1.5q7 -2 14 -4.5t5 -10.5q-5 -26 -9.5 -46t-9 -37.5t-8.5 -34.5t-9 -36q-2 -8 -6 -14t-18 -5q-45 1 -87.5 1.5t-84.5 0.5q-42 1 -82 1 h-79q-35 0 -63.5 -0.5t-49.5 -0.5q-20 -1 -32.5 -1.5t-17.5 -0.5q-9 0 -10.5 6.5t-1.5 14.5t3.5 12.5t19.5 6.5q23 2 36 9t19.5 26t8 53.5t1.5 93.5v27h-210z" />
<glyph unicode="&#xc7;" horiz-adv-x="685" d="M447 -11q-1 -1 -4.5 -6t-7.5 -11t-7.5 -12t-3.5 -8q0 -6 20 -18q8 -5 17 -11t16 -14t11.5 -20t4.5 -29q0 -18 -10 -38t-27 -37t-41.5 -28.5t-52.5 -11.5q-18 0 -29 5t-18 12t-9.5 14.5t-2.5 12.5q0 6 3 14.5t7.5 16t11 13t12.5 5.5q9 0 20.5 -6.5t18.5 -11.5 q11 -8 16.5 -10t10.5 -2q18 0 18 17q0 15 -11.5 25t-34.5 24q-26 14 -31.5 18t-5.5 10q0 8 8 19q11 14 25.5 32t28.5 35q-72 1 -126.5 16.5t-94 40.5t-66 58t-42 69t-22 72t-6.5 69q0 14 2 39.5t11 57t28 67t54 68.5q22 21 49.5 39.5t64.5 32.5t85.5 22.5t111.5 8.5 q29 0 54 -1.5t54 -3.5q10 -1 24 -2.5t24 -1.5q5 0 8.5 1.5t8.5 3.5q2 2 6 2h5q14 0 16 -2.5t2 -5.5q0 -2 -1.5 -16.5t-3.5 -31.5t-4 -33t-2 -22q0 -5 -1 -17.5t-2 -26.5t-2 -25.5t-2 -13.5q-2 -4 -6 -5t-15 -1q-14 0 -18 2t-6 15q-2 17 -6 38.5t-11 32.5q-11 18 -30.5 28 t-41.5 15t-43.5 6t-35.5 1q-69 0 -108 -19t-61 -47q-21 -28 -37 -71.5t-16 -116.5q0 -75 18.5 -129t49.5 -89.5t72.5 -52t87.5 -16.5q10 0 32 2t47 11.5t50 30.5t42 60q10 23 13 28t8 5q1 0 6.5 -0.5t12 -2t11.5 -5t5 -8.5l-4.5 -21.5t-10.5 -47.5t-11.5 -48.5t-8.5 -25.5 q-2 -2 -17 -6.5t-38 -9t-53 -9t-63 -7.5z" />
<glyph unicode="&#xc8;" horiz-adv-x="630" d="M125 337v87q0 36 -0.5 60t-1.5 38t-2 24q-3 32 -18.5 40.5t-44.5 9.5q-12 0 -14 2.5t-2 17.5t3 17.5t17 2.5t46 -0.5t68 -0.5q36 -1 68 -1.5t44 -0.5q38 0 74.5 0.5t71.5 1.5q35 0 68.5 0.5t62.5 0.5q9 0 10.5 -5t1.5 -13q0 -9 -3.5 -29.5t-5.5 -54.5q-1 -12 -2.5 -27.5 t-1.5 -25.5q0 -8 -4.5 -10t-17.5 -2q-12 0 -16 2.5t-5 9.5q-4 32 -9 52t-20.5 31t-46 15t-86.5 4h-21q-13 0 -26.5 -1t-25 -3t-14.5 -6q-5 -5 -6 -18t-1 -24q-1 -42 -1 -88t1 -88q69 0 108.5 1.5t59.5 7.5t26 16.5t8 28.5q3 20 6 23.5t19 3.5q7 0 13 -2.5t6 -7.5 q0 -6 -0.5 -18.5t-0.5 -26.5q0 -13 -0.5 -25.5t-0.5 -16.5q0 -6 0.5 -22t0.5 -34q0 -17 0.5 -32t0.5 -21q0 -10 -4 -12.5t-14 -2.5q-9 0 -14.5 1.5t-6.5 11.5q-4 28 -9.5 43t-28.5 22q-13 4 -28 6t-35.5 3t-46.5 1h-61v-41q0 -27 0.5 -57t1 -57t1.5 -39q1 -13 3 -23 t9.5 -16.5t23 -10t44.5 -3.5q60 0 94 6t54 20.5t31 38.5t25 61q2 6 10.5 6.5t16.5 -2.5q8 -2 13 -6t5 -9q0 -11 -10 -55.5t-27 -102.5q-2 -6 -6.5 -10.5t-12.5 -4.5q-12 0 -50 0.5t-86 1.5q-48 0 -96.5 0.5t-82.5 0.5q-31 0 -57 -0.5t-48 -0.5q-22 -1 -39 -1.5t-31 -0.5 q-9 0 -10.5 3t-1.5 16q0 14 4 17t22 5q38 3 47 21t11 45q1 18 2 48t1.5 63.5t0.5 65.5v55zM223 871q13 0 20.5 -4.5t27.5 -26.5q9 -10 23.5 -25.5t29.5 -31.5t29 -31t24 -25q1 0 4 -3t6.5 -7t6 -7l2.5 -3q0 -3 -3.5 -3.5t-5.5 -0.5q-23 0 -31 1t-21 7q-4 2 -19.5 10 t-36.5 19t-44.5 24t-44.5 25t-37 21.5t-21 13.5q-3 3 -7 7.5t-4 10.5q0 5 4 9t20 8q23 5 46.5 8.5t31.5 3.5z" />
<glyph unicode="&#xc9;" horiz-adv-x="630" d="M125 337v87q0 36 -0.5 60t-1.5 38t-2 24q-3 32 -18.5 40.5t-44.5 9.5q-12 0 -14 2.5t-2 17.5t3 17.5t17 2.5t46 -0.5t68 -0.5q36 -1 68 -1.5t44 -0.5q38 0 74.5 0.5t71.5 1.5q35 0 68.5 0.5t62.5 0.5q9 0 10.5 -5t1.5 -13q0 -9 -3.5 -29.5t-5.5 -54.5q-1 -12 -2.5 -27.5 t-1.5 -25.5q0 -8 -4.5 -10t-17.5 -2q-12 0 -16 2.5t-5 9.5q-4 32 -9 52t-20.5 31t-46 15t-86.5 4h-21q-13 0 -26.5 -1t-25 -3t-14.5 -6q-5 -5 -6 -18t-1 -24q-1 -42 -1 -88t1 -88q69 0 108.5 1.5t59.5 7.5t26 16.5t8 28.5q3 20 6 23.5t19 3.5q7 0 13 -2.5t6 -7.5 q0 -6 -0.5 -18.5t-0.5 -26.5q0 -13 -0.5 -25.5t-0.5 -16.5q0 -6 0.5 -22t0.5 -34q0 -17 0.5 -32t0.5 -21q0 -10 -4 -12.5t-14 -2.5q-9 0 -14.5 1.5t-6.5 11.5q-4 28 -9.5 43t-28.5 22q-13 4 -28 6t-35.5 3t-46.5 1h-61v-41q0 -27 0.5 -57t1 -57t1.5 -39q1 -13 3 -23 t9.5 -16.5t23 -10t44.5 -3.5q60 0 94 6t54 20.5t31 38.5t25 61q2 6 10.5 6.5t16.5 -2.5q8 -2 13 -6t5 -9q0 -11 -10 -55.5t-27 -102.5q-2 -6 -6.5 -10.5t-12.5 -4.5q-12 0 -50 0.5t-86 1.5q-48 0 -96.5 0.5t-82.5 0.5q-31 0 -57 -0.5t-48 -0.5q-22 -1 -39 -1.5t-31 -0.5 q-9 0 -10.5 3t-1.5 16q0 14 4 17t22 5q38 3 47 21t11 45q1 18 2 48t1.5 63.5t0.5 65.5v55zM435 871q6 0 17.5 -1.5t24 -4t23.5 -4.5t16 -3q6 -2 13.5 -5t7.5 -10q0 -12 -14.5 -22t-23.5 -15q-47 -26 -74.5 -41t-44.5 -24.5t-26.5 -14.5t-18.5 -9q-17 -10 -26 -12.5t-16 -2.5 h-8q-5 0 -10 0.5t-9 1t-4 2.5t2.5 4.5l12.5 12.5q13 13 29 30t32 34.5t32 34.5t29 31q11 11 16.5 14.5t19.5 3.5z" />
<glyph unicode="&#xca;" horiz-adv-x="630" d="M125 337v87q0 36 -0.5 60t-1.5 38t-2 24q-3 32 -18.5 40.5t-44.5 9.5q-12 0 -14 2.5t-2 17.5t3 17.5t17 2.5t46 -0.5t68 -0.5q36 -1 68 -1.5t44 -0.5q38 0 74.5 0.5t71.5 1.5q35 0 68.5 0.5t62.5 0.5q9 0 10.5 -5t1.5 -13q0 -9 -3.5 -29.5t-5.5 -54.5q-1 -12 -2.5 -27.5 t-1.5 -25.5q0 -8 -4.5 -10t-17.5 -2q-12 0 -16 2.5t-5 9.5q-4 32 -9 52t-20.5 31t-46 15t-86.5 4h-21q-13 0 -26.5 -1t-25 -3t-14.5 -6q-5 -5 -6 -18t-1 -24q-1 -42 -1 -88t1 -88q69 0 108.5 1.5t59.5 7.5t26 16.5t8 28.5q3 20 6 23.5t19 3.5q7 0 13 -2.5t6 -7.5 q0 -6 -0.5 -18.5t-0.5 -26.5q0 -13 -0.5 -25.5t-0.5 -16.5q0 -6 0.5 -22t0.5 -34q0 -17 0.5 -32t0.5 -21q0 -10 -4 -12.5t-14 -2.5q-9 0 -14.5 1.5t-6.5 11.5q-4 28 -9.5 43t-28.5 22q-13 4 -28 6t-35.5 3t-46.5 1h-61v-41q0 -27 0.5 -57t1 -57t1.5 -39q1 -13 3 -23 t9.5 -16.5t23 -10t44.5 -3.5q60 0 94 6t54 20.5t31 38.5t25 61q2 6 10.5 6.5t16.5 -2.5q8 -2 13 -6t5 -9q0 -11 -10 -55.5t-27 -102.5q-2 -6 -6.5 -10.5t-12.5 -4.5q-12 0 -50 0.5t-86 1.5q-48 0 -96.5 0.5t-82.5 0.5q-31 0 -57 -0.5t-48 -0.5q-22 -1 -39 -1.5t-31 -0.5 q-9 0 -10.5 3t-1.5 16q0 14 4 17t22 5q38 3 47 21t11 45q1 18 2 48t1.5 63.5t0.5 65.5v55zM318 788q-7 -6 -28 -21.5t-44 -32t-43 -29.5t-25 -13q-7 0 -17.5 10t-10.5 14q0 2 4 7t9.5 11t10.5 11.5t8 8.5q27 29 47 52.5t35 42.5q17 21 28.5 28.5t27.5 7.5q10 0 16.5 -2 t13 -7t14 -13.5t19.5 -22.5q6 -7 16.5 -19t22.5 -24.5t23.5 -24l17.5 -17.5q2 -2 7 -6.5t9.5 -9.5t8 -9.5t3.5 -6.5t-3 -6t-7 -8t-8 -7.5t-7 -3.5q-5 0 -23 11t-64 40q-16 10 -36 23t-25 16z" />
<glyph unicode="&#xcb;" horiz-adv-x="630" d="M125 337v87q0 36 -0.5 60t-1.5 38t-2 24q-3 32 -18.5 40.5t-44.5 9.5q-12 0 -14 2.5t-2 17.5t3 17.5t17 2.5t46 -0.5t68 -0.5q36 -1 68 -1.5t44 -0.5q38 0 74.5 0.5t71.5 1.5q35 0 68.5 0.5t62.5 0.5q9 0 10.5 -5t1.5 -13q0 -9 -3.5 -29.5t-5.5 -54.5q-1 -12 -2.5 -27.5 t-1.5 -25.5q0 -8 -4.5 -10t-17.5 -2q-12 0 -16 2.5t-5 9.5q-4 32 -9 52t-20.5 31t-46 15t-86.5 4h-21q-13 0 -26.5 -1t-25 -3t-14.5 -6q-5 -5 -6 -18t-1 -24q-1 -42 -1 -88t1 -88q69 0 108.5 1.5t59.5 7.5t26 16.5t8 28.5q3 20 6 23.5t19 3.5q7 0 13 -2.5t6 -7.5 q0 -6 -0.5 -18.5t-0.5 -26.5q0 -13 -0.5 -25.5t-0.5 -16.5q0 -6 0.5 -22t0.5 -34q0 -17 0.5 -32t0.5 -21q0 -10 -4 -12.5t-14 -2.5q-9 0 -14.5 1.5t-6.5 11.5q-4 28 -9.5 43t-28.5 22q-13 4 -28 6t-35.5 3t-46.5 1h-61v-41q0 -27 0.5 -57t1 -57t1.5 -39q1 -13 3 -23 t9.5 -16.5t23 -10t44.5 -3.5q60 0 94 6t54 20.5t31 38.5t25 61q2 6 10.5 6.5t16.5 -2.5q8 -2 13 -6t5 -9q0 -11 -10 -55.5t-27 -102.5q-2 -6 -6.5 -10.5t-12.5 -4.5q-12 0 -50 0.5t-86 1.5q-48 0 -96.5 0.5t-82.5 0.5q-31 0 -57 -0.5t-48 -0.5q-22 -1 -39 -1.5t-31 -0.5 q-9 0 -10.5 3t-1.5 16q0 14 4 17t22 5q38 3 47 21t11 45q1 18 2 48t1.5 63.5t0.5 65.5v55zM435 829q10 0 20.5 -5t19.5 -13t14.5 -19t5.5 -24t-6 -24t-15 -19t-19.5 -12.5t-20.5 -4.5q-21 0 -41 17.5t-20 42.5q0 26 20 43.5t42 17.5zM219 829q21 0 40.5 -18t19.5 -43 q0 -13 -5.5 -24t-14.5 -19t-20 -12.5t-21 -4.5q-21 0 -41 17.5t-20 42.5q0 26 20 43.5t42 17.5z" />
<glyph unicode="&#xcc;" horiz-adv-x="389" d="M125 406v37t-1 46.5t-2.5 44.5t-4.5 30q-3 10 -7.5 15.5t-13 8.5t-22.5 4t-37 3q-11 1 -13 4.5t-2 17.5t3 17t14 3q18 0 60 -1t94 -1q19 0 39.5 0.5t39.5 0.5q20 0 36.5 0.5t27.5 0.5h19q8 0 10 -3.5t2 -10.5q0 -19 -3 -23t-20 -6q-39 -2 -55 -14t-21 -49 q-2 -12 -2.5 -37t-1 -53.5t-0.5 -56.5v-44q0 -97 1 -162t5 -93q4 -21 13 -33t40 -14h31q8 0 9.5 -3t1.5 -14q0 -14 -1 -18t-9 -4q-11 0 -32 0.5t-47 0.5t-53 0.5t-50 0.5q-42 0 -75.5 -1t-64.5 -1q-5 0 -8 3.5t-3 17.5q0 13 5 15.5t25 4.5q20 1 33 7t21 16.5t11 27t4 39.5 q1 27 2 63t1.5 74t0.5 74v65zM130 871q13 0 20.5 -4.5t27.5 -26.5q13 -15 29 -31.5t30.5 -32.5t27 -29t20.5 -21q2 -1 10 -9.5t8 -9.5q0 -3 -3.5 -3.5t-5.5 -0.5q-23 0 -31 1t-21 7q-6 2 -21.5 10.5t-35.5 19.5t-42.5 23t-42 23t-33 19t-16.5 10q-8 5 -15.5 11.5t-7.5 14.5 q0 5 4 9t20 8q6 1 17 3t23 4t22.5 3.5t15.5 1.5z" />
<glyph unicode="&#xcd;" horiz-adv-x="389" d="M125 406v37t-1 46.5t-2.5 44.5t-4.5 30q-3 10 -7.5 15.5t-13 8.5t-22.5 4t-37 3q-11 1 -13 4.5t-2 17.5t3 17t14 3q18 0 60 -1t94 -1q19 0 39.5 0.5t39.5 0.5q20 0 36.5 0.5t27.5 0.5h19q8 0 10 -3.5t2 -10.5q0 -19 -3 -23t-20 -6q-39 -2 -55 -14t-21 -49 q-2 -12 -2.5 -37t-1 -53.5t-0.5 -56.5v-44q0 -97 1 -162t5 -93q4 -21 13 -33t40 -14h31q8 0 9.5 -3t1.5 -14q0 -14 -1 -18t-9 -4q-11 0 -32 0.5t-47 0.5t-53 0.5t-50 0.5q-42 0 -75.5 -1t-64.5 -1q-5 0 -8 3.5t-3 17.5q0 13 5 15.5t25 4.5q20 1 33 7t21 16.5t11 27t4 39.5 q1 27 2 63t1.5 74t0.5 74v65zM286 871q6 0 18 -1.5t24.5 -4t23.5 -4.5t16 -3q7 -2 13.5 -5t6.5 -10q0 -12 -14 -22t-23 -15q-47 -26 -75 -41t-44.5 -24.5t-26 -14.5t-18.5 -9q-17 -9 -26 -12t-17 -3h-7t-10 0.5t-9 1t-4 2.5t2 4.5t12 12.5q13 13 29 30t32.5 34.5t32 34.5 t28.5 31q11 11 16.5 14.5t19.5 3.5z" />
<glyph unicode="&#xce;" horiz-adv-x="389" d="M125 406v37t-1 46.5t-2.5 44.5t-4.5 30q-3 10 -7.5 15.5t-13 8.5t-22.5 4t-37 3q-11 1 -13 4.5t-2 17.5t3 17t14 3q18 0 60 -1t94 -1q19 0 39.5 0.5t39.5 0.5q20 0 36.5 0.5t27.5 0.5h19q8 0 10 -3.5t2 -10.5q0 -19 -3 -23t-20 -6q-39 -2 -55 -14t-21 -49 q-2 -12 -2.5 -37t-1 -53.5t-0.5 -56.5v-44q0 -97 1 -162t5 -93q4 -21 13 -33t40 -14h31q8 0 9.5 -3t1.5 -14q0 -14 -1 -18t-9 -4q-11 0 -32 0.5t-47 0.5t-53 0.5t-50 0.5q-42 0 -75.5 -1t-64.5 -1q-5 0 -8 3.5t-3 17.5q0 13 5 15.5t25 4.5q20 1 33 7t21 16.5t11 27t4 39.5 q1 27 2 63t1.5 74t0.5 74v65zM192 788q-7 -6 -26.5 -22t-40.5 -32.5t-39 -29t-23 -12.5q-7 0 -17.5 10t-10.5 14q0 2 4 7t9 11t10 11.5t7 8.5q19 21 39.5 46.5t37.5 48.5q16 21 26.5 28.5t25.5 7.5q9 0 15.5 -2t12.5 -7t13 -13.5t18 -22.5l15 -18t21 -25t21.5 -24.5 t16.5 -17.5l6.5 -6.5t9 -9.5t8 -9.5t3.5 -6.5t-3 -6t-7 -8.5t-8.5 -7.5t-6.5 -3t-6.5 2t-13 7.5t-23.5 15.5t-38 26z" />
<glyph unicode="&#xcf;" horiz-adv-x="389" d="M125 406v37t-1 46.5t-2.5 44.5t-4.5 30q-3 10 -7.5 15.5t-13 8.5t-22.5 4t-37 3q-11 1 -13 4.5t-2 17.5t3 17t14 3q18 0 60 -1t94 -1q19 0 39.5 0.5t39.5 0.5q20 0 36.5 0.5t27.5 0.5h19q8 0 10 -3.5t2 -10.5q0 -19 -3 -23t-20 -6q-39 -2 -55 -14t-21 -49 q-2 -12 -2.5 -37t-1 -53.5t-0.5 -56.5v-44q0 -97 1 -162t5 -93q4 -21 13 -33t40 -14h31q8 0 9.5 -3t1.5 -14q0 -14 -1 -18t-9 -4q-11 0 -32 0.5t-47 0.5t-53 0.5t-50 0.5q-42 0 -75.5 -1t-64.5 -1q-5 0 -8 3.5t-3 17.5q0 13 5 15.5t25 4.5q20 1 33 7t21 16.5t11 27t4 39.5 q1 27 2 63t1.5 74t0.5 74v65zM292 829q21 0 40.5 -18t19.5 -43q0 -13 -5.5 -24t-14.5 -19t-20 -12.5t-21 -4.5q-21 0 -41 17.5t-20 42.5q0 26 20 43.5t42 17.5zM98 829q10 0 21 -5t20 -13t14.5 -19.5t5.5 -23.5q0 -13 -6 -24t-15 -19t-20 -12.5t-21 -4.5t-21 4.5t-20 12.5 t-14.5 19t-5.5 24t5.5 24t14.5 19.5t20 13t22 4.5z" />
<glyph unicode="&#xd0;" horiz-adv-x="796" d="M265 297v-60q0 -32 1 -62.5t2.5 -55t4.5 -35.5q5 -21 28.5 -28.5t56.5 -7.5q115 0 179 72.5t64 206.5q0 22 -3 52t-12.5 60.5t-27 60t-46.5 50.5q-21 15 -57.5 28.5t-103.5 13.5q-27 0 -43 -3.5t-24.5 -10t-11.5 -16t-4 -21.5q-1 -9 -1.5 -35.5t-1 -56.5t-0.5 -58v-40 h172q8 0 9 -4v-31q0 -14 -0.5 -17t-5.5 -3zM36 297q-2 1 -2 17v30q0 6 1 7.5t6 1.5t17 -0.5t25 -0.5t24.5 -0.5t16.5 -0.5l1 54v59t-0.5 38t-1.5 25t-2 19q-2 17 -6.5 26.5t-13 14.5t-20.5 6.5t-30 3.5q-10 1 -11.5 4t-1.5 17q0 9 0.5 15.5t8.5 6.5q12 0 42 -2t92 -2 q17 0 43 0.5t56.5 1t62.5 1.5t61 1q79 0 143.5 -19t110.5 -56.5t70.5 -95t24.5 -133.5q0 -62 -14 -109.5t-36 -82t-49 -57.5t-52.5 -37.5t-46.5 -22t-31 -9.5q-49 -13 -98 -16.5t-96 -3.5q-17 0 -40.5 0.5t-47.5 0.5q-23 0 -44 0.5t-34 0.5q-14 0 -32 -0.5t-36 -0.5h-33h-20 q-8 0 -9.5 5t-1.5 13q0 14 2 17t15 5q26 4 43.5 11.5t23.5 36.5q2 11 3.5 23.5t2.5 35t1.5 58.5t0.5 93h-88z" />
<glyph unicode="&#xd1;" horiz-adv-x="815" d="M630 416q0 15 -0.5 36.5t-1.5 43.5t-3.5 41.5t-6.5 29.5q-6 17 -22.5 23t-58.5 8q-10 1 -11.5 4t-1.5 18q0 8 3 12.5t13 4.5q7 0 26 -0.5t39 -0.5q21 0 39 -0.5t25 -0.5t25.5 0.5t38.5 0.5t38 0.5t24 0.5q8 0 9.5 -3.5t1.5 -17.5q0 -12 -1 -15t-8 -4q-23 -3 -39.5 -6.5 t-28 -13.5t-17.5 -29t-8 -53q-1 -17 -2.5 -61t-3 -98t-2.5 -111.5t-1 -101.5v-23t0.5 -29t1 -29.5t0.5 -23.5v-6q0 -5 -10 -9.5t-37 -16.5q-5 -2 -7.5 0t-6.5 7q-22 27 -40 48.5t-39.5 44.5t-49 51.5t-67.5 70.5q-8 8 -33 35t-56 60.5t-61 66.5t-48 52l-17.5 17.5 t-26.5 29.5q-1 -16 -1.5 -36.5t-0.5 -41.5v-40v-29q0 -95 0.5 -149t4.5 -82t12.5 -37t23.5 -12q4 -1 13 -1.5t19.5 -1t20 -1.5t12.5 -2q3 -2 3.5 -8t0.5 -11q0 -9 -2 -13.5t-10 -4.5q-17 0 -57 1t-81 1q-7 0 -24.5 -0.5t-37.5 -0.5t-37 -0.5t-23 -0.5q-5 0 -8.5 2.5 t-3.5 12.5q0 12 1 18t9 7q23 2 38 5.5t25 14t15 30t8 54.5q1 13 2.5 43t3 68t2.5 79t2 76t1.5 58.5t0.5 27.5q0 28 -4.5 46.5t-15 29.5t-27 16t-40.5 7q-6 1 -10 4t-4 16q0 14 4 18.5t12 4.5q13 0 40 -2t50 -2q25 0 47.5 2t39.5 2q8 0 15 -1t11 -9q14 -26 48.5 -65t84.5 -92 q10 -10 29.5 -31t44.5 -46.5t52 -53.5t51.5 -53.5t43.5 -45.5t28 -29v205zM345 852q12 0 21.5 -1.5t21 -5.5t25 -10t33.5 -15q26 -11 41 -16.5t35 -5.5t31.5 7.5t25.5 24.5q6 8 8 8q8 -3 18.5 -8t10.5 -7t-9 -18t-23 -33q-17 -21 -32 -33t-27.5 -18t-23.5 -7t-18 -1 q-24 0 -44.5 7.5t-46.5 20.5q-17 9 -38.5 17.5t-46.5 8.5q-22 0 -32.5 -8.5t-18.5 -19.5q-2 -2 -5.5 -7.5t-5.5 -5.5l-16 8l-13 8q0 1 8 18t24 37.5t40.5 37.5t56.5 17z" />
<glyph unicode="&#xd2;" horiz-adv-x="815" d="M316 871q6 0 10.5 -0.5t9 -3.5t11 -9t17.5 -18q14 -16 31 -34t32.5 -34.5t27.5 -29t18 -18.5q4 -5 9.5 -10.5t5.5 -6.5q0 -3 -3.5 -3.5t-5.5 -0.5h-18t-12.5 1t-10 2.5t-10.5 4.5q-6 2 -21.5 10.5t-36 19.5t-42.5 23t-41.5 23t-33.5 19t-17 10q-8 5 -15 11.5t-7 14.5 q0 5 3.5 9t20.5 8q7 1 18 3t22.5 4t21.5 3.5t16 1.5zM195 344q0 -74 18.5 -130t50 -94t72 -57.5t85.5 -19.5q39 0 75 14.5t63.5 44.5t44 77t16.5 112q0 66 -17 121.5t-47 95t-71.5 62t-90.5 22.5q-37 0 -70.5 -12t-57.5 -34t-38.5 -51.5t-21.5 -58.5t-9 -54t-2 -38zM43 319 q0 61 17.5 109.5t47 85t68 62t80.5 41.5t85 23.5t81 7.5q83 0 148 -25t110 -68.5t68.5 -102t23.5 -125.5q0 -31 -7 -68t-24 -74.5t-45 -73t-69.5 -63t-98.5 -44t-132 -16.5q-94 0 -161 27t-109.5 72.5t-62.5 105.5t-20 126z" />
<glyph unicode="&#xd3;" horiz-adv-x="815" d="M527 871q6 0 18 -2t25 -4t23.5 -4t15.5 -3q7 -2 13.5 -5t6.5 -10q0 -12 -14 -22t-23 -15q-47 -26 -74.5 -41l-44 -24t-26 -14t-19.5 -10q-20 -11 -28.5 -13t-14.5 -2h-7t-10 0.5t-9 1t-4 2.5t8.5 10.5l10.5 10.5q12 13 27.5 29t31 33.5t31 34t28.5 29.5q11 11 16.5 14.5 t18.5 3.5zM195 344q0 -74 18.5 -130t50 -94t72 -57.5t85.5 -19.5q39 0 75 14.5t63.5 44.5t44 77t16.5 112q0 66 -17 121.5t-47 95t-71.5 62t-90.5 22.5q-37 0 -70.5 -12t-57.5 -34t-38.5 -51.5t-21.5 -58.5t-9 -54t-2 -38zM43 319q0 61 17.5 109.5t47 85t68 62t80.5 41.5 t85 23.5t81 7.5q83 0 148 -25t110 -68.5t68.5 -102t23.5 -125.5q0 -31 -7 -68t-24 -74.5t-45 -73t-69.5 -63t-98.5 -44t-132 -16.5q-94 0 -161 27t-109.5 72.5t-62.5 105.5t-20 126z" />
<glyph unicode="&#xd4;" horiz-adv-x="815" d="M405 788q-7 -6 -28 -21.5t-44 -32t-43 -29.5t-25 -13q-7 0 -17.5 10t-10.5 14q0 2 4 7t9.5 11t10.5 11.5t8 8.5q27 29 47 52.5t35 42.5q17 21 28.5 28.5t27.5 7.5q9 0 16 -2t13.5 -7t14 -13.5t19.5 -22.5q6 -7 16.5 -19t22.5 -24.5t23.5 -24l17.5 -17.5q2 -2 7 -6.5 t9.5 -9.5t8 -9.5t3.5 -6.5t-3 -6t-7 -8t-8.5 -7.5t-6.5 -3.5q-5 0 -23 11t-64 40q-16 10 -36 23t-25 16zM195 344q0 -74 18.5 -130t50 -94t72 -57.5t85.5 -19.5q39 0 75 14.5t63.5 44.5t44 77t16.5 112q0 66 -17 121.5t-47 95t-71.5 62t-90.5 22.5q-37 0 -70.5 -12 t-57.5 -34t-38.5 -51.5t-21.5 -58.5t-9 -54t-2 -38zM43 319q0 61 17.5 109.5t47 85t68 62t80.5 41.5t85 23.5t81 7.5q83 0 148 -25t110 -68.5t68.5 -102t23.5 -125.5q0 -31 -7 -68t-24 -74.5t-45 -73t-69.5 -63t-98.5 -44t-132 -16.5q-94 0 -161 27t-109.5 72.5t-62.5 105.5 t-20 126z" />
<glyph unicode="&#xd5;" horiz-adv-x="815" d="M337 852q11 0 20.5 -1.5t20.5 -5t25 -10t34 -15.5q26 -12 41.5 -17t34.5 -5q20 0 31.5 7.5t25.5 24.5q6 8 9 8q1 0 7 -3t13.5 -6.5t7.5 -5.5t-9 -18t-23 -33q-16 -21 -31 -33t-28 -18t-23.5 -7t-18.5 -1q-24 0 -44.5 7.5t-46.5 20.5q-17 9 -38 17.5t-47 8.5q-20 0 -29 -6 t-14 -11q-1 -2 -4 -5.5t-6 -8t-5.5 -7.5l-2.5 -3q-1 0 -9.5 4t-10.5 5t-5.5 3t-3.5 4q0 1 8 18t24 37.5t40.5 37.5t56.5 17zM195 344q0 -74 18.5 -130t50 -94t72 -57.5t85.5 -19.5q39 0 75 14.5t63.5 44.5t44 77t16.5 112q0 66 -17 121.5t-47 95t-71.5 62t-90.5 22.5 q-37 0 -70.5 -12t-57.5 -34t-38.5 -51.5t-21.5 -58.5t-9 -54t-2 -38zM43 319q0 61 17.5 109.5t47 85t68 62t80.5 41.5t85 23.5t81 7.5q83 0 148 -25t110 -68.5t68.5 -102t23.5 -125.5q0 -31 -7 -68t-24 -74.5t-45 -73t-69.5 -63t-98.5 -44t-132 -16.5q-94 0 -161 27 t-109.5 72.5t-62.5 105.5t-20 126z" />
<glyph unicode="&#xd6;" horiz-adv-x="815" d="M516 829q10 0 21 -5t20 -13t14.5 -19.5t5.5 -23.5q0 -13 -6 -24t-15 -19t-20 -12.5t-21 -4.5t-21 4.5t-20 13t-14.5 19.5t-5.5 23q0 26 20 43.5t42 17.5zM300 829q21 0 40.5 -18t19.5 -43q0 -13 -5.5 -24t-14.5 -19t-20 -12.5t-21 -4.5t-21 4.5t-20 12.5t-14.5 19 t-5.5 24t5.5 24t14.5 19.5t20 13t22 4.5zM195 344q0 -74 18.5 -130t50 -94t72 -57.5t85.5 -19.5q39 0 75 14.5t63.5 44.5t44 77t16.5 112q0 66 -17 121.5t-47 95t-71.5 62t-90.5 22.5q-37 0 -70.5 -12t-57.5 -34t-38.5 -51.5t-21.5 -58.5t-9 -54t-2 -38zM43 319 q0 61 17.5 109.5t47 85t68 62t80.5 41.5t85 23.5t81 7.5q83 0 148 -25t110 -68.5t68.5 -102t23.5 -125.5q0 -31 -7 -68t-24 -74.5t-45 -73t-69.5 -63t-98.5 -44t-132 -16.5q-94 0 -161 27t-109.5 72.5t-62.5 105.5t-20 126z" />
<glyph unicode="&#xd7;" d="M259 371q13 12 28.5 28t32 32.5t32.5 32t28 28.5l3.5 3.5l7.5 7.5t7.5 7l3.5 3q1 0 9.5 -7.5t18.5 -17t17.5 -18t7.5 -9.5q0 -2 -6 -8l-8 -8q-14 -13 -30.5 -29.5l-34 -34t-34 -34.5t-29.5 -30l128 -128q2 -2 8 -7.5t6 -7.5q0 -1 -7.5 -9.5t-17.5 -18t-18.5 -17 t-9.5 -7.5l-3.5 3t-8 7t-8 8t-4.5 5l-119 119q-12 -13 -28 -28.5t-32.5 -32t-32 -32.5t-28.5 -28l-4.5 -4.5l-7 -7t-7 -6.5l-3.5 -3q-1 0 -9.5 7.5t-18 17t-17.5 18t-8 9.5q0 2 6 7.5t9 7.5q13 13 29.5 30t34 34.5l34 34t30.5 29.5q-8 7 -28.5 28t-42.5 42.5t-39 39 t-18 18.5q-3 2 -9 8t-6 8q0 1 8 9.5t17.5 18t18 17t9.5 7.5l3.5 -3t7.5 -7l7.5 -7.5l3.5 -3.5z" />
<glyph unicode="&#xd8;" horiz-adv-x="815" d="M277 101q10 -9 22.5 -19.5t30 -19.5t39.5 -15t51 -6q42 0 79.5 15t65 46t44 78t16.5 111q0 52 -12 101.5t-39 94.5zM541 530q-8 8 -20.5 19t-30.5 21t-42 17t-54 7q-14 0 -34 -2.5t-42.5 -11t-44.5 -24.5t-40 -43q-13 -19 -21 -42t-13 -46.5t-7 -46t-2 -40.5t1.5 -40.5 t7 -48t16 -53t28.5 -54.5q4 5 21 27t41.5 54t54 69.5t58 74.5t53.5 70t42 54zM162 55q-9 7 -23 19t-31 34q-28 38 -46.5 90.5t-18.5 119.5q0 62 17.5 110.5t47 85t68 62.5t80.5 42t84.5 23t79.5 7q50 0 97.5 -10t91.5 -33l53 69q4 5 15 5h44q20 0 14 -7l-79 -96 q57 -45 86.5 -110.5t29.5 -137.5q0 -52 -18.5 -111.5t-62 -110.5t-115 -84.5t-177.5 -33.5q-12 0 -33 1t-47.5 5t-55 11.5t-55.5 21.5q-4 -5 -13.5 -17t-19.5 -25t-18 -23.5t-9 -11.5q-2 -2 -13.5 -2.5t-20.5 -0.5h-14q-12 0 -16.5 1t-4.5 3z" />
<glyph unicode="&#xd9;" horiz-adv-x="759" d="M411 71q10 0 34 2t51 11.5t51 29t35 53.5q4 13 6.5 30t4 50t2 88.5t-0.5 144.5q0 41 -3 63.5t-12 33.5t-25.5 13.5t-44.5 4.5q-14 2 -16.5 4t-2.5 16q1 16 5.5 18.5t14.5 2.5q11 0 43.5 -1.5t83.5 -1.5q28 0 56 1.5t47 1.5q8 0 10.5 -4t2.5 -15q0 -15 -4 -18t-12 -5 q-23 -3 -36 -11t-19 -26t-7.5 -49.5t-2.5 -80.5q-1 -66 -2 -111.5t-3 -78t-7 -56t-13 -46.5q-16 -45 -47.5 -73.5t-70 -45t-80 -22.5t-76.5 -6q-50 0 -94.5 9t-79 28.5t-58 50t-31.5 73.5q-3 15 -4.5 32t-2 46.5t-1 75.5t-0.5 119v48v35t-0.5 24t-1.5 18q-2 17 -7 26.5 t-13.5 14t-20 6t-25.5 2.5q-8 1 -9.5 4.5t-1.5 15.5t2.5 16t9.5 4q37 0 73.5 -1t74.5 -1q36 0 72 1t72 1q12 0 15 -3t3 -14q0 -17 -3 -20.5t-16 -4.5q-36 -3 -54.5 -9t-23.5 -32q-2 -12 -3.5 -45t-2 -71.5t-0.5 -74.5v-53q0 -41 1.5 -71t5.5 -53t11.5 -40t19.5 -30 q21 -23 59 -33.5t72 -10.5zM288 871q6 0 10.5 -0.5t9.5 -3.5t11 -9.5t17 -17.5q9 -10 23.5 -25.5t29.5 -31.5t29 -31t24 -25q1 0 4 -3t6.5 -7t6 -7l2.5 -3q0 -3 -4 -3.5t-5 -0.5h-19t-12.5 1t-10 2.5t-10.5 4.5q-4 2 -19.5 10t-36.5 19t-44.5 24t-44.5 25t-37 21.5t-21 13.5 q-4 3 -7.5 8t-3.5 10t4 9t19 7q2 1 12.5 3t23 4l25 4t18.5 2z" />
<glyph unicode="&#xda;" horiz-adv-x="759" d="M411 71q10 0 34 2t51 11.5t51 29t35 53.5q4 13 6.5 30t4 50t2 88.5t-0.5 144.5q0 41 -3 63.5t-12 33.5t-25.5 13.5t-44.5 4.5q-14 2 -16.5 4t-2.5 16q1 16 5.5 18.5t14.5 2.5q11 0 43.5 -1.5t83.5 -1.5q28 0 56 1.5t47 1.5q8 0 10.5 -4t2.5 -15q0 -15 -4 -18t-12 -5 q-23 -3 -36 -11t-19 -26t-7.5 -49.5t-2.5 -80.5q-1 -66 -2 -111.5t-3 -78t-7 -56t-13 -46.5q-16 -45 -47.5 -73.5t-70 -45t-80 -22.5t-76.5 -6q-50 0 -94.5 9t-79 28.5t-58 50t-31.5 73.5q-3 15 -4.5 32t-2 46.5t-1 75.5t-0.5 119v48v35t-0.5 24t-1.5 18q-2 17 -7 26.5 t-13.5 14t-20 6t-25.5 2.5q-8 1 -9.5 4.5t-1.5 15.5t2.5 16t9.5 4q37 0 73.5 -1t74.5 -1q36 0 72 1t72 1q12 0 15 -3t3 -14q0 -17 -3 -20.5t-16 -4.5q-36 -3 -54.5 -9t-23.5 -32q-2 -12 -3.5 -45t-2 -71.5t-0.5 -74.5v-53q0 -41 1.5 -71t5.5 -53t11.5 -40t19.5 -30 q21 -23 59 -33.5t72 -10.5zM499 871q6 0 18 -1.5t24.5 -4t23.5 -4.5t16 -3q6 -2 13 -5t7 -10q0 -6 -4 -11.5t-10 -10.5t-12.5 -8.5t-10.5 -6.5q-47 -26 -75 -41t-44.5 -24.5t-26 -14.5t-18.5 -9q-18 -10 -26.5 -12.5t-15.5 -2.5h-8q-5 0 -10 0.5t-9 1t-4 2.5t2 4.5t13 12.5 q13 13 28.5 30t32 34.5t32.5 34.5t29 31q11 11 16.5 14.5t18.5 3.5z" />
<glyph unicode="&#xdb;" horiz-adv-x="759" d="M411 71q10 0 34 2t51 11.5t51 29t35 53.5q4 13 6.5 30t4 50t2 88.5t-0.5 144.5q0 41 -3 63.5t-12 33.5t-25.5 13.5t-44.5 4.5q-14 2 -16.5 4t-2.5 16q1 16 5.5 18.5t14.5 2.5q11 0 43.5 -1.5t83.5 -1.5q28 0 56 1.5t47 1.5q8 0 10.5 -4t2.5 -15q0 -15 -4 -18t-12 -5 q-23 -3 -36 -11t-19 -26t-7.5 -49.5t-2.5 -80.5q-1 -66 -2 -111.5t-3 -78t-7 -56t-13 -46.5q-16 -45 -47.5 -73.5t-70 -45t-80 -22.5t-76.5 -6q-50 0 -94.5 9t-79 28.5t-58 50t-31.5 73.5q-3 15 -4.5 32t-2 46.5t-1 75.5t-0.5 119v48v35t-0.5 24t-1.5 18q-2 17 -7 26.5 t-13.5 14t-20 6t-25.5 2.5q-8 1 -9.5 4.5t-1.5 15.5t2.5 16t9.5 4q37 0 73.5 -1t74.5 -1q36 0 72 1t72 1q12 0 15 -3t3 -14q0 -17 -3 -20.5t-16 -4.5q-36 -3 -54.5 -9t-23.5 -32q-2 -12 -3.5 -45t-2 -71.5t-0.5 -74.5v-53q0 -41 1.5 -71t5.5 -53t11.5 -40t19.5 -30 q21 -23 59 -33.5t72 -10.5zM399 788q-6 -5 -26.5 -20.5t-44 -32.5t-43.5 -30t-25 -13q-7 0 -17.5 10t-10.5 14q0 2 4 7t9 11t10.5 11.5t7.5 8.5q18 20 39.5 44t43.5 51q17 21 28 28.5t28 7.5q9 0 16 -2t13.5 -7t14 -13.5t19.5 -22.5q5 -6 16 -18t23 -25t23 -24.5t17 -17.5 q2 -2 7 -6.5t10 -9.5t8.5 -9.5t3.5 -6.5t-3 -6t-7 -8t-8.5 -7.5t-6.5 -3.5q-3 0 -9.5 3.5t-14.5 8t-15.5 9t-10.5 6.5q-6 4 -20 13t-30 19t-30 19t-19 12z" />
<glyph unicode="&#xdc;" horiz-adv-x="759" d="M411 71q10 0 34 2t51 11.5t51 29t35 53.5q4 13 6.5 30t4 50t2 88.5t-0.5 144.5q0 41 -3 63.5t-12 33.5t-25.5 13.5t-44.5 4.5q-14 2 -16.5 4t-2.5 16q1 16 5.5 18.5t14.5 2.5q11 0 43.5 -1.5t83.5 -1.5q28 0 56 1.5t47 1.5q8 0 10.5 -4t2.5 -15q0 -15 -4 -18t-12 -5 q-23 -3 -36 -11t-19 -26t-7.5 -49.5t-2.5 -80.5q-1 -66 -2 -111.5t-3 -78t-7 -56t-13 -46.5q-16 -45 -47.5 -73.5t-70 -45t-80 -22.5t-76.5 -6q-50 0 -94.5 9t-79 28.5t-58 50t-31.5 73.5q-3 15 -4.5 32t-2 46.5t-1 75.5t-0.5 119v48v35t-0.5 24t-1.5 18q-2 17 -7 26.5 t-13.5 14t-20 6t-25.5 2.5q-8 1 -9.5 4.5t-1.5 15.5t2.5 16t9.5 4q37 0 73.5 -1t74.5 -1q36 0 72 1t72 1q12 0 15 -3t3 -14q0 -17 -3 -20.5t-16 -4.5q-36 -3 -54.5 -9t-23.5 -32q-2 -12 -3.5 -45t-2 -71.5t-0.5 -74.5v-53q0 -41 1.5 -71t5.5 -53t11.5 -40t19.5 -30 q21 -23 59 -33.5t72 -10.5zM516 829q22 0 41.5 -18t19.5 -43q0 -13 -5.5 -24t-14.5 -19t-20 -12.5t-21 -4.5q-21 0 -41 17t-20 43t20 43.5t41 17.5zM300 829q21 0 41 -17.5t20 -43.5q0 -13 -6 -24t-15 -19t-20 -12.5t-21 -4.5t-20.5 4.5t-19.5 12.5t-14.5 19t-5.5 24 q0 26 20 43.5t41 17.5z" />
<glyph unicode="&#xdd;" horiz-adv-x="648" d="M475 507q18 29 24.5 42.5t6.5 21.5q0 15 -14 18.5t-28 4.5q-16 2 -19.5 3.5t-3.5 12.5q0 16 2 21t11 5q17 0 40.5 -1t61.5 -1q32 0 59 1t38 1q6 0 7.5 -4t1.5 -11q0 -14 -1.5 -19t-9.5 -7q-12 -4 -23 -9.5t-30.5 -25.5t-51 -60.5t-83.5 -112.5q-5 -8 -16.5 -23.5t-23 -32 t-21 -30t-10.5 -16.5q-2 -3 -2 -17v-34v-35t0.5 -48t2 -47t3.5 -31q6 -26 26 -31t54 -5q5 0 6 -4.5t1 -15.5t-1.5 -14.5t-9.5 -3.5q-19 0 -60 1t-85 1q-14 0 -37 -0.5t-47 -0.5t-46.5 -0.5t-35.5 -0.5q-5 0 -5 22q0 11 3.5 13.5t18.5 4.5q28 3 43 8.5t22 24.5t8 58t1 108 q0 9 -0.5 15t-3 13t-7.5 15.5t-14 22.5q-38 62 -77 122t-83 119q-12 17 -20 26.5t-15 14.5t-14.5 7t-19.5 5q-5 1 -6 4.5t-1 14.5t2 15t6 4q13 0 46.5 -1t83.5 -1q20 0 41.5 0.5t39.5 0.5t31.5 0.5t18.5 0.5q10 0 14 -2.5t4 -13.5q0 -14 -3 -19.5t-17 -5.5q-10 0 -22 -2 t-12 -16q0 -11 9 -29t16 -30t15 -24.5t20 -32.5t31 -50t48 -76zM444 871q6 0 17.5 -1.5t24 -4t23.5 -4.5t17 -3q6 -2 13 -5t7 -10q0 -12 -14.5 -22t-23.5 -15q-46 -26 -74 -41t-44.5 -24.5t-26 -14.5t-18.5 -9q-18 -10 -26.5 -12.5t-16.5 -2.5h-7t-10.5 0.5t-9.5 1t-4 2.5 t2.5 4.5l12.5 12.5q13 13 29 30t32.5 34.5t32 34.5t28.5 31q12 11 17 14.5t19 3.5z" />
<glyph unicode="&#xde;" horiz-adv-x="630" d="M265 206q10 -1 22 -1.5t26 -0.5q69 0 99 38.5t30 102.5q0 46 -13.5 72t-33 38.5t-41.5 15t-40 2.5q-17 0 -26.5 -0.5t-14.5 -3.5t-6 -8.5t-1 -15.5l-1 -36v-203zM125 338v48q0 29 -0.5 59t-1.5 56.5t-2 43.5q-2 18 -7 28t-14.5 15t-23 6t-32.5 1q-5 0 -6 7.5t-1 15.5 t2.5 13t17.5 5q14 0 45.5 -1t96.5 -1q54 0 95 1t60 1q8 0 9 -5t1 -15q0 -14 -3.5 -16t-9.5 -2q-27 0 -43 -2t-24.5 -10.5t-12 -24.5t-4.5 -43q36 1 60 1.5t41 0.5q38 0 65.5 -4t47 -10t33 -14t24.5 -17q20 -17 38 -48t18 -79q0 -41 -16.5 -76t-48 -60t-77 -39t-103.5 -14 q-23 0 -44 1t-39 3v-18q0 -38 3 -59.5t12 -32t25 -13t43 -2.5q11 0 13 -3.5t2 -14.5q0 -14 -1 -18t-8 -4q-10 0 -33 0.5t-51 1.5q-28 0 -55 0.5t-44 0.5q-14 0 -32 -0.5t-36 -0.5q-17 -1 -32 -1.5t-22 -0.5q-9 0 -11 4.5t-2 16.5q0 14 4 16.5t20 4.5q12 1 22.5 4t18 10 t12.5 19t7 33q3 23 3.5 70.5t0.5 101.5v60z" />
<glyph unicode="&#xdf;" horiz-adv-x="611" d="M34 354q-7 0 -8.5 6t-1.5 16q0 8 1.5 13t9.5 8l60 24q0 22 1.5 46t8.5 49.5t21.5 51.5t41.5 52q41 39 96 63.5t118 24.5q25 0 53 -5.5t52 -19.5t40 -39.5t16 -65.5q0 -27 -7 -47t-18 -35t-23.5 -25.5t-23.5 -18.5q-32 -24 -49.5 -41.5t-17.5 -42.5q0 -12 3 -20t13 -18 t29.5 -24t52.5 -36q17 -12 33.5 -24.5t29.5 -28.5t21 -37t8 -48q0 -42 -20 -70t-49.5 -44.5t-63.5 -23t-61 -6.5q-15 0 -36 2t-40 10q-8 4 -17 12t-9 23q0 17 12.5 34t31.5 17q11 0 19 -5.5t16 -13.5q15 -14 25 -19t21 -5q16 0 29.5 11.5t13.5 35.5q0 30 -21 51t-58 47 q-24 16 -43 30t-32 29t-19.5 32t-6.5 41q0 20 4.5 34.5t14 27.5t23.5 26t34 30q26 22 41.5 44t15.5 60q0 28 -7 45t-18.5 26.5t-27 13t-33.5 3.5q-32 0 -52.5 -10t-32 -26.5t-16.5 -38t-6 -44.5q-2 -29 -3 -72.5t-1.5 -97.5t-0.5 -117v-130q0 -18 2 -28t6.5 -15.5t11.5 -7.5 t16 -4q11 -2 11 -19q0 -14 -3 -18t-8 -4q-8 0 -17.5 0.5t-22.5 1.5q-13 0 -28 0.5t-35 0.5q-19 0 -36.5 -0.5t-31.5 -0.5q-15 -1 -27 -1.5t-21 -0.5t-11 3.5t-2 15.5q0 17 3 21.5t17 4.5q15 0 23.5 5.5t13 16t6 27t2.5 39.5q1 16 1.5 45.5t0.5 62.5t-0.5 64.5t-0.5 50.5h-57 z" />
<glyph unicode="&#xe0;" horiz-adv-x="500" d="M172 661q4 0 7.5 -1.5t8 -6t11.5 -13t18 -23.5q9 -12 19.5 -27t22 -30.5t22 -30t19.5 -26.5l5 -7t5 -8q0 -2 -8 -2h-12q-8 0 -13 0.5t-9.5 2t-9.5 4t-13 7.5q-11 7 -35 22.5t-49.5 32t-46 30.5t-24.5 18q-14 12 -14 23q0 9 5.5 14t24.5 9q23 6 42.5 9t23.5 3zM281 151 q0 14 -2.5 23.5t-19.5 9.5q-8 0 -31.5 -4t-51.5 -18q-14 -7 -18 -15t-4 -22q0 -35 11 -50t43 -15q18 0 37 4.5t35 11.5zM504 84v-31q0 -6 -1 -9.5t-4 -6.5t-10 -6t-20 -9q-12 -6 -27.5 -12t-32.5 -11t-33.5 -8.5t-29.5 -3.5q-18 0 -29.5 5.5t-18.5 12.5t-10.5 14t-4.5 10 q-11 -5 -26.5 -12t-35.5 -13.5t-44 -11t-50 -4.5q-49 0 -74 27t-25 78q0 22 3.5 38t11 26.5t19 17.5t27.5 12q53 17 102 24.5t92 12.5q0 39 -1 64t-7 39.5t-19.5 20t-38.5 5.5q-2 0 -11 -0.5t-19 -2t-18 -5t-8 -10.5q0 -3 1.5 -10.5t1.5 -9.5q0 -15 -8.5 -19.5t-24.5 -8.5 q-23 -6 -43.5 -8.5t-24.5 -2.5q-14 0 -16.5 8t-2.5 10q0 15 18 39t49 46t72 38t87 16q8 0 20.5 -1t26.5 -4t28.5 -9t26.5 -15q20 -15 28.5 -37.5t8.5 -55.5q0 -11 -1 -36t-1.5 -53t-1.5 -53t-1 -34q0 -38 3.5 -51.5t25.5 -13.5q17 0 34.5 5t31.5 12z" />
<glyph unicode="&#xe1;" horiz-adv-x="500" d="M311 661q3 0 14.5 -2t25 -4.5t25.5 -5t18 -4.5q13 -7 13 -18q0 -6 -2 -11t-11 -12.5t-27 -19t-50 -32.5q-26 -17 -42 -27.5t-25 -16.5t-14 -9l-10 -6q-9 -5 -14 -6t-22 -1h-11q-6 0 -6 2l15 21.5t34.5 48.5t38.5 53t27 36t13.5 12t9.5 2zM281 151q0 14 -2.5 23.5 t-19.5 9.5q-8 0 -31.5 -4t-51.5 -18q-14 -7 -18 -15t-4 -22q0 -35 11 -50t43 -15q18 0 37 4.5t35 11.5zM504 84v-31q0 -6 -1 -9.5t-4 -6.5t-10 -6t-20 -9q-12 -6 -27.5 -12t-32.5 -11t-33.5 -8.5t-29.5 -3.5q-18 0 -29.5 5.5t-18.5 12.5t-10.5 14t-4.5 10q-11 -5 -26.5 -12 t-35.5 -13.5t-44 -11t-50 -4.5q-49 0 -74 27t-25 78q0 22 3.5 38t11 26.5t19 17.5t27.5 12q53 17 102 24.5t92 12.5q0 39 -1 64t-7 39.5t-19.5 20t-38.5 5.5q-2 0 -11 -0.5t-19 -2t-18 -5t-8 -10.5q0 -3 1.5 -10.5t1.5 -9.5q0 -15 -8.5 -19.5t-24.5 -8.5q-23 -6 -43.5 -8.5 t-24.5 -2.5q-14 0 -16.5 8t-2.5 10q0 15 18 39t49 46t72 38t87 16q8 0 20.5 -1t26.5 -4t28.5 -9t26.5 -15q20 -15 28.5 -37.5t8.5 -55.5q0 -11 -1 -36t-1.5 -53t-1.5 -53t-1 -34q0 -38 3.5 -51.5t25.5 -13.5q17 0 34.5 5t31.5 12z" />
<glyph unicode="&#xe2;" horiz-adv-x="500" d="M242 557q-9 -8 -28 -23t-38 -29.5t-34.5 -25.5t-18.5 -11q-5 0 -13 8t-8 13q0 1 3 5t6.5 9t7 9.5t5.5 6.5q6 7 19 25.5t27 38.5t27 38t18 25q4 5 10.5 10t16.5 5q6 0 10.5 -1.5t10.5 -8t15.5 -20.5t25.5 -38q14 -23 30.5 -45l25.5 -34q11 -14 13.5 -17t2.5 -5 q0 -5 -9 -14t-13 -9t-18.5 10.5t-32.5 25t-35 29.5t-26 23zM281 151q0 14 -2.5 23.5t-19.5 9.5q-8 0 -31.5 -4t-51.5 -18q-14 -7 -18 -15t-4 -22q0 -35 11 -50t43 -15q18 0 37 4.5t35 11.5zM504 84v-31q0 -6 -1 -9.5t-4 -6.5t-10 -6t-20 -9q-12 -6 -27.5 -12t-32.5 -11 t-33.5 -8.5t-29.5 -3.5q-18 0 -29.5 5.5t-18.5 12.5t-10.5 14t-4.5 10q-11 -5 -26.5 -12t-35.5 -13.5t-44 -11t-50 -4.5q-49 0 -74 27t-25 78q0 22 3.5 38t11 26.5t19 17.5t27.5 12q53 17 102 24.5t92 12.5q0 39 -1 64t-7 39.5t-19.5 20t-38.5 5.5q-2 0 -11 -0.5t-19 -2 t-18 -5t-8 -10.5q0 -3 1.5 -10.5t1.5 -9.5q0 -15 -8.5 -19.5t-24.5 -8.5q-23 -6 -43.5 -8.5t-24.5 -2.5q-14 0 -16.5 8t-2.5 10q0 15 18 39t49 46t72 38t87 16q8 0 20.5 -1t26.5 -4t28.5 -9t26.5 -15q20 -15 28.5 -37.5t8.5 -55.5q0 -11 -1 -36t-1.5 -53t-1.5 -53t-1 -34 q0 -38 3.5 -51.5t25.5 -13.5q17 0 34.5 5t31.5 12z" />
<glyph unicode="&#xe3;" horiz-adv-x="500" d="M296 498q-19 0 -35 8t-37 21q-17 10 -26.5 16.5t-16 9.5t-10.5 4t-9 1q-16 0 -27 -11.5t-18 -22.5q-2 -3 -6 -9.5t-6 -6.5t-6.5 2.5t-9.5 6t-9 7t-4 5.5t8 16.5t16 28.5q5 8 13.5 20t20 22.5t26 18t31.5 7.5q19 0 35.5 -9t35.5 -21q26 -18 38.5 -21.5t20.5 -3.5 q14 0 24 6.5t21 20.5q2 2 6.5 9.5t6.5 7.5q1 0 5 -2.5t8.5 -5.5t8.5 -6.5t4 -5.5t-6.5 -15t-16.5 -28q-25 -42 -44.5 -56t-41.5 -14zM281 151q0 14 -2.5 23.5t-19.5 9.5q-8 0 -31.5 -4t-51.5 -18q-14 -7 -18 -15t-4 -22q0 -35 11 -50t43 -15q18 0 37 4.5t35 11.5zM504 84 v-31q0 -6 -1 -9.5t-4 -6.5t-10 -6t-20 -9q-12 -6 -27.5 -12t-32.5 -11t-33.5 -8.5t-29.5 -3.5q-18 0 -29.5 5.5t-18.5 12.5t-10.5 14t-4.5 10q-11 -5 -26.5 -12t-35.5 -13.5t-44 -11t-50 -4.5q-49 0 -74 27t-25 78q0 22 3.5 38t11 26.5t19 17.5t27.5 12q53 17 102 24.5 t92 12.5q0 39 -1 64t-7 39.5t-19.5 20t-38.5 5.5q-2 0 -11 -0.5t-19 -2t-18 -5t-8 -10.5q0 -3 1.5 -10.5t1.5 -9.5q0 -15 -8.5 -19.5t-24.5 -8.5q-23 -6 -43.5 -8.5t-24.5 -2.5q-14 0 -16.5 8t-2.5 10q0 15 18 39t49 46t72 38t87 16q8 0 20.5 -1t26.5 -4t28.5 -9t26.5 -15 q20 -15 28.5 -37.5t8.5 -55.5q0 -11 -1 -36t-1.5 -53t-1.5 -53t-1 -34q0 -38 3.5 -51.5t25.5 -13.5q17 0 34.5 5t31.5 12z" />
<glyph unicode="&#xe4;" horiz-adv-x="500" d="M333 613q23 0 40 -18.5t17 -41.5q0 -24 -18.5 -41.5t-40.5 -17.5q-23 0 -42.5 17.5t-19.5 42.5q0 26 20.5 42.5t43.5 16.5zM150 613q23 0 40 -18t17 -42q0 -25 -19 -42t-40 -17q-23 0 -42.5 18t-19.5 42q0 12 5.5 22.5t14.5 19t20.5 13t23.5 4.5zM281 151q0 14 -2.5 23.5 t-19.5 9.5q-8 0 -31.5 -4t-51.5 -18q-14 -7 -18 -15t-4 -22q0 -35 11 -50t43 -15q18 0 37 4.5t35 11.5zM504 84v-31q0 -6 -1 -9.5t-4 -6.5t-10 -6t-20 -9q-12 -6 -27.5 -12t-32.5 -11t-33.5 -8.5t-29.5 -3.5q-18 0 -29.5 5.5t-18.5 12.5t-10.5 14t-4.5 10q-11 -5 -26.5 -12 t-35.5 -13.5t-44 -11t-50 -4.5q-49 0 -74 27t-25 78q0 22 3.5 38t11 26.5t19 17.5t27.5 12q53 17 102 24.5t92 12.5q0 39 -1 64t-7 39.5t-19.5 20t-38.5 5.5q-2 0 -11 -0.5t-19 -2t-18 -5t-8 -10.5q0 -3 1.5 -10.5t1.5 -9.5q0 -15 -8.5 -19.5t-24.5 -8.5q-23 -6 -43.5 -8.5 t-24.5 -2.5q-14 0 -16.5 8t-2.5 10q0 15 18 39t49 46t72 38t87 16q8 0 20.5 -1t26.5 -4t28.5 -9t26.5 -15q20 -15 28.5 -37.5t8.5 -55.5q0 -11 -1 -36t-1.5 -53t-1.5 -53t-1 -34q0 -38 3.5 -51.5t25.5 -13.5q17 0 34.5 5t31.5 12z" />
<glyph unicode="&#xe5;" horiz-adv-x="500" d="M243 516q13 0 22.5 5.5t15.5 14.5t9 20t3 21q0 21 -12 41t-38 20t-37.5 -20t-11.5 -41q0 -9 2.5 -20t8.5 -20t15 -15t23 -6zM243 480q-23 0 -44 6.5t-37.5 19t-26 30.5t-9.5 41q0 22 9.5 40t26 31t37.5 19.5t44 6.5q24 0 45 -6.5t37.5 -19.5t26 -31t9.5 -40 q0 -23 -9.5 -41t-26 -30.5t-38 -19t-44.5 -6.5zM281 151q0 14 -2.5 23.5t-19.5 9.5q-8 0 -31.5 -4t-51.5 -18q-14 -7 -18 -15t-4 -22q0 -35 11 -50t43 -15q18 0 37 4.5t35 11.5zM504 84v-31q0 -6 -1 -9.5t-4 -6.5t-10 -6t-20 -9q-12 -6 -27.5 -12t-32.5 -11t-33.5 -8.5 t-29.5 -3.5q-18 0 -29.5 5.5t-18.5 12.5t-10.5 14t-4.5 10q-11 -5 -26.5 -12t-35.5 -13.5t-44 -11t-50 -4.5q-49 0 -74 27t-25 78q0 22 3.5 38t11 26.5t19 17.5t27.5 12q53 17 102 24.5t92 12.5q0 39 -1 64t-7 39.5t-19.5 20t-38.5 5.5q-2 0 -11 -0.5t-19 -2t-18 -5 t-8 -10.5q0 -3 1.5 -10.5t1.5 -9.5q0 -15 -8.5 -19.5t-24.5 -8.5q-23 -6 -43.5 -8.5t-24.5 -2.5q-14 0 -16.5 8t-2.5 10q0 15 18 39t49 46t72 38t87 16q8 0 20.5 -1t26.5 -4t28.5 -9t26.5 -15q20 -15 28.5 -37.5t8.5 -55.5q0 -11 -1 -36t-1.5 -53t-1.5 -53t-1 -34 q0 -38 3.5 -51.5t25.5 -13.5q17 0 34.5 5t31.5 12z" />
<glyph unicode="&#xe6;" horiz-adv-x="704" d="M486 378q-21 0 -34.5 -11.5t-20.5 -29.5t-9.5 -40.5t-1.5 -44.5q31 4 56.5 8.5t36.5 7.5q26 5 30.5 10.5t4.5 11.5l-1.5 13.5t-8 30t-19 30.5t-33.5 14zM175 120q0 -35 16.5 -47t38.5 -12q14 0 29 2t27 5.5t20 8t8 8.5q0 2 -3 9.5t-4 9.5q-5 14 -8 40q-2 26 -4.5 34 t-14.5 8q-3 0 -10 -1t-16 -3t-18.5 -4.5t-16.5 -4.5q-16 -5 -30 -15t-14 -38zM662 97l8 -11q2 -2 5 -7.5t3 -7.5q0 -3 -15 -16.5t-42.5 -28.5t-66 -26.5t-84.5 -11.5q-8 0 -22 1t-32 6t-37 16.5t-35 32.5q-45 -26 -93.5 -41t-100.5 -15q-54 0 -79.5 27t-25.5 78q0 28 7 46 t19 29t27.5 17.5t33.5 11.5q17 5 38.5 9.5t44 9t44.5 8.5t40 7q1 36 0 62t-7.5 42.5t-20.5 24.5t-41 8q-31 0 -39.5 -3.5t-8.5 -12.5q0 -5 1 -20t1 -19q0 -11 -5.5 -15t-23.5 -9q-6 -2 -16 -4.5l-20 -5t-19.5 -4.5t-15.5 -2q-5 0 -14 3.5t-9 14.5q0 18 16.5 42.5t46 46.5 t69 37.5t85.5 15.5q25 0 43 -5t30 -12t19.5 -14t11.5 -11q6 5 16.5 12t25.5 14t36 11.5t48 4.5q51 0 81.5 -15t48 -37t24.5 -45.5t11 -40.5q1 -5 2 -6t6 -3q2 -2 3 -11.5t1 -13.5q0 -10 -4.5 -12.5t-23.5 -5.5q-57 -11 -117 -19.5t-119 -16.5q1 -14 5.5 -37.5t16.5 -46 t35.5 -39t64.5 -16.5q16 0 45 4.5t67 24.5h7z" />
<glyph unicode="&#xe7;" horiz-adv-x="444" d="M406 117l12 -37q2 -4 2 -11q0 -1 -7.5 -9t-23 -19t-39.5 -23t-57 -21q-2 -3 -6 -8.5t-8 -11.5t-7 -11t-3 -7q0 -7 18 -17q6 -4 14 -9t15 -13.5t12 -20t5 -27.5t-9 -35t-25 -35t-39 -27t-50 -11q-17 0 -27.5 4.5t-16.5 11.5t-8.5 13.5t-2.5 11.5q0 6 2.5 13.5t7 15 t10.5 12.5t12 5q7 0 15 -3.5t22 -13.5q10 -7 15 -9t10 -2q17 0 17 16q0 14 -10.5 23t-33.5 23t-28.5 17.5t-5.5 8.5q0 8 8 18l22 27.5l26 32.5q-54 -3 -93.5 11.5t-64.5 40.5t-37 61.5t-12 75.5q0 60 22 107.5t58.5 80t84 50t98.5 17.5q27 0 49.5 -5t39.5 -13t26.5 -19.5 t9.5 -24.5q0 -10 -6.5 -21.5t-16 -21t-20 -15.5t-18.5 -6t-14 3.5t-20 14.5q-23 19 -45 24t-40 5q-11 0 -24 -2.5t-22 -10.5q-11 -9 -17 -23t-9 -29t-3.5 -27.5t-0.5 -18.5q0 -11 1.5 -26.5t5 -33t11 -35.5t19.5 -33q16 -20 38 -28.5t48 -8.5q45 0 70 15t36 24h8z" />
<glyph unicode="&#xe8;" horiz-adv-x="463" d="M154 661q4 0 7.5 -1.5t8.5 -6t12 -13t18 -23.5q9 -12 19.5 -27t21.5 -30.5t21.5 -30t19.5 -26.5q1 0 6 -7t5 -8q0 -2 -8 -2h-12q-8 0 -13.5 0.5t-10 2t-9.5 4t-12 7.5q-11 7 -35 22.5t-49.5 32t-46.5 30.5t-25 18q-14 12 -14 23q0 9 6 14t24 9q23 6 43 9t23 3zM167 241 q14 3 32 6.5t34.5 7.5t28 6.5l11.5 2.5q18 5 25 12t7 18q0 7 -3 21t-10.5 28t-20.5 24.5t-32 10.5q-15 0 -28.5 -8.5t-24 -25.5t-16 -42.5t-3.5 -60.5zM412 101l9 -15q2 -3 4.5 -7.5t2.5 -6.5q0 -5 -15.5 -18.5t-43.5 -28t-66 -26t-83 -11.5q-49 0 -83.5 16t-56.5 43.5 t-32.5 63.5t-10.5 76q0 61 19 107t50.5 77t72 46.5t83.5 15.5q67 0 114 -35.5t56 -95.5q1 -6 1.5 -8t4.5 -5q3 -2 4.5 -6.5t1.5 -24.5q0 -10 -4 -12.5t-22 -5.5q-50 -8 -80.5 -13t-55 -8.5t-49 -8t-61.5 -10.5q6 -36 19.5 -61t31.5 -40t39 -21.5t42 -6.5q27 0 53.5 7 t48.5 23h6z" />
<glyph unicode="&#xe9;" horiz-adv-x="463" d="M308 661q3 0 14.5 -2t24.5 -4.5t25.5 -5.5t17.5 -5q14 -5 14 -17q0 -6 -2.5 -11t-11.5 -12.5t-27 -19t-50 -32.5q-26 -17 -41.5 -27.5t-25 -16.5t-14.5 -9l-10 -6q-8 -5 -13 -6t-22 -1h-11t-7 2l15 21.5t35 48.5t39 53t27 36t13 12t10 2zM167 241q14 3 32 6.5t34.5 7.5 t28 6.5l11.5 2.5q18 5 25 12t7 18q0 7 -3 21t-10.5 28t-20.5 24.5t-32 10.5q-15 0 -28.5 -8.5t-24 -25.5t-16 -42.5t-3.5 -60.5zM412 101l9 -15q2 -3 4.5 -7.5t2.5 -6.5q0 -5 -15.5 -18.5t-43.5 -28t-66 -26t-83 -11.5q-49 0 -83.5 16t-56.5 43.5t-32.5 63.5t-10.5 76 q0 61 19 107t50.5 77t72 46.5t83.5 15.5q67 0 114 -35.5t56 -95.5q1 -6 1.5 -8t4.5 -5q3 -2 4.5 -6.5t1.5 -24.5q0 -10 -4 -12.5t-22 -5.5q-50 -8 -80.5 -13t-55 -8.5t-49 -8t-61.5 -10.5q6 -36 19.5 -61t31.5 -40t39 -21.5t42 -6.5q27 0 53.5 7t48.5 23h6z" />
<glyph unicode="&#xea;" horiz-adv-x="463" d="M245 557q-8 -7 -26 -21.5t-37.5 -29.5t-35.5 -26.5t-19 -11.5q-6 0 -13.5 8t-7.5 13q0 1 2.5 5t6.5 9t7.5 9.5t5.5 6.5q6 7 18.5 25.5t27 38.5t27 38t17.5 25q5 5 11.5 10t15.5 5q7 0 11.5 -1.5t10.5 -8t15 -20t25 -38.5q15 -23 31.5 -45l25.5 -34q11 -14 13.5 -17 t2.5 -5t-3 -6t-6.5 -8t-7.5 -6.5t-5 -2.5q-4 0 -19.5 11t-33.5 25.5t-35 29t-25 22.5zM167 241q14 3 32 6.5t34.5 7.5t28 6.5l11.5 2.5q18 5 25 12t7 18q0 7 -3 21t-10.5 28t-20.5 24.5t-32 10.5q-15 0 -28.5 -8.5t-24 -25.5t-16 -42.5t-3.5 -60.5zM412 101l9 -15 q2 -3 4.5 -7.5t2.5 -6.5q0 -5 -15.5 -18.5t-43.5 -28t-66 -26t-83 -11.5q-49 0 -83.5 16t-56.5 43.5t-32.5 63.5t-10.5 76q0 61 19 107t50.5 77t72 46.5t83.5 15.5q67 0 114 -35.5t56 -95.5q1 -6 1.5 -8t4.5 -5q3 -2 4.5 -6.5t1.5 -24.5q0 -10 -4 -12.5t-22 -5.5 q-50 -8 -80.5 -13t-55 -8.5t-49 -8t-61.5 -10.5q6 -36 19.5 -61t31.5 -40t39 -21.5t42 -6.5q27 0 53.5 7t48.5 23h6z" />
<glyph unicode="&#xeb;" horiz-adv-x="463" d="M338 613q23 0 40 -18.5t17 -41.5q0 -24 -18.5 -41.5t-40.5 -17.5q-23 0 -42.5 17.5t-19.5 42.5q0 26 20.5 42.5t43.5 16.5zM155 613q23 0 40 -18t17 -42q0 -25 -19 -42t-40 -17q-23 0 -42.5 18t-19.5 42q0 12 5.5 23t14.5 19t20.5 12.5t23.5 4.5zM167 241q14 3 32 6.5 t34.5 7.5t28 6.5l11.5 2.5q18 5 25 12t7 18q0 7 -3 21t-10.5 28t-20.5 24.5t-32 10.5q-15 0 -28.5 -8.5t-24 -25.5t-16 -42.5t-3.5 -60.5zM412 101l9 -15q2 -3 4.5 -7.5t2.5 -6.5q0 -5 -15.5 -18.5t-43.5 -28t-66 -26t-83 -11.5q-49 0 -83.5 16t-56.5 43.5t-32.5 63.5 t-10.5 76q0 61 19 107t50.5 77t72 46.5t83.5 15.5q67 0 114 -35.5t56 -95.5q1 -6 1.5 -8t4.5 -5q3 -2 4.5 -6.5t1.5 -24.5q0 -10 -4 -12.5t-22 -5.5q-50 -8 -80.5 -13t-55 -8.5t-49 -8t-61.5 -10.5q6 -36 19.5 -61t31.5 -40t39 -21.5t42 -6.5q27 0 53.5 7t48.5 23h6z" />
<glyph unicode="&#xec;" horiz-adv-x="315" d="M229 363q-1 -16 -1.5 -31t-1 -34t-0.5 -43v-55v-32t0.5 -43t2 -40t3.5 -24q5 -14 20 -16.5t44 -4.5q11 -1 13 -6t2 -14q0 -11 -3.5 -16.5t-14.5 -5.5q-33 0 -66.5 1.5t-66.5 1.5q-32 0 -63 -1.5t-63 -1.5q-8 0 -12 3.5t-4 17.5t2.5 17.5t17.5 5.5q28 4 39.5 16t15.5 41 q3 20 3.5 65.5t0.5 98.5q0 25 -1 41t-6 25.5t-14.5 14.5t-25.5 8q-15 2 -17.5 4.5t-2.5 15.5q0 15 2.5 18t15.5 7l124 36q14 4 26 6.5t21 2.5q6 0 11 -2t5 -9zM183 520q1 -2 3.5 -6.5t5.5 -10t5.5 -9.5t2.5 -5q0 -2 -7 -2.5t-11 -0.5q-8 0 -13 0.5t-10.5 3t-12 7.5t-17.5 14 q-6 5 -21 17t-32 25.5t-32 25t-21 16.5q-3 2 -11 10t-8 19q0 10 6.5 15.5t23.5 9.5q23 6 40 9t21 3q8 0 14 -7.5t22 -36.5z" />
<glyph unicode="&#xed;" horiz-adv-x="315" d="M229 363q-1 -16 -1.5 -31t-1 -34t-0.5 -43v-55v-32t0.5 -43t2 -40t3.5 -24q5 -14 20 -16.5t44 -4.5q11 -1 13 -6t2 -14q0 -11 -3.5 -16.5t-14.5 -5.5q-33 0 -66.5 1.5t-66.5 1.5q-32 0 -63 -1.5t-63 -1.5q-8 0 -12 3.5t-4 17.5t2.5 17.5t17.5 5.5q28 4 39.5 16t15.5 41 q3 20 3.5 65.5t0.5 98.5q0 25 -1 41t-6 25.5t-14.5 14.5t-25.5 8q-15 2 -17.5 4.5t-2.5 15.5q0 15 2.5 18t15.5 7l124 36q14 4 26 6.5t21 2.5q6 0 11 -2t5 -9zM196 661q4 0 12.5 -1.5t17.5 -3.5t17.5 -4t13.5 -3q17 -4 23.5 -10t6.5 -14q0 -6 -1.5 -10.5t-8.5 -11.5 t-21.5 -18.5t-41.5 -32.5q-5 -4 -17.5 -13.5t-26 -20t-24.5 -19.5t-13 -10q-5 -2 -8.5 -2.5t-16.5 -0.5q-11 0 -14 0.5t-3 2.5l6.5 12t16 29.5t20.5 38t21 38.5t17.5 31t9.5 15q6 8 14 8z" />
<glyph unicode="&#xee;" horiz-adv-x="315" d="M229 363q-1 -16 -1.5 -31t-1 -34t-0.5 -43v-55v-32t0.5 -43t2 -40t3.5 -24q5 -14 20 -16.5t44 -4.5q11 -1 13 -6t2 -14q0 -11 -3.5 -16.5t-14.5 -5.5q-33 0 -66.5 1.5t-66.5 1.5q-32 0 -63 -1.5t-63 -1.5q-8 0 -12 3.5t-4 17.5t2.5 17.5t17.5 5.5q28 4 39.5 16t15.5 41 q3 20 3.5 65.5t0.5 98.5q0 25 -1 41t-6 25.5t-14.5 14.5t-25.5 8q-15 2 -17.5 4.5t-2.5 15.5q0 15 2.5 18t15.5 7l124 36q14 4 26 6.5t21 2.5q6 0 11 -2t5 -9zM148 557q-8 -7 -26 -22t-37.5 -30t-35.5 -26t-19 -11q-5 0 -13 8t-8 13q0 1 3 5t6.5 9t7 9.5t5.5 6.5 q6 7 19 25.5t27 38.5t27 38t18 25q4 5 10.5 10t16.5 5q6 0 10.5 -1.5t10.5 -8t15.5 -20t25.5 -38.5q14 -23 30.5 -45l25.5 -34q11 -14 13.5 -17t2.5 -5q0 -5 -9 -14t-13 -9t-19 11t-33 25.5t-35.5 29t-25.5 22.5z" />
<glyph unicode="&#xef;" horiz-adv-x="315" d="M229 363q-1 -16 -1.5 -31t-1 -34t-0.5 -43v-55v-32t0.5 -43t2 -40t3.5 -24q5 -14 20 -16.5t44 -4.5q11 -1 13 -6t2 -14q0 -11 -3.5 -16.5t-14.5 -5.5q-33 0 -66.5 1.5t-66.5 1.5q-32 0 -63 -1.5t-63 -1.5q-8 0 -12 3.5t-4 17.5t2.5 17.5t17.5 5.5q28 4 39.5 16t15.5 41 q3 20 3.5 65.5t0.5 98.5q0 25 -1 41t-6 25.5t-14.5 14.5t-25.5 8q-15 2 -17.5 4.5t-2.5 15.5q0 15 2.5 18t15.5 7l124 36q14 4 26 6.5t21 2.5q6 0 11 -2t5 -9zM241 613q23 0 40 -18t17 -42t-18.5 -41.5t-40.5 -17.5q-23 0 -42.5 17.5t-19.5 42.5q0 26 21 42.5t43 16.5z M58 613q23 0 40 -18.5t17 -41.5q0 -24 -18.5 -41.5t-40.5 -17.5q-23 0 -42.5 18t-19.5 42q0 25 20.5 42t43.5 17z" />
<glyph unicode="&#xf0;" horiz-adv-x="574" d="M181 251q0 -23 4.5 -58t17 -68.5t36 -57.5t62.5 -24q34 0 53 17t27.5 39.5t10 43.5t1.5 30q0 31 -6 67t-20.5 66.5t-38 51t-58.5 20.5q-33 0 -51.5 -17.5t-26.5 -40t-9.5 -43t-1.5 -26.5zM376 712q2 2 7 -2.5t10 -10.5q10 -11 13 -14.5t1 -5.5l-84 -72q50 -48 79.5 -86.5 t39.5 -52.5q12 -16 28 -41.5t31 -57.5t25.5 -70t10.5 -79q0 -56 -21 -99.5t-57.5 -73t-86 -44.5t-105.5 -15q-44 0 -85.5 13t-73.5 39t-52 66.5t-20 96.5q0 63 25 107t61 71.5t76.5 39.5t72.5 12q33 0 51.5 -9t29.5 -16q-12 24 -25.5 47t-26 42.5t-22.5 34t-14 21.5l-82 -78 q-2 -2 -7 3t-16 19q-10 10 -8 12l88 78l-20 25l-16 20t-17.5 21.5t-24.5 29.5q-2 4 -3 6.5t4 4.5q25 14 31 14q7 0 21 -9.5t29.5 -22t29.5 -24.5t20 -17z" />
<glyph unicode="&#xf1;" horiz-adv-x="611" d="M410 434q6 0 18.5 -1t27 -6t28.5 -14.5t25 -26.5q17 -25 19.5 -60t2.5 -70v-107q0 -42 2 -66q1 -15 4 -23t10 -12t19 -6t30 -3q12 -1 14.5 -5t2.5 -15t-2.5 -15.5t-14.5 -4.5q-32 0 -62.5 1t-62.5 1q-29 0 -59 -1t-59 -1q-9 0 -10.5 4.5t-1.5 13.5q0 14 2 16.5t13 5.5 q22 5 29.5 13.5t11.5 32.5q1 9 1.5 28t1 40.5t0.5 41.5v33q0 17 -1.5 37.5t-9 38.5t-25 30t-48.5 12q-22 0 -49 -6t-40 -12q-5 -2 -7 -5.5t-2 -20.5v-45v-65t0.5 -63.5t1.5 -40.5q1 -10 2.5 -19t6.5 -16t16 -11t31 -4q11 0 14 -3t3 -17q0 -11 -1.5 -15t-12.5 -4q-29 0 -58 1 t-58 1q-49 0 -81 -1t-49 -1q-8 0 -9.5 3.5t-1.5 14.5q0 14 3 18t19 6q23 3 33 14t12 34q2 15 2.5 50.5t0.5 90.5q0 32 -1 52.5t-5.5 33t-13 17.5t-23.5 6q-18 1 -22.5 3.5t-4.5 16.5q0 11 4.5 14.5t21.5 10.5q14 5 33 12l38 14t36.5 13.5t29.5 9.5q13 4 26 4q4 0 9 -1t5 -9 q0 -3 -1 -11.5t-2 -19t-2 -20t-1 -13.5q11 7 32.5 19t48 23.5t55.5 20t55 8.5zM366 498q-9 0 -17 2t-17 6t-20 10.5t-27 16.5q-23 15 -33.5 20t-19.5 5q-16 0 -27.5 -12.5t-16.5 -21.5q-2 -3 -6.5 -9.5t-6.5 -6.5q-1 0 -5.5 2.5t-9.5 6t-9 7t-4 5.5q0 1 3 7t7 13l8 14t6 11 q7 11 16 23t20.5 22t25 16.5t29.5 6.5q19 0 35.5 -9t34.5 -21q26 -17 38.5 -21t20.5 -4q14 0 25 7t25 27q5 7 6.5 8.5t2.5 1.5t5 -2.5t8.5 -5.5t8.5 -6.5t4 -5.5q0 -3 -7.5 -17t-15.5 -26q-24 -41 -44 -55.5t-43 -14.5z" />
<glyph unicode="&#xf2;" horiz-adv-x="574" d="M210 661q4 0 7.5 -1.5t8 -6t11.5 -13t18 -23.5q9 -12 19.5 -27t22 -30.5t22 -30t19.5 -26.5l5 -7t5 -8q0 -2 -8 -2h-12q-8 0 -13 0.5t-9.5 2t-9.5 4t-13 7.5q-11 7 -35 22.5t-49.5 32t-46 30.5t-24.5 18q-14 12 -14 23q0 9 5.5 14t24.5 9q23 6 42.5 9t23.5 3zM181 251 q0 -23 4.5 -58t17 -68.5t36 -57.5t62.5 -24q34 0 53 17t27.5 39.5t10 43.5t1.5 30q0 31 -6 67t-20.5 66.5t-38 51t-58.5 20.5q-33 0 -51.5 -17.5t-26.5 -40t-9.5 -43t-1.5 -26.5zM37 213q0 41 16 80.5t48.5 70.5t82.5 50t118 19q69 0 114.5 -21.5t72 -53.5t37.5 -69.5 t11 -69.5q0 -53 -20 -96t-56 -73t-85.5 -46t-108.5 -16q-29 0 -68.5 8.5t-78.5 35.5q-14 9 -29 23.5t-27 35.5t-19.5 51t-7.5 71z" />
<glyph unicode="&#xf3;" horiz-adv-x="574" d="M363 661q3 0 14.5 -2t25 -4.5t25.5 -5.5t18 -5q13 -5 13 -17q0 -6 -2 -11t-11 -12.5t-27 -19t-50 -32.5q-26 -17 -42 -27.5t-25 -16.5t-14 -9l-10 -6q-9 -5 -14 -6t-22 -1h-11q-6 0 -6 2l13 18.5t29.5 41.5t31.5 43.5t19 25.5q21 29 29 36.5t16 7.5zM181 251 q0 -23 4.5 -58t17 -68.5t36 -57.5t62.5 -24q34 0 53 17t27.5 39.5t10 43.5t1.5 30q0 31 -6 67t-20.5 66.5t-38 51t-58.5 20.5q-33 0 -51.5 -17.5t-26.5 -40t-9.5 -43t-1.5 -26.5zM37 213q0 41 16 80.5t48.5 70.5t82.5 50t118 19q69 0 114.5 -21.5t72 -53.5t37.5 -69.5 t11 -69.5q0 -53 -20 -96t-56 -73t-85.5 -46t-108.5 -16q-29 0 -68.5 8.5t-78.5 35.5q-14 9 -29 23.5t-27 35.5t-19.5 51t-7.5 71z" />
<glyph unicode="&#xf4;" horiz-adv-x="574" d="M289 557q-9 -8 -27.5 -23t-37.5 -29.5t-34.5 -25.5t-18.5 -11q-5 0 -13 8t-8 13q0 1 2.5 5t6.5 9t7.5 9.5t5.5 6.5q6 7 19 25.5t27 38.5t27 38t18 25q4 5 10.5 10t15.5 5q7 0 11.5 -1.5t10.5 -8t15 -19.5t24 -36q16 -24 32 -46.5t26 -34.5q1 -2 8.5 -11.5t7.5 -11.5 q0 -5 -9 -14t-13 -9t-19 10.5t-33 25t-35 29.5t-26 23zM181 251q0 -23 4.5 -58t17 -68.5t36 -57.5t62.5 -24q34 0 53 17t27.5 39.5t10 43.5t1.5 30q0 31 -6 67t-20.5 66.5t-38 51t-58.5 20.5q-33 0 -51.5 -17.5t-26.5 -40t-9.5 -43t-1.5 -26.5zM37 213q0 41 16 80.5 t48.5 70.5t82.5 50t118 19q69 0 114.5 -21.5t72 -53.5t37.5 -69.5t11 -69.5q0 -53 -20 -96t-56 -73t-85.5 -46t-108.5 -16q-29 0 -68.5 8.5t-78.5 35.5q-14 9 -29 23.5t-27 35.5t-19.5 51t-7.5 71z" />
<glyph unicode="&#xf5;" horiz-adv-x="574" d="M342 498q-19 0 -34.5 8t-36.5 21q-17 10 -27 16.5t-16.5 9.5t-10.5 4t-9 1q-15 0 -26 -11.5t-18 -22.5q-2 -3 -6.5 -9.5t-6.5 -6.5q-1 0 -5.5 2.5t-9.5 6t-9 7t-4 5.5t8 16.5t16 28.5q5 8 13.5 20t20 22.5t25.5 18t31 7.5q20 0 36.5 -9.5t34.5 -20.5q27 -18 39 -21.5 t20 -3.5q15 0 26 7.5t24 26.5q5 7 6 8.5t3 1.5q1 0 5 -2.5t8.5 -5.5t8 -6.5t3.5 -5.5q0 -5 -22 -43q-23 -37 -42 -53.5t-45 -16.5zM181 251q0 -23 4.5 -58t17 -68.5t36 -57.5t62.5 -24q34 0 53 17t27.5 39.5t10 43.5t1.5 30q0 31 -6 67t-20.5 66.5t-38 51t-58.5 20.5 q-33 0 -51.5 -17.5t-26.5 -40t-9.5 -43t-1.5 -26.5zM37 213q0 41 16 80.5t48.5 70.5t82.5 50t118 19q69 0 114.5 -21.5t72 -53.5t37.5 -69.5t11 -69.5q0 -53 -20 -96t-56 -73t-85.5 -46t-108.5 -16q-29 0 -68.5 8.5t-78.5 35.5q-14 9 -29 23.5t-27 35.5t-19.5 51t-7.5 71z " />
<glyph unicode="&#xf6;" horiz-adv-x="574" d="M382 613q23 0 40 -18.5t17 -41.5q0 -24 -18.5 -41.5t-40.5 -17.5q-23 0 -42.5 18t-19.5 42q0 12 5.5 23t14.5 19t20.5 12.5t23.5 4.5zM199 613q23 0 40 -18t17 -42q0 -25 -18.5 -42t-40.5 -17q-23 0 -42.5 17.5t-19.5 42.5q0 26 20.5 42.5t43.5 16.5zM181 251 q0 -23 4.5 -58t17 -68.5t36 -57.5t62.5 -24q34 0 53 17t27.5 39.5t10 43.5t1.5 30q0 31 -6 67t-20.5 66.5t-38 51t-58.5 20.5q-33 0 -51.5 -17.5t-26.5 -40t-9.5 -43t-1.5 -26.5zM37 213q0 41 16 80.5t48.5 70.5t82.5 50t118 19q69 0 114.5 -21.5t72 -53.5t37.5 -69.5 t11 -69.5q0 -53 -20 -96t-56 -73t-85.5 -46t-108.5 -16q-29 0 -68.5 8.5t-78.5 35.5q-14 9 -29 23.5t-27 35.5t-19.5 51t-7.5 71z" />
<glyph unicode="&#xf7;" d="M196 164q0 12 6 23.5t15.5 20.5t21 15t22.5 6t22 -6t19.5 -15.5t14 -21t5.5 -22.5q0 -12 -6 -23.5t-15.5 -20t-20.5 -13.5t-21 -5q-11 0 -22 5.5t-20 14.5t-15 20t-6 22zM196 467q0 12 6 23.5t15.5 20.5t21 15t22.5 6t22 -6t19.5 -15.5t14 -21t5.5 -22.5q0 -12 -6 -23 t-15.5 -20t-20.5 -14t-21 -5q-11 0 -22 5.5t-20 14.5t-15 20t-6 22zM483 290q1 -8 -0.5 -9.5t-9.5 -1.5h-37h-55h-63h-63h-54h-34h-121q-8 0 -9.5 1t-1.5 8v57q0 8 1.5 9.5t10.5 1.5l212 -1h50h59t57.5 0.5t45.5 0.5q9 0 10.5 -1t1.5 -8v-57z" />
<glyph unicode="&#xf8;" horiz-adv-x="574" d="M378 292q-41 -51 -82 -103.5t-78 -103.5q4 -5 10.5 -12.5t16 -14.5t23.5 -12t33 -5q36 0 56 17.5t29 40t10.5 44.5t1.5 31q0 62 -20 118zM356 335q-13 18 -26.5 27.5t-25.5 14t-21 5t-13 0.5q-36 0 -55 -18t-28 -41t-10.5 -44.5t-1.5 -28.5q0 -35 6 -67.5t16 -57.5 q40 51 66 85t43 57t28.5 38.5t21.5 29.5zM424 408q3 3 9 11t13 16.5t13 16t9 10.5q2 2 6 2.5t20 0.5q19 0 23.5 -0.5t4.5 -4.5q0 -1 -8.5 -11.5t-19 -23t-20.5 -24.5t-13 -16q38 -32 57 -74.5t19 -92.5q0 -52 -20 -94.5t-55.5 -72.5t-85 -46.5t-109.5 -16.5q-46 0 -75 10 t-40 15q-3 -3 -10 -12t-14.5 -19t-14 -18t-7.5 -9q-3 -3 -7 -3.5t-21 -0.5q-26 0 -26 6l8.5 10.5t19 24t20.5 26.5t13 18q-26 19 -41 42.5t-23 46t-10.5 43t-2.5 35.5q0 58 21.5 101.5t57.5 72t84 42.5t102 14q53 0 82.5 -10t40.5 -15z" />
<glyph unicode="&#xf9;" horiz-adv-x="593" d="M83 304q0 18 -2 28.5t-7 15.5t-14 6.5t-24 1.5q-11 0 -14 2.5t-3 18.5q0 12 2 14.5t16 6.5q12 3 37 9.5t51.5 13t49 11t30.5 4.5q9 0 10.5 -4.5t1.5 -8.5q0 -8 -0.5 -17.5t-2.5 -40.5q-2 -32 -2 -74v-74q0 -35 2 -63t10 -48.5t23.5 -31.5t42.5 -11q9 0 22.5 1.5t26.5 4.5 t22 7t11 10q1 4 1.5 18t0.5 35v47v52v64q0 18 -1 30.5t-5.5 21t-14.5 12t-28 3.5q-23 0 -28 2t-5 16t3 18t23 6q13 1 32 3.5t39 5.5t38 5.5t30 4.5q17 3 28 5t16 2q10 0 10 -13q0 -3 -0.5 -14.5t-1.5 -24t-2 -24.5t-1 -17q-1 -17 -2 -44.5t-1.5 -60t-1 -66.5t-0.5 -62 q0 -24 6.5 -33t22.5 -9q3 0 10 1t15.5 2t15.5 2t10 1q9 0 9 -17q0 -14 -1.5 -17t-9.5 -6q-26 -8 -57.5 -16t-60 -14t-49.5 -10t-26 -4q-11 0 -13 7.5t-2 16.5v11q0 6 1 17q-14 -7 -34 -16.5t-43 -18t-47.5 -14.5t-47.5 -6q-11 0 -26 3t-30 10t-28.5 19.5t-21.5 31.5 q-8 17 -10 40t-2 67zM219 661q8 0 16 -7.5t29 -36.5q9 -12 19.5 -27t22 -30.5t22 -30t19.5 -26.5q0 -1 5 -7.5t5 -7.5q0 -2 -8 -2h-11q-9 0 -15 0.5t-12 3t-14 7.5t-21 14q-8 6 -30 20t-45.5 29.5t-42.5 28t-21 14.5q-14 13 -14 24q0 8 5.5 13t24.5 9q23 6 42.5 9t23.5 3z " />
<glyph unicode="&#xfa;" horiz-adv-x="593" d="M83 304q0 18 -2 28.5t-7 15.5t-14 6.5t-24 1.5q-11 0 -14 2.5t-3 18.5q0 12 2 14.5t16 6.5q12 3 37 9.5t51.5 13t49 11t30.5 4.5q9 0 10.5 -4.5t1.5 -8.5q0 -8 -0.5 -17.5t-2.5 -40.5q-2 -32 -2 -74v-74q0 -35 2 -63t10 -48.5t23.5 -31.5t42.5 -11q9 0 22.5 1.5t26.5 4.5 t22 7t11 10q1 4 1.5 18t0.5 35v47v52v64q0 18 -1 30.5t-5.5 21t-14.5 12t-28 3.5q-23 0 -28 2t-5 16t3 18t23 6q13 1 32 3.5t39 5.5t38 5.5t30 4.5q17 3 28 5t16 2q10 0 10 -13q0 -3 -0.5 -14.5t-1.5 -24t-2 -24.5t-1 -17q-1 -17 -2 -44.5t-1.5 -60t-1 -66.5t-0.5 -62 q0 -24 6.5 -33t22.5 -9q3 0 10 1t15.5 2t15.5 2t10 1q9 0 9 -17q0 -14 -1.5 -17t-9.5 -6q-26 -8 -57.5 -16t-60 -14t-49.5 -10t-26 -4q-11 0 -13 7.5t-2 16.5v11q0 6 1 17q-14 -7 -34 -16.5t-43 -18t-47.5 -14.5t-47.5 -6q-11 0 -26 3t-30 10t-28.5 19.5t-21.5 31.5 q-8 17 -10 40t-2 67zM373 661q3 0 14 -2t24.5 -4.5t26 -5.5t17.5 -5q13 -4 13 -17t-11.5 -22t-27.5 -20q-9 -6 -33 -21.5t-49.5 -32t-45.5 -29.5t-21 -13q-5 -2 -9.5 -2.5t-18.5 -0.5h-11t-7 2l15 21.5t35 48.5t38.5 53t26.5 36t13.5 12t10.5 2z" />
<glyph unicode="&#xfb;" horiz-adv-x="593" d="M83 304q0 18 -2 28.5t-7 15.5t-14 6.5t-24 1.5q-11 0 -14 2.5t-3 18.5q0 12 2 14.5t16 6.5q12 3 37 9.5t51.5 13t49 11t30.5 4.5q9 0 10.5 -4.5t1.5 -8.5q0 -8 -0.5 -17.5t-2.5 -40.5q-2 -32 -2 -74v-74q0 -35 2 -63t10 -48.5t23.5 -31.5t42.5 -11q9 0 22.5 1.5t26.5 4.5 t22 7t11 10q1 4 1.5 18t0.5 35v47v52v64q0 18 -1 30.5t-5.5 21t-14.5 12t-28 3.5q-23 0 -28 2t-5 16t3 18t23 6q13 1 32 3.5t39 5.5t38 5.5t30 4.5q17 3 28 5t16 2q10 0 10 -13q0 -3 -0.5 -14.5t-1.5 -24t-2 -24.5t-1 -17q-1 -17 -2 -44.5t-1.5 -60t-1 -66.5t-0.5 -62 q0 -24 6.5 -33t22.5 -9q3 0 10 1t15.5 2t15.5 2t10 1q9 0 9 -17q0 -14 -1.5 -17t-9.5 -6q-26 -8 -57.5 -16t-60 -14t-49.5 -10t-26 -4q-11 0 -13 7.5t-2 16.5v11q0 6 1 17q-14 -7 -34 -16.5t-43 -18t-47.5 -14.5t-47.5 -6q-11 0 -26 3t-30 10t-28.5 19.5t-21.5 31.5 q-8 17 -10 40t-2 67zM299 557q-8 -7 -26 -22t-37.5 -30t-35.5 -26t-19 -11q-6 0 -14 8t-8 13q0 1 3 5t6.5 9t7 9.5t5.5 6.5q6 7 19 25.5t27 38.5t27 38t18 25q4 5 10.5 10t16.5 5q6 0 10.5 -1.5t10.5 -8t15.5 -20t25.5 -38.5q14 -23 30.5 -45l25.5 -34q11 -14 13.5 -17 t2.5 -5q0 -5 -9 -14t-13 -9t-19 11t-33 25.5t-35 29t-25 22.5z" />
<glyph unicode="&#xfc;" horiz-adv-x="593" d="M83 304q0 18 -2 28.5t-7 15.5t-14 6.5t-24 1.5q-11 0 -14 2.5t-3 18.5q0 12 2 14.5t16 6.5q12 3 37 9.5t51.5 13t49 11t30.5 4.5q9 0 10.5 -4.5t1.5 -8.5q0 -8 -0.5 -17.5t-2.5 -40.5q-2 -32 -2 -74v-74q0 -35 2 -63t10 -48.5t23.5 -31.5t42.5 -11q9 0 22.5 1.5t26.5 4.5 t22 7t11 10q1 4 1.5 18t0.5 35v47v52v64q0 18 -1 30.5t-5.5 21t-14.5 12t-28 3.5q-23 0 -28 2t-5 16t3 18t23 6q13 1 32 3.5t39 5.5t38 5.5t30 4.5q17 3 28 5t16 2q10 0 10 -13q0 -3 -0.5 -14.5t-1.5 -24t-2 -24.5t-1 -17q-1 -17 -2 -44.5t-1.5 -60t-1 -66.5t-0.5 -62 q0 -24 6.5 -33t22.5 -9q3 0 10 1t15.5 2t15.5 2t10 1q9 0 9 -17q0 -14 -1.5 -17t-9.5 -6q-26 -8 -57.5 -16t-60 -14t-49.5 -10t-26 -4q-11 0 -13 7.5t-2 16.5v11q0 6 1 17q-14 -7 -34 -16.5t-43 -18t-47.5 -14.5t-47.5 -6q-11 0 -26 3t-30 10t-28.5 19.5t-21.5 31.5 q-8 17 -10 40t-2 67zM391 613q23 0 40 -18t17 -42t-18.5 -41.5t-40.5 -17.5q-23 0 -42 17.5t-19 42.5q0 26 20.5 42.5t42.5 16.5zM208 613q23 0 40 -18.5t17 -41.5q0 -25 -18.5 -42t-40.5 -17q-23 0 -42.5 18t-19.5 42q0 25 20.5 42t43.5 17z" />
<glyph unicode="&#xfd;" horiz-adv-x="481" d="M342 271q5 11 11 25t11 27t8.5 23t3.5 15q0 10 -8 13t-39 8q-9 2 -11.5 4t-2.5 15q0 15 3 18t9 3q24 0 47.5 -1t40.5 -1q7 0 17.5 0.5t20.5 0.5q11 0 20 0.5t14 0.5q10 0 11.5 -4t1.5 -18q0 -11 -3 -14.5t-17 -9.5q-14 -7 -25 -23t-29 -48q-60 -105 -118 -218t-118 -247 q-15 -32 -26 -53.5t-23.5 -34.5t-28.5 -18.5t-41 -5.5q-5 0 -12.5 0.5t-15 3.5t-12.5 9t-5 18q0 20 10.5 29.5t37.5 23.5q19 10 40.5 36t39.5 54t29.5 50t11.5 25q0 2 -3.5 11.5t-8 21t-9 22t-6.5 15.5q-17 41 -30 72t-24.5 59.5t-24 59.5t-28.5 73q-17 41 -29 53.5 t-24 14.5q-10 2 -13.5 5t-3.5 17q0 16 4 18.5t12 2.5q7 0 15.5 -0.5t20.5 -0.5t29.5 -0.5t41.5 -0.5q44 0 73 1t39 1q9 0 10.5 -3.5t1.5 -14.5q0 -15 -1.5 -18t-12.5 -4q-19 -2 -29 -5.5t-10 -17.5q0 -5 2.5 -15t6.5 -21.5t8 -22.5t6 -17q17 -45 33.5 -89t30.5 -81zM225 489 q-5 -2 -9.5 -2.5t-19.5 -0.5h-11q-6 0 -6 2l15 21.5t34.5 48.5t38.5 53t27 36t13.5 12t9.5 2q3 0 14.5 -2t24.5 -4.5t25.5 -5.5t17.5 -5q14 -5 14 -17q0 -13 -11.5 -22t-28.5 -20z" />
<glyph unicode="&#xfe;" horiz-adv-x="593" d="M217 339q0 -9 -0.5 -30t-1 -50.5t-1 -65.5t-0.5 -73q0 -8 2 -13t9 -10q11 -8 25.5 -12.5t29 -7t27.5 -3.5t21 -1q42 0 70 27t28 90q0 5 -1 19t-4.5 32.5t-12 38.5t-23 37t-37 28t-55.5 11q-28 0 -45 -5.5t-31 -11.5zM380 433q35 0 67 -14t56 -39.5t38.5 -62.5t14.5 -83 q0 -40 -15 -82.5t-47 -77.5t-82.5 -57.5t-121.5 -22.5q-26 0 -42.5 2.5t-33.5 5.5q1 -64 1.5 -114.5t2.5 -67.5q1 -12 3.5 -21.5t9 -15.5t19 -9t33.5 -3q14 0 17.5 -2.5t3.5 -18.5q0 -11 -1.5 -15.5t-12.5 -4.5q-13 0 -42.5 1t-74.5 1q-22 0 -44.5 -0.5t-42.5 -0.5 t-34.5 -0.5t-20.5 -0.5q-9 0 -10.5 4t-1.5 15q0 12 4 15.5t21 5.5q13 2 22.5 7t15 16.5t8 30.5t2.5 49v210v59v95q0 54 -0.5 112t-0.5 108t-0.5 84.5t-1.5 41.5q-2 23 -15 28.5t-42 10.5q-13 1 -13 16q0 13 4.5 17t22.5 9q76 22 113 33.5t49 11.5q11 0 16.5 -2t5.5 -13 q0 -6 -2 -18t-4.5 -43.5t-4.5 -88.5t-2 -154q39 19 79.5 31t83.5 12z" />
<glyph unicode="&#xff;" horiz-adv-x="481" d="M342 271q5 11 11 25t11 27t8.5 23t3.5 15q0 10 -8 13t-39 8q-9 2 -11.5 4t-2.5 15q0 15 3 18t9 3q24 0 47.5 -1t40.5 -1q7 0 17.5 0.5t20.5 0.5q11 0 20 0.5t14 0.5q10 0 11.5 -4t1.5 -18q0 -11 -3 -14.5t-17 -9.5q-14 -7 -25 -23t-29 -48q-60 -105 -118 -218t-118 -247 q-15 -32 -26 -53.5t-23.5 -34.5t-28.5 -18.5t-41 -5.5q-5 0 -12.5 0.5t-15 3.5t-12.5 9t-5 18q0 20 10.5 29.5t37.5 23.5q19 10 40.5 36t39.5 54t29.5 50t11.5 25q0 2 -3.5 11.5t-8 21t-9 22t-6.5 15.5q-17 41 -30 72t-24.5 59.5t-24 59.5t-28.5 73q-17 41 -29 53.5 t-24 14.5q-10 2 -13.5 5t-3.5 17q0 16 4 18.5t12 2.5q7 0 15.5 -0.5t20.5 -0.5t29.5 -0.5t41.5 -0.5q44 0 73 1t39 1q9 0 10.5 -3.5t1.5 -14.5q0 -15 -1.5 -18t-12.5 -4q-19 -2 -29 -5.5t-10 -17.5q0 -5 2.5 -15t6.5 -21.5t8 -22.5t6 -17q17 -45 33.5 -89t30.5 -81zM358 613 q23 0 40 -18t17 -42q0 -25 -18.5 -42t-40.5 -17q-23 0 -42.5 18t-19.5 42q0 25 20.5 42t43.5 17zM175 613q23 0 40 -18t17 -42t-18.5 -41.5t-40.5 -17.5q-23 0 -42.5 17.5t-19.5 42.5q0 26 21 42.5t43 16.5z" />
<glyph unicode="&#x131;" horiz-adv-x="315" d="M229 363q-1 -16 -1.5 -31t-1 -34t-0.5 -43v-55v-32t0.5 -43t2 -40t3.5 -24q5 -14 20 -16.5t44 -4.5q11 -1 13 -6t2 -14q0 -11 -3.5 -16.5t-14.5 -5.5q-33 0 -66.5 1.5t-66.5 1.5q-32 0 -63 -1.5t-63 -1.5q-8 0 -12 3.5t-4 17.5t2.5 17.5t17.5 5.5q28 4 39.5 16t15.5 41 q3 20 3.5 65.5t0.5 98.5q0 25 -1 41t-6 25.5t-14.5 14.5t-25.5 8q-15 2 -17.5 4.5t-2.5 15.5q0 15 2.5 18t15.5 7l124 36q14 4 26 6.5t21 2.5q6 0 11 -2t5 -9z" />
<glyph unicode="&#x141;" horiz-adv-x="593" d="M266 215l1 -64q0 -30 1.5 -48t7 -28t17.5 -13t33 -3q65 0 102.5 4t58 13.5t29.5 25.5t18 41q8 23 11.5 36.5t11.5 13.5q6 0 15.5 -1.5t13.5 -5.5q3 -2 3 -20q0 -9 -3 -27t-6.5 -38.5t-7.5 -39.5t-6 -28q-4 -18 -8 -26.5t-13 -8.5q-10 0 -30 0.5t-55 1.5t-86.5 1.5 t-124.5 0.5q-41 0 -73 -0.5t-57 -1.5q-26 -1 -43.5 -1.5t-30.5 -0.5q-6 0 -8.5 3.5t-2.5 17.5t3.5 16t20.5 4q40 4 51.5 27t13.5 64l2 121q-17 -12 -35.5 -25.5t-48.5 -38.5q-3 -2 -4.5 3t-1.5 24q-1 22 -1 30t3 10q15 10 40.5 27.5t47.5 32.5q0 26 0.5 62t0.5 70 q0 35 -1 62t-2 36q-2 35 -16.5 42t-45.5 9q-12 2 -14 5t-2 17t3 16.5t17 2.5q20 0 53 -1t76 -1q20 0 43.5 0.5t44.5 0.5q22 0 39.5 0.5t26.5 0.5q10 0 10 -14q0 -18 -3 -22.5t-20 -5.5q-44 -2 -56.5 -20t-12.5 -52v-125q33 23 56 39t41 29.5t34.5 25.5t37.5 28q5 3 7 -4 q0 -10 0.5 -21.5t0.5 -28.5q0 -6 -3 -9t-11 -8q-26 -17 -68 -46t-95 -66v-121z" />
<glyph unicode="&#x142;" horiz-adv-x="333" d="M101 299l-83 -62q-4 -2 -4.5 4t-0.5 27q0 12 0.5 20.5t2.5 10.5l85 57v116q0 45 -0.5 71t-2 37.5t-3.5 17.5q-5 12 -17 15.5t-41 8.5q-9 1 -9 16q0 12 5 16.5t23 9.5q57 16 102.5 30.5t62.5 14.5q8 0 13 -2t5 -13q0 -9 -1.5 -28t-2.5 -38q0 -14 -0.5 -27t-1 -33.5 t-0.5 -52.5v-84l87 65q3 1 3 -10q0 -32 -0.5 -41t-5.5 -12l-85 -57v-33v-58t0.5 -70.5t1 -69.5t1.5 -55.5t2 -28.5q2 -11 15 -17t51 -6q16 0 19 -2.5t3 -17.5q0 -9 -1.5 -14t-10.5 -5q-13 0 -46 1t-93 1q-48 0 -85.5 -1t-49.5 -1q-9 0 -11.5 4.5t-2.5 16.5q0 9 3.5 13 t18.5 6q31 4 39.5 19.5t10.5 29.5q1 7 1.5 19.5t1 27.5t0.5 30v26z" />
<glyph unicode="&#x152;" horiz-adv-x="1055" d="M195 347q0 -24 2.5 -56.5t11.5 -66t24.5 -66t42.5 -58.5t65.5 -41.5t92.5 -15.5q32 0 58.5 8.5t34.5 37.5q3 12 5 47.5t3 77.5t1.5 81t0.5 57v79q0 33 -1 55t-2 35.5t-4 22.5q-5 17 -20.5 26.5t-33.5 14.5t-35.5 6t-27.5 1q-44 0 -81 -11t-66 -35q-24 -21 -38 -48.5 t-21.5 -55.5t-9.5 -53.5t-2 -41.5zM590 0q-18 0 -30 -0.5t-24.5 -1t-30 -2.5t-45.5 -5q-10 -1 -27 -2t-41 -1q-84 0 -136.5 18.5t-87.5 42.5q-42 30 -67 67t-37.5 74t-16.5 69t-4 53q0 71 24 132.5t71 106.5t116 71t159 26q17 0 48 -3t82 -8l22 -2t25 -1.5t31 -0.5h42h27 q18 0 40 0.5t47.5 1t51.5 0.5h51q26 0 48 0.5t38 0.5h26q8 0 9.5 -2t1.5 -6q0 -3 -1.5 -18.5t-3.5 -37.5t-4 -47t-4 -46q-1 -6 -5 -8t-19 -2q-14 0 -17 3t-4 13q-3 27 -8.5 45t-17 29t-32 16t-54.5 7q-32 2 -46 1.5t-28 -0.5q-31 0 -47.5 -1.5t-24 -7.5t-9 -17.5t-1.5 -31.5 v-170q73 0 115 1.5t63 7.5t27 16.5t9 28.5q1 10 2.5 15.5t4 8t7 3t12.5 0.5q14 0 17 -2.5t3 -9.5q0 -5 -0.5 -17t-0.5 -25t-0.5 -25t-0.5 -16q0 -6 0.5 -22t0.5 -34t0.5 -33.5t0.5 -21.5q0 -10 -2.5 -12.5t-16.5 -2.5t-17.5 1.5t-4.5 10.5q-4 27 -10 43t-30 23q-14 4 -30 6 t-37 3t-49 1h-64v-45q0 -30 0.5 -63.5t1 -62.5t2.5 -39q1 -9 4.5 -15.5t12.5 -11.5t24.5 -7.5t41.5 -2.5q55 0 89 4.5t55.5 16t34 32.5t25.5 54q7 17 9.5 21.5t9.5 4.5q5 0 14.5 -3t11.5 -4q8 -3 8 -11q0 -3 -2.5 -16.5t-6.5 -32t-9 -39t-10 -37.5t-8 -26.5t-6 -14t-7.5 -5 t-12.5 -0.5h-368z" />
<glyph unicode="&#x153;" horiz-adv-x="833" d="M535 246q4 1 20 4t34 7t33.5 7t18.5 4q17 4 22.5 7.5t5.5 14.5q0 8 -4 24t-9 28l-5.5 11t-10 13.5t-16.5 11.5t-23 5q-27 0 -40.5 -16t-19.5 -37.5t-6 -45.5v-38zM181 233q0 -49 11.5 -85t30 -59t40.5 -34.5t43 -11.5q23 0 41 12t30 32t18.5 46.5t6.5 55.5q0 36 -8.5 70 t-24 60.5t-38.5 42.5t-52 16q-40 0 -69 -38t-29 -107zM783 103l10 -18q1 -1 3.5 -6t2.5 -7t-17.5 -15.5t-45.5 -28.5t-63 -27.5t-71 -12.5q-31 0 -55.5 7.5t-42.5 18t-30.5 21.5t-19.5 19q-9 -7 -24.5 -18.5t-38.5 -22t-53.5 -18t-69.5 -7.5q-64 0 -108 20.5t-71.5 52.5 t-39.5 71t-12 77q0 60 23.5 102.5t59.5 69.5t79.5 39.5t84.5 12.5q36 0 63.5 -6.5t49.5 -16t37.5 -21.5t27.5 -23q10 11 24.5 23t34 21.5t44.5 16t57 6.5q45 0 77.5 -12t54 -31.5t33 -43t15.5 -45.5q1 -7 2.5 -8.5t7.5 -3.5q2 -2 2.5 -7.5t0.5 -7.5q0 -11 -0.5 -17.5 t-2.5 -10t-6.5 -5t-13.5 -2.5q-6 -1 -22 -3t-35 -5t-36.5 -6t-26.5 -4q-18 -3 -31.5 -4.5t-27.5 -4t-31 -5.5t-44 -7q2 -11 8.5 -33t20.5 -44t38.5 -39t62.5 -17q16 0 43.5 6t63.5 30h8z" />
<glyph unicode="&#x160;" horiz-adv-x="574" d="M492 555q0 -5 1 -17t2 -25.5t1.5 -24.5t0.5 -13q0 -11 -13.5 -14.5t-20.5 -3.5q-9 0 -12 6t-9 29q-4 14 -11 31.5t-22 32.5t-41 25.5t-67 10.5q-38 0 -59 -11.5t-31.5 -26.5t-12.5 -29.5t-2 -19.5q0 -22 9 -38.5t23.5 -29t31.5 -22t34 -16.5q46 -20 77 -34t53 -25.5 t37 -22.5t29 -26q25 -27 33 -56.5t8 -52.5q0 -46 -21 -86t-57 -66q-23 -16 -60 -29t-104 -13q-13 0 -30 0.5t-35 2t-34.5 3.5t-28.5 4q-20 3 -30.5 5t-16.5 3t-8 1h-5q-12 0 -17 -5q-6 -3 -8.5 -4t-7.5 -1q-9 0 -12 4.5t-6 24.5q-2 12 -4 36.5t-4 49.5t-3.5 46t-1.5 26 q0 16 10.5 22.5t24.5 6.5q9 0 12 -4.5t8 -24.5q9 -32 18 -53.5t26 -38.5q22 -23 58.5 -35.5t74.5 -12.5t61.5 11t36.5 26.5t17.5 32.5t4.5 30q0 40 -24.5 63.5t-62.5 40.5q-48 21 -79 35t-52 25t-35 22t-27 25q-14 14 -28.5 41.5t-14.5 69.5q0 36 13.5 68.5t43 58t76.5 40.5 t113 15q18 0 32.5 -1t28.5 -2.5t29 -3.5t35 -5q12 -3 22 -3q2 0 12 2t11 2q10 0 10 -9v-73zM288 800q6 4 18.5 12t28.5 18t33 21t31.5 19.5t24.5 14.5t13 6q2 0 6 -3t8.5 -7.5t7.5 -8.5t3 -6t-3.5 -6.5t-8.5 -9.5l-9.5 -9.5t-7.5 -6.5q0 -1 -25 -26.5t-70 -77.5 q-11 -13 -20 -20t-26 -7q-10 0 -16.5 1.5t-14 7.5t-17.5 17.5t-26 30.5q-15 19 -39.5 45.5t-42.5 46.5q-11 11 -13 14.5t-2 6.5q0 4 10.5 14t17.5 10q5 0 23.5 -12t41 -28.5t44 -32.5t30.5 -24z" />
<glyph unicode="&#x161;" horiz-adv-x="426" d="M230 433q6 0 21.5 -1t32.5 -3t30 -3t15 -1t10 2q3 0 5.5 0.5t3.5 0.5q5 0 7 -3.5t4 -20.5q1 -8 3 -22.5t4 -29.5t3 -27.5t1 -17.5t-3 -9t-22 -6q-12 -1 -15.5 1t-7.5 9q-21 42 -42 62.5t-60 20.5q-20 0 -31.5 -6t-17.5 -14t-7.5 -15.5t-1.5 -11.5q0 -12 5.5 -22t17.5 -19 t31.5 -18t47.5 -20q24 -9 47 -20t41.5 -26t30 -36t11.5 -50q0 -36 -13.5 -58t-23.5 -32q-9 -9 -21 -18t-30 -15.5t-42.5 -11t-58.5 -4.5q-16 0 -46 2.5t-64 7.5q-2 1 -7.5 1.5t-10.5 0.5q-2 0 -9 -1t-9 -1q-5 0 -7.5 3t-2.5 12q0 20 0.5 38t-0.5 27q-1 16 -3.5 29t-2.5 26 q0 3 1 6.5t9 5.5l25 3q4 0 7 -3t8 -17q3 -10 10.5 -25.5t21.5 -30.5t35 -25.5t53 -10.5q36 0 51 21q9 13 9 31q0 13 -4 21.5t-16 17.5t-33.5 19.5t-57.5 27.5q-22 10 -42.5 20.5t-36 24t-25 32.5t-9.5 45q0 21 8 45t28.5 44.5t55.5 34t89 13.5zM211 586q9 9 27.5 24 t37.5 29.5t34.5 25t18.5 10.5q5 0 13 -8t8 -13q0 -1 -3 -5t-6.5 -9t-7.5 -9.5t-5 -6.5q-6 -8 -19 -26t-27 -38.5t-27 -38t-18 -24.5q-4 -5 -10.5 -10t-15.5 -5q-7 0 -11.5 1.5t-10.5 8t-15 19.5t-24 36q-17 26 -32 47t-25 33q-5 6 -11 14t-6 10q0 5 9 14t13 9t18 -10 t31.5 -24t35 -29t28.5 -25z" />
<glyph unicode="&#x178;" horiz-adv-x="648" d="M475 507q18 29 24.5 42.5t6.5 21.5q0 15 -14 18.5t-28 4.5q-16 2 -19.5 3.5t-3.5 12.5q0 16 2 21t11 5q17 0 40.5 -1t61.5 -1q32 0 59 1t38 1q6 0 7.5 -4t1.5 -11q0 -14 -1.5 -19t-9.5 -7q-12 -4 -23 -9.5t-30.5 -25.5t-51 -60.5t-83.5 -112.5q-5 -8 -16.5 -23.5t-23 -32 t-21 -30t-10.5 -16.5q-2 -3 -2 -17v-34v-35t0.5 -48t2 -47t3.5 -31q6 -26 26 -31t54 -5q5 0 6 -4.5t1 -15.5t-1.5 -14.5t-9.5 -3.5q-19 0 -60 1t-85 1q-14 0 -37 -0.5t-47 -0.5t-46.5 -0.5t-35.5 -0.5q-5 0 -5 22q0 11 3.5 13.5t18.5 4.5q28 3 43 8.5t22 24.5t8 58t1 108 q0 9 -0.5 15t-3 13t-7.5 15.5t-14 22.5q-38 62 -77 122t-83 119q-12 17 -20 26.5t-15 14.5t-14.5 7t-19.5 5q-5 1 -6 4.5t-1 14.5t2 15t6 4q13 0 46.5 -1t83.5 -1q20 0 41.5 0.5t39.5 0.5t31.5 0.5t18.5 0.5q10 0 14 -2.5t4 -13.5q0 -14 -3 -19.5t-17 -5.5q-10 0 -22 -2 t-12 -16q0 -11 9 -29t16 -30t15 -24.5t20 -32.5t31 -50t48 -76zM447 829q21 0 40.5 -18t19.5 -43q0 -13 -5.5 -24t-14.5 -19t-20 -12.5t-21 -4.5t-21 4.5t-20 12.5t-14.5 19t-5.5 24t5.5 24t14.5 19.5t20 13t22 4.5zM231 829q10 0 20.5 -5t19.5 -13t14.5 -19t5.5 -24t-6 -24 t-15 -19t-19.5 -12.5t-20.5 -4.5t-21 4.5t-20 12.5t-14.5 19t-5.5 24t5.5 24t14.5 19.5t20 13t22 4.5z" />
<glyph unicode="&#x17d;" horiz-adv-x="648" d="M219 53q97 2 173.5 4.5t113.5 16.5q26 9 40 30.5t29 68.5q3 11 7 17t15 6q17 0 23.5 -2t6.5 -9q0 -14 -5.5 -48t-17.5 -85q-5 -20 -8 -30.5t-6 -15.5t-7 -6t-10 -1q-14 0 -44 0.5t-69 0.5t-83 0.5t-85 0.5q-97 0 -163 -1t-88 -1q-14 0 -16 1.5t-2 12.5q0 14 1 18.5 t6 10.5q10 10 28 33.5t41.5 54t50 66t52 70t48.5 66t39 53.5q9 12 28.5 40t41.5 59t41 58.5t27 37.5h-32t-53 -0.5t-59 -1.5t-50 -3q-33 -3 -53.5 -9.5t-34.5 -19t-23.5 -32t-19.5 -48.5q-4 -10 -9.5 -11.5t-14.5 -1.5q-11 0 -16.5 3t-5.5 12q0 7 3.5 27.5t8 43.5t8.5 44 t6 29q3 11 5.5 18t13.5 7q55 0 110 -1t110 -1q69 0 139 1t145 1q14 0 14 -16q0 -14 -2 -19.5t-7 -11.5q-27 -33 -72.5 -93t-99.5 -133.5t-111.5 -154.5t-107.5 -156zM338 800q9 5 32 20t47.5 30.5t44.5 28t24 12.5q2 0 6.5 -3t8.5 -7.5t7 -8.5t3 -6t-3.5 -6.5t-8 -9.5 t-9.5 -9.5t-7 -6.5q-26 -25 -49 -51t-46 -53q-11 -13 -20.5 -20t-26.5 -7q-9 0 -15.5 1.5t-14 7.5t-17.5 17.5t-26 30.5q-8 9 -18.5 21t-21.5 25t-22 25t-20 21q-11 11 -13.5 14.5t-2.5 6.5q0 5 11 14.5t18 9.5q4 0 23 -12t41.5 -28.5t44 -32.5t30.5 -24z" />
<glyph unicode="&#x17e;" horiz-adv-x="463" d="M434 150q8 -1 9.5 -3.5t1.5 -6.5q0 -3 -3 -15.5t-7.5 -29.5t-11 -38t-13.5 -40q-2 -8 -5.5 -15.5t-8.5 -7.5q-3 0 -11.5 1.5t-10.5 1.5q-23 2 -44.5 2.5t-54.5 0.5h-147q-29 0 -56 -1t-37 -1q-9 0 -10.5 2.5t-1.5 14.5v14t1 8t3 5.5t6 6.5q0 1 29 35t76 95q27 34 46 59.5 t35 47t31 43t35 48.5h-35q-21 0 -44 -1.5t-43.5 -5.5t-31.5 -11q-15 -9 -23.5 -24.5t-19.5 -40.5q-5 -9 -6.5 -11.5t-6.5 -2.5q-1 0 -6.5 0.5t-12 2t-12 4t-5.5 7.5q0 3 3.5 14t3.5 14q6 26 10 47t9 48q1 7 2.5 9.5t7.5 2.5t14 -2t14 -4q6 -1 26.5 -1.5t44.5 -0.5h46h32 q44 0 85 0.5t71 0.5q14 0 21 -2.5t7 -15.5q0 -6 -1 -11t-4 -10.5t-9 -13.5t-16 -21q-13 -17 -25 -32t-28.5 -36.5t-40.5 -53.5t-60 -82q-4 -6 -14.5 -20.5t-22 -30.5t-21.5 -30t-14 -19q57 1 93 3t59 10t36.5 24.5t25.5 47.5q5 14 8 18.5t11 4.5zM249 586q8 7 26 22t37.5 30 t35.5 26t19 11q5 0 13 -8t8 -13q0 -1 -3 -5t-6.5 -9t-7.5 -9.5t-5 -6.5q-6 -8 -19 -26t-27 -38.5t-27 -38t-18 -24.5q-4 -5 -10.5 -10t-15.5 -5q-7 0 -11.5 1.5t-10.5 8t-15 20t-25 38.5q-15 23 -31.5 45l-25.5 34q-11 14 -13.5 17t-2.5 5q0 5 9 14t13 9t18.5 -10.5 t32.5 -25t35.5 -29t26.5 -23.5z" />
<glyph unicode="&#x192;" d="M405 345q5 0 0 -23q-3 -20 -5 -25.5t-7 -5.5h-86q-15 -86 -25 -142t-19 -94t-19 -63t-24 -49q-13 -21 -31 -41.5t-40.5 -37t-48 -26.5t-53.5 -10q-25 0 -45 9t-20 29q0 6 3 14.5t8.5 16t13.5 13t19 5.5q8 0 13 -2.5t19 -15.5q4 -3 9 -6.5t12 -3.5q16 0 25.5 19t18.5 65 l58 320h-58q-13 0 -13 5q0 2 0.5 7t2 10t3.5 9.5t4 5.5l72 16q6 34 13 65.5t18.5 60.5t28 55.5t42.5 50.5q39 37 83.5 53t79.5 16q25 0 43.5 -7.5t31 -18.5t19 -25t6.5 -27q0 -22 -19 -36.5t-41 -14.5q-14 0 -20 7t-18 32q-10 20 -22.5 24.5t-20.5 4.5q-17 0 -28.5 -8 t-20 -20t-13.5 -26.5t-8 -26.5q-8 -32 -14 -67.5t-15 -90.5h88z" />
<glyph unicode="&#x2c6;" horiz-adv-x="500" d="M252 557q-8 -7 -26 -22t-37.5 -30t-35.5 -26t-19 -11q-5 0 -13 8t-8 13q0 1 3 5t6.5 9t7 9.5t5.5 6.5q6 7 19 25.5t27 38.5t27 38t18 25q4 5 10.5 10t15.5 5q7 0 11.5 -1.5t10.5 -8t15 -20t25 -38.5q15 -23 31.5 -45l25.5 -34q11 -14 13.5 -17t2.5 -5q0 -5 -9 -14t-13 -9 t-19 11t-33 25.5t-35.5 29t-25.5 22.5z" />
<glyph unicode="&#x2c7;" horiz-adv-x="500" d="M248 586q7 7 25.5 22t38 30t35.5 26t19 11q5 0 13 -8t8 -13q0 -1 -3 -5t-6.5 -9t-7.5 -9.5t-5 -6.5q-6 -8 -19 -26t-27 -38.5t-27 -38t-18 -24.5q-4 -5 -10.5 -10t-15.5 -5q-7 0 -11.5 1.5t-10.5 8t-15 20t-25 38.5q-15 23 -31.5 45l-25.5 34q-11 14 -13.5 17t-2.5 5 q0 5 9 14t13 9t18.5 -10.5t32.5 -25t35.5 -29t26.5 -23.5z" />
<glyph unicode="&#x2d8;" horiz-adv-x="500" d="M252 569q9 0 22 2t27 9t26.5 20.5t20.5 37.5q2 5 3 5.5t6 0.5h14q7 0 10 -1t3 -6q0 -26 -9 -52t-26.5 -47.5t-42.5 -35t-56 -13.5t-56 13.5t-42 35.5t-26.5 48t-9.5 52q0 5 2 6t12 1q15 0 18.5 -1t4.5 -6q2 -11 9 -23.5t19.5 -22.5t30 -16.5t40.5 -6.5z" />
<glyph unicode="&#x2d9;" horiz-adv-x="500" d="M254 621q26 0 45.5 -20t19.5 -48q0 -14 -6 -26.5t-15.5 -21.5t-21.5 -14.5t-24 -5.5t-25 5.5t-23 15t-16.5 22t-6.5 26.5q0 15 7 27t17.5 21t23.5 14t25 5z" />
<glyph unicode="&#x2da;" horiz-adv-x="500" d="M250 516q26 0 38 19.5t12 41.5q0 23 -12.5 42t-37.5 19q-13 0 -22.5 -5.5t-15.5 -14.5t-9 -20t-3 -21q0 -9 2.5 -20t8.5 -20t15.5 -15t23.5 -6zM250 480q-23 0 -44.5 6.5t-37.5 19t-25.5 30.5t-9.5 41q0 22 9.5 40t25.5 31t37.5 19.5t44.5 6.5q24 0 45 -6.5t37 -19.5 t25.5 -31t9.5 -40q0 -23 -9.5 -41t-25.5 -30.5t-37.5 -19t-44.5 -6.5z" />
<glyph unicode="&#x2db;" horiz-adv-x="500" d="M348 9q-12 -10 -24.5 -20.5t-22 -23t-15.5 -28t-6 -34.5q0 -34 17.5 -45t35.5 -11q14 0 22.5 3.5t14.5 7.5h10v-16q0 -7 -1.5 -11.5t-11.5 -9.5q-15 -8 -34.5 -13t-40.5 -5q-38 0 -66 18.5t-28 58.5q0 25 11 45t27 36t35 27.5t36 20.5h41z" />
<glyph unicode="&#x2dc;" horiz-adv-x="500" d="M305 498q-19 0 -35 8t-36 21q-17 10 -27 16.5t-16.5 9.5t-10.5 4t-9 1q-15 0 -26 -11.5t-18 -22.5q-2 -3 -6.5 -9.5t-6.5 -6.5q-1 0 -5.5 2.5t-9.5 6t-9 7t-4 5.5q0 1 2.5 6.5t6 12t8 14l7.5 12.5q6 9 14.5 20.5t19.5 22t25 18t31 7.5q20 0 36.5 -9t34.5 -21 q27 -18 39 -21.5t20 -3.5q14 0 24.5 6.5t21.5 20.5q2 2 6.5 9.5t6.5 7.5q1 0 5 -2.5t8.5 -5.5t8 -6.5t3.5 -5.5t-6.5 -15t-15.5 -28q-26 -42 -45.5 -56t-41.5 -14z" />
<glyph unicode="&#x2dd;" horiz-adv-x="500" d="M384 644q4 0 14.5 -0.5t22 -2t21.5 -3t15 -2.5q15 -3 15 -17q0 -10 -8 -18t-19 -18q-7 -5 -25.5 -20t-38 -31t-34.5 -29t-16 -13q-5 -4 -18 -5t-18 -1q-3 0 -3 2l5.5 11t14 27.5t18.5 36t19 36.5t16 29t10 14q4 4 9 4zM232 644q4 0 14.5 -0.5t22 -2t21.5 -3t15 -2.5 q15 -3 15 -17q0 -10 -8 -18t-20 -18q-7 -6 -25 -21t-37.5 -31t-34.5 -28.5t-16 -12.5q-5 -4 -18 -5t-18 -1q-4 0 -4 2l5.5 11t14 27.5t18.5 36t19.5 36.5t16.5 29t10 14q4 4 9 4z" />
<glyph unicode="&#x394;" horiz-adv-x="540" d="M270 614l-244 -547q-5 -11 -3.5 -14t9.5 -3h454q12 0 13.5 4t-1.5 12zM-48 0l314 693h34l289 -693h-637z" />
<glyph unicode="&#x3a9;" horiz-adv-x="750" d="M688 170q-2 -17 -3.5 -38t-3.5 -43q-2 -26 -2.5 -50t0.5 -41q-23 2 -55 2h-66q-36 0 -70.5 -0.5t-57.5 -1.5q-7 0 -9 2t-2 10v162q76 8 111 68.5t35 181.5q0 130 -46.5 189t-143.5 59t-140 -59t-43 -189q0 -230 137 -250v-163q0 -7 -1.5 -9t-9.5 -2q-24 1 -59.5 1.5 t-70.5 0.5q-38 0 -69.5 -0.5t-47.5 -1.5q1 22 0.5 45.5t-1.5 47.5q-1 21 -2.5 41t-4.5 38h23q4 -29 8 -50.5t14 -35.5t29 -21t53 -7h99q8 0 8 8v83q-48 7 -88.5 33.5t-70 65.5t-46 85.5t-16.5 92.5q0 60 22 109.5t62 85t95 55t121 19.5q65 0 120.5 -18.5t96.5 -53.5 t64.5 -85t23.5 -113q0 -51 -16.5 -98t-47 -84t-73 -62t-93.5 -32v-82q0 -9 8 -9h101q58 0 80.5 27t22.5 87h25z" />
<glyph unicode="&#x3bc;" horiz-adv-x="593" d="M82 327q-2 20 -13 24t-39 5q-6 1 -8.5 4t-2.5 17q0 12 2 14.5t16 6.5q12 3 37 9.5t51.5 13t49 11t30.5 4.5q9 0 10.5 -4.5t1.5 -8.5q0 -8 -0.5 -17.5t-2.5 -40.5q-2 -32 -2 -74v-74q0 -35 2 -63t10 -48.5t23.5 -31.5t42.5 -11q9 0 22.5 1.5t26.5 4.5t22 7t11 10l2 24v192 q0 18 -1 30.5t-5.5 21t-14.5 12t-28 3.5q-23 0 -28 2t-5 16t3 18t23 6q13 1 32 3.5t38 5.5t36 5t26 4q17 2 30 5t20 3q11 0 11 -13q0 -3 -0.5 -14.5t-1.5 -24t-2 -24.5t-1 -17q-1 -17 -2 -44.5t-1.5 -60t-1 -66.5t-0.5 -62q0 -24 6.5 -33t22.5 -9q3 0 10 1t15.5 2t15.5 2 t10 1q9 0 9 -17q0 -14 -1.5 -17t-9.5 -6q-26 -8 -57.5 -16t-60 -14t-49.5 -10t-26 -4q-11 0 -13 7.5t-2 16.5v11q0 6 1 17q-16 -8 -36.5 -17.5t-43 -18t-46.5 -14t-48 -5.5q-22 0 -29.5 5t-12.5 11q1 -13 5.5 -47t9 -70.5t8 -66.5t3.5 -36q0 -31 -21 -41q-4 -2 -15 -4.5 t-23 -4.5t-23 -3.5t-15 -1.5q-15 0 -19.5 13t-4.5 27q0 7 2 25t5 38t5.5 37.5t2.5 24.5q5 50 6 95t1 86z" />
<glyph unicode="&#x3c0;" horiz-adv-x="540" d="M533 491q-1 -23 -7.5 -55t-23.5 -51q-16 -17 -60 -17h-22q-11 0 -11 -14v-264q0 -26 2 -43t6 -27t11 -14t16 -4q11 0 22 11.5t17 38.5h25q-6 -31 -24.5 -51.5t-56.5 -20.5q-54 0 -77 29t-23 88v262q0 9 -9 9h-123q-10 0 -10 -11v-230q0 -28 -4.5 -54.5t-15.5 -47 t-30.5 -33t-49.5 -12.5q-35 0 -54 19.5t-24 52.5h27q6 -25 20 -37.5t32 -12.5q29 0 48 30t19 84v242q0 10 -9 10h-37q-20 0 -33 -1.5t-20.5 -6t-11 -11.5t-5.5 -17h-23q4 64 33 91q22 21 62 21h324q21 0 35 3t22 9t12.5 14.5t6.5 20.5h24z" />
<glyph unicode="&#x2013;" d="M40 191v67h438v-67h-438z" />
<glyph unicode="&#x2014;" horiz-adv-x="796" d="M42 191v67h712v-67h-712z" />
<glyph unicode="&#x2018;" horiz-adv-x="278" d="M256 650q-17 -6 -40 -15.5t-44 -24.5t-35.5 -35.5t-14.5 -48.5q0 -14 5.5 -27t19.5 -18q28 -11 43 -21t15 -38q0 -21 -15.5 -40t-49.5 -19q-23 0 -42 10t-33.5 27t-22.5 39.5t-8 48.5q0 56 25.5 92t58 56.5t63.5 28t43 7.5q6 0 11.5 -3t22.5 -14z" />
<glyph unicode="&#x2019;" horiz-adv-x="278" d="M22 379q16 6 39 15.5t44 24.5t35.5 35.5t14.5 48.5q0 3 -0.5 9t-2.5 13t-7 13.5t-14 9.5q-27 11 -42.5 21t-15.5 39q0 20 15.5 39t49.5 19q22 0 41.5 -9.5t33.5 -26.5t22 -40t8 -49q0 -38 -12 -66t-30.5 -48.5t-41 -34t-43.5 -21.5t-38 -11t-24 -3q-6 0 -11.5 3t-22.5 14 z" />
<glyph unicode="&#x201a;" horiz-adv-x="278" d="M22 -160q16 6 39 15.5t44 24.5t35.5 35.5t14.5 48.5q0 3 -0.5 9t-2.5 13t-7 13.5t-14 10.5q-27 10 -42.5 20.5t-15.5 38.5q0 20 15.5 39.5t49.5 19.5q22 0 41.5 -10t33.5 -27t22 -40t8 -49q0 -37 -12 -65.5t-30.5 -48.5t-40.5 -33.5t-43 -21.5t-38 -11t-25 -3 q-6 0 -11.5 2.5t-22.5 13.5z" />
<glyph unicode="&#x201c;" horiz-adv-x="500" d="M256 650q-17 -6 -40 -15.5t-44 -24.5t-35.5 -35.5t-14.5 -48.5q0 -14 5.5 -27t19.5 -18q28 -11 43 -21t15 -38q0 -21 -15.5 -40t-49.5 -19q-23 0 -42 10t-33.5 27t-22.5 39.5t-8 48.5q0 56 25.5 92t58 56.5t63.5 28t43 7.5q6 0 11.5 -3t22.5 -14zM478 650q-16 -6 -39 -15 t-44 -24t-36 -35.5t-15 -48.5q0 -12 4.5 -26t21.5 -20q28 -11 42.5 -21t14.5 -39q0 -21 -16 -39.5t-49 -18.5q-22 0 -41 9.5t-33.5 26.5t-22.5 40t-8 49q0 37 12 65.5t30.5 49t40.5 34t43 21.5t38 11t25 3q6 0 11.5 -3t22.5 -14z" />
<glyph unicode="&#x201d;" horiz-adv-x="500" d="M244 379q16 6 39 15.5t44 24t36 35.5t15 49q0 2 -0.5 8t-2.5 13t-7.5 14t-14.5 10q-28 11 -43 21t-15 39q0 21 16 39.5t49 18.5q22 0 41.5 -9.5t33.5 -26.5t22.5 -40t8.5 -49q0 -57 -25.5 -92.5t-58.5 -56t-64 -28t-42 -7.5q-6 0 -11.5 3t-22.5 14zM22 379q16 6 39 15.5 t44 24.5t35.5 35.5t14.5 48.5q0 3 -0.5 9t-2.5 13t-7 13.5t-14 9.5q-27 11 -42.5 21t-15.5 39q0 20 15.5 39t49.5 19q22 0 41.5 -9.5t33.5 -26.5t22 -40t8 -49q0 -38 -12 -66t-30.5 -48.5t-41 -34t-43.5 -21.5t-38 -11t-24 -3q-6 0 -11.5 3t-22.5 14z" />
<glyph unicode="&#x201e;" horiz-adv-x="500" d="M244 -160q16 6 39 15.5t44 24.5t36 35.5t15 48.5q0 2 -0.5 8t-2.5 13.5t-7.5 14t-14.5 10.5q-28 11 -43 21t-15 38q0 21 16 40t49 19q22 0 41.5 -10t33.5 -27t22.5 -40t8.5 -49q0 -56 -25.5 -92t-58 -56t-63.5 -27.5t-43 -7.5q-6 0 -11.5 2.5t-22.5 13.5zM22 -160 q16 6 39 15.5t44 24.5t35.5 35.5t14.5 48.5q0 3 -0.5 9t-2.5 13t-7 13.5t-14 10.5q-27 10 -42.5 20.5t-15.5 38.5q0 20 15.5 39.5t49.5 19.5q22 0 41.5 -10t33.5 -27t22 -40t8 -49q0 -37 -12 -65.5t-30.5 -48.5t-40.5 -33.5t-43 -21.5t-38 -11t-25 -3q-6 0 -11.5 2.5 t-22.5 13.5z" />
<glyph unicode="&#x2020;" d="M280 376q10 0 24 0.5t29 4t29.5 10.5t25.5 20q14 16 17.5 19.5t7.5 3.5q5 0 17 -8t24.5 -19t22 -24.5t9.5 -23.5q0 -11 -8.5 -25t-20.5 -26t-24 -20.5t-18 -8.5q-4 0 -7.5 2.5t-5.5 4.5q-15 14 -26.5 23.5t-24 15.5t-29 8.5t-42.5 4.5q0 -61 8.5 -94.5t30.5 -48.5 q17 -12 20.5 -15t3.5 -8q0 -4 -8 -16t-12 -17q-21 -28 -26.5 -68t-7.5 -75q-2 -30 -3.5 -67.5t-2.5 -71t-1.5 -59t-0.5 -31.5q0 -14 -3.5 -21.5t-17.5 -7.5q-9 0 -13.5 1.5t-7 8t-3 20.5t-1.5 39q-2 69 -4 114.5t-3.5 76t-3.5 49t-5 32.5q-3 16 -7 27t-8.5 20t-11 17 t-14.5 18q-2 2 -4 5t-2 6q0 4 4.5 7.5t21.5 15.5q26 19 31.5 53.5t7.5 89.5q-8 0 -20 -1t-25 -3.5t-26.5 -8t-25.5 -15.5q-2 -2 -7 -6.5t-11 -10t-11 -9.5t-8 -4t-14.5 7.5t-23.5 18.5t-22 25t-10 27q0 14 9.5 27.5t21.5 24.5t23.5 17.5t15.5 6.5q5 0 9.5 -4.5t20.5 -21.5 q11 -12 36.5 -21.5t66.5 -10.5q0 35 -1 61t-4.5 45.5t-11 33t-19.5 24.5q-17 14 -21 18t-4 9t8.5 18t21 26.5t27.5 24t28 10.5q14 0 28.5 -11t26.5 -24.5t19.5 -26.5t7.5 -16q0 -5 -3.5 -9.5t-20.5 -18.5q-8 -7 -15 -16.5t-12 -27.5t-8 -46.5t-3 -73.5z" />
<glyph unicode="&#x2021;" d="M237 344q-12 0 -28.5 -0.5t-34 -3.5t-33.5 -8.5t-28 -14.5q-20 -17 -25 -21t-10 -4q-6 0 -16.5 7t-20.5 17t-17.5 21.5t-7.5 21.5q0 13 8 26.5t18 24.5t20 18.5t15 7.5t9.5 -3t21.5 -16q10 -8 38.5 -18.5t89.5 -11.5q0 73 -10 106t-25 47q-16 15 -19.5 19t-3.5 8 q0 5 7.5 18t19.5 26.5t26 24t28 10.5q15 0 29.5 -11t26.5 -25t19.5 -26.5t7.5 -15.5q0 -5 -3 -9t-20 -18q-12 -11 -19.5 -25t-11.5 -32.5t-5.5 -42.5t-1.5 -54q54 1 83.5 9.5t43.5 19.5q19 14 24 17.5t9 3.5q5 0 15 -8t20.5 -19t18.5 -23.5t8 -21.5q0 -11 -8 -24t-19 -24 t-21.5 -18.5t-15.5 -7.5q-3 0 -8 3.5t-10.5 8t-10 9t-6.5 5.5q-23 16 -51.5 21t-70.5 5q1 -31 6.5 -60.5t21.5 -51.5q1 -2 6.5 -6.5t10.5 -9.5l9.5 -9.5t4.5 -7.5q0 -2 -4 -6.5t-9 -9t-10 -8.5t-6 -6q-8 -10 -20 -37.5t-13 -78.5q24 0 52.5 2t57.5 15q3 1 11 6.5t16 10.5 t16 9.5t11 4.5q6 0 16 -6.5t19.5 -16.5t16.5 -22.5t7 -24.5q0 -14 -8 -27t-18 -22.5t-20 -15.5t-14 -6q-5 0 -10 3t-22 16q-11 8 -40.5 18.5t-90.5 10.5q0 -54 5 -99t30 -71q18 -17 21 -21t3 -8q0 -3 -8 -14.5t-20 -24t-25.5 -22t-25.5 -9.5t-26 10t-26 22.5t-20 24.5t-8 15 q0 4 3.5 8.5t18.5 21.5q13 14 20.5 35.5t11 45t4 46t0.5 38.5q-34 0 -72 -3.5t-63 -24.5q-15 -13 -19 -16t-8 -3q-5 0 -15 7t-19.5 17.5t-17 22.5t-7.5 22q0 13 8 26.5t18.5 24t20.5 17t14 6.5q5 0 12 -4t31 -23q10 -8 25 -12t31.5 -6.5t32 -3t26.5 -0.5q-1 15 -2.5 32.5 t-5.5 34t-11.5 31.5t-19.5 25q-14 12 -17.5 15.5t-3.5 7.5q0 5 4 8t18 14q13 9 20.5 25t11.5 34t5.5 35.5t2.5 29.5z" />
<glyph unicode="&#x2022;" horiz-adv-x="176" d="M0 320q0 16 8.5 32t21.5 29t29 21.5t32 8.5q15 0 30 -8.5t27.5 -22t20 -29.5t7.5 -31q0 -17 -8.5 -32.5t-22 -27.5t-29 -19t-28.5 -7q-15 0 -31 8t-28.5 20t-20.5 27.5t-8 30.5z" />
<glyph unicode="&#x2026;" horiz-adv-x="778" d="M568 67q0 14 7.5 28.5t19.5 26.5t27 19.5t29 7.5q13 0 27 -8t25 -20t18 -26.5t7 -27.5q0 -15 -8 -29.5t-20 -25t-26 -17t-26 -6.5q-14 0 -28 7t-25.5 18t-19 25t-7.5 28zM309 67q0 14 7.5 28.5t19.5 26.5t26.5 19.5t29.5 7.5q13 0 27 -8t25 -20t18 -26.5t7 -27.5 q0 -15 -8 -29t-20 -25t-26 -17.5t-26 -6.5q-14 0 -28 7t-25.5 18t-19 25t-7.5 28zM50 67q0 14 7.5 28.5t19.5 26.5t26.5 19.5t28.5 7.5t28 -8t25 -20t18 -26.5t7 -27.5q0 -15 -8 -29.5t-20 -25t-26 -17t-26 -6.5q-14 0 -28.5 7t-26 18t-18.5 25t-7 28z" />
<glyph unicode="&#x2030;" horiz-adv-x="1111" d="M171 0q6 10 23.5 39.5t41.5 72t53 94.5t59.5 106t59.5 106.5t52.5 96.5t40.5 75.5t22 43.5h59q-8 -13 -18 -30t-21 -35.5t-22 -38t-21 -37.5q-22 -39 -48.5 -86.5t-53.5 -96t-52 -94t-45 -81.5q-19 -34 -30.5 -55.5t-19 -35.5t-12 -23.5t-8.5 -20.5h-60zM867 184 q0 -11 1.5 -36t8 -51t20.5 -46t38 -20q16 0 25.5 8.5t15 22t7.5 30.5t2 35q0 16 -2.5 42t-10 51t-21.5 42.5t-36 17.5q-17 0 -27 -11t-14.5 -26.5t-5.5 -32t-1 -26.5zM767 152q0 39 12.5 69.5t35 52t53.5 33t68 11.5q45 0 73.5 -16t45 -40t23 -51.5t6.5 -49.5 q0 -39 -13 -70.5t-36.5 -53t-54.5 -33t-67 -11.5q-26 0 -52 8t-47 27t-34 49.5t-13 74.5zM509 184q0 -11 1.5 -36t8.5 -51t20.5 -46t37.5 -20q16 0 25.5 8.5t15 22t7.5 30.5t2 35q0 14 -2 40t-9.5 51t-21.5 43.5t-37 18.5q-16 0 -25.5 -10t-14.5 -25t-6.5 -31.5t-1.5 -29.5z M410 152q0 40 13 71t35.5 52t53 32t66.5 11q45 0 74 -16.5t45.5 -40.5t23 -51t6.5 -49q0 -39 -13.5 -70.5t-36.5 -53t-54.5 -33t-67.5 -11.5q-27 0 -53 9t-46.5 28t-33 49t-12.5 73zM126 512q0 -11 1.5 -36.5t8.5 -51.5t20.5 -46t37.5 -20q16 0 25.5 8.5t15 22.5t7.5 31 t2 35q0 16 -2.5 42t-10 50.5t-21 42t-35.5 17.5q-17 0 -27 -11t-15 -26.5t-6 -31.5t-1 -26zM27 479q0 41 13.5 72t36.5 52t53.5 31.5t65.5 10.5q44 0 72.5 -16t45.5 -39.5t23.5 -51t6.5 -50.5q0 -39 -13 -70t-36 -53t-54.5 -33.5t-68.5 -11.5q-27 0 -53.5 9t-46.5 28 t-32.5 49.5t-12.5 72.5z" />
<glyph unicode="&#x2039;" horiz-adv-x="315" d="M163 219q15 -16 36.5 -43t41.5 -54t34 -48t14 -25t-4 -7.5t-9.5 -6.5t-10.5 -5t-7 -2q-5 0 -13 7t-13 11q-45 42 -93 78.5t-98 71.5q-10 7 -12.5 12.5t-2.5 10.5q0 4 2 8.5t12 10.5q22 15 38.5 27t35 26t41 33t56.5 49q8 7 18.5 17t18.5 17q2 1 3.5 2t3.5 1t7.5 -2.5 t11.5 -6t10.5 -7.5t4.5 -8t-30 -48t-96 -119z" />
<glyph unicode="&#x203a;" horiz-adv-x="315" d="M152 218q-15 16 -36.5 43t-41.5 54t-34 48.5t-14 25.5t4.5 8t10.5 7t11 4.5l5 1.5q5 0 13 -7t13 -11q45 -42 92.5 -79t98.5 -72q9 -6 12 -11t3 -11q0 -4 -2 -8.5t-12 -11.5q-24 -16 -41 -27.5t-34.5 -25t-39.5 -32.5t-57 -49q-8 -7 -18 -17t-18 -17q-2 -1 -3.5 -2 t-3.5 -1t-7.5 2.5t-11.5 6t-10.5 7.5t-4.5 7q0 5 30.5 49t95.5 118z" />
<glyph unicode="&#x20ac;" horiz-adv-x="528" d="M483 21q-26 -16 -65.5 -24.5t-74.5 -8.5q-50 0 -93.5 18.5t-78.5 53t-58.5 83.5t-32.5 110h-79l9 35h66q-1 8 -1 17v18q0 6 0.5 12t1.5 13v21h-76l9 35h72q10 58 34.5 104t59 78t77 48.5t89.5 16.5q25 0 47.5 -4t42 -9t36 -9.5t30.5 -5.5v-136l-30 -1q-10 38 -20 61.5 t-23.5 37t-31 18t-42.5 4.5q-65 0 -105.5 -50t-51.5 -153h239l-10 -35h-231q-1 -8 -1 -16v-17v-24t2 -24h207l-10 -35h-192q7 -44 20.5 -83.5t33 -69.5t45.5 -48t58 -18q44 0 71 31t47 104l33 -5z" />
<glyph unicode="&#x2122;" horiz-adv-x="852" d="M498 636q8 0 10.5 -3.5t9.5 -18.5q22 -55 41.5 -97t42.5 -90q1 3 8.5 17.5t16.5 31.5t17 33.5t11 22.5q4 8 9 19.5t10 23.5t10 23.5t8 20.5q4 11 6 14t9 3l66 -1l42 1q5 0 7 -2t2 -10q0 -10 -3 -11.5t-16 -3.5q-9 -1 -14.5 -3t-7.5 -7.5t-2.5 -16t-0.5 -27.5v-37 q0 -28 0.5 -60t1 -59t2.5 -31q2 -8 7 -11.5t22 -4.5q11 0 12.5 -1.5t1.5 -10.5t-1.5 -10.5t-6.5 -1.5l-80 1l-78 -1q-8 0 -9 1.5t-1 9.5q0 9 1.5 10.5t12.5 3.5q12 1 19 2.5t11 7t5 16t1 28.5v30v45t0.5 45t0.5 29q-3 -8 -10 -23.5t-16.5 -35t-19.5 -40.5t-19.5 -40 t-16.5 -34t-10 -22t-6.5 -14.5t-6.5 -9.5l-5 -1.5t-10.5 -3t-10 -2.5t-5.5 -1q-4 0 -6 4t-9 21q-2 4 -7 15.5t-10 23.5t-9.5 23t-6.5 15q-16 36 -25.5 57.5t-15 35t-9 21.5t-6.5 17v-41v-60q0 -31 1 -58t4 -36q4 -10 12 -11.5t25 -2.5q9 -1 10.5 -3t1.5 -6q0 -12 -1.5 -14 t-9.5 -2h-20h-29h-29h-18h-9h-15h-14t-7 1q-3 2 -3 15q0 5 2.5 6t13.5 3q10 1 17 3t11.5 8t7 18.5t3.5 34.5q1 23 2.5 49t2.5 49.5t1.5 40t0.5 19.5q0 23 -6.5 28.5t-25.5 7.5q-12 1 -14.5 2t-2.5 8q0 10 2 12.5t10 2.5h112zM94 327q-8 1 -8 10q0 11 1.5 13t9.5 3 q14 1 22.5 2.5t13 6.5t6.5 15.5t2 28.5q1 52 1 97t-2 97q-29 -1 -45 -2.5t-24 -5.5t-11.5 -11t-6.5 -18t-6 -13.5t-14 -2.5q-14 0 -14 7q0 3 1.5 13t3.5 21.5t4 22t2 14.5q2 11 3.5 14.5t9.5 3.5q2 0 10.5 -2.5t11.5 -2.5q8 -1 21.5 -1.5t25.5 -0.5h22h10h50h32q14 0 25 0.5 t26 0.5q14 0 31 1t24 4q9 1 12.5 0t3.5 -6q0 -1 -2 -10.5t-4.5 -20.5t-4.5 -21.5t-3 -14.5q-4 -15 -6 -18.5t-12 -3.5q-13 0 -15 1.5t-2 10.5q-1 22 -1.5 27t-4.5 7q-3 2 -12 3t-20 2t-21.5 1.5t-16.5 0.5v-124t0.5 -70.5t2 -33t3.5 -11.5l3.5 -3.5t5.5 -2.5t11.5 -2 t21.5 -1q6 0 7.5 -2.5t1.5 -8.5q0 -10 -1.5 -11.5t-6.5 -1.5h-28h-40h-40h-26z" />
<glyph unicode="&#x2202;" horiz-adv-x="530" d="M389 257q0 32 -11 60.5t-28 50.5t-38 34.5t-41 12.5q-34 0 -57.5 -11t-38.5 -35.5t-22 -63.5t-7 -95q0 -102 33 -154.5t94 -52.5q30 0 51.5 19.5t36 53.5t21.5 80.5t7 100.5zM475 357q0 -108 -11.5 -180.5t-36 -116t-62.5 -62t-91 -18.5q-46 0 -87 15t-72 44.5t-49 74 t-18 103.5q0 46 13 86.5t39.5 71.5t66.5 49t93 18q42 0 76 -21.5t54 -52.5q0 49 -1 85t-6 62q-7 40 -24.5 68t-41 45t-49.5 24.5t-50 7.5q-35 0 -68.5 -15t-56.5 -34l-19 25q33 26 66.5 41.5t71.5 15.5q56 0 104 -21.5t83.5 -64t55.5 -105.5t20 -145z" />
<glyph unicode="&#x220f;" horiz-adv-x="810" d="M516 -122v18l35 1q28 1 35.5 6t7.5 22v744q0 44 -40 44h-305q-33 0 -33 -35v-753q0 -17 8.5 -22t36.5 -6l35 -1v-18h-250v18l35 1q28 1 35.5 6t7.5 22v778q0 17 -7.5 22t-35.5 6l-35 1v18h718v-18l-35 -1q-28 -1 -35.5 -6t-7.5 -22v-778q0 -17 7.5 -22t35.5 -6l35 -1v-18 h-248z" />
<glyph unicode="&#x2211;" horiz-adv-x="720" d="M668 68q-1 -7 -2 -19.5t-1.5 -27t-1.5 -28t-2 -23.5q-2 -21 -2.5 -42.5t-0.5 -38.5q0 -11 -9 -11h-595v10l265 419l-256 433v10h532q11 0 11 -8t1 -22.5t2 -31.5t2 -33t2 -26q2 -20 5.5 -38.5t5.5 -32.5h-25q-3 23 -7 38t-10 26q-11 23 -38.5 35t-65.5 12h-246 q-10 0 -11 -5.5t1 -9.5l176 -296l-252 -399h377q29 0 50 3.5t32 8.5q29 14 39 97h24v0z" />
<glyph unicode="&#x2212;" d="M483 290q1 -8 -0.5 -9.5t-9.5 -1.5h-37h-55h-63h-63h-54h-34h-121q-8 0 -9.5 1t-1.5 8v57q0 8 1.5 9.5t10.5 1.5l212 -1h50h59t57.5 0.5t45.5 0.5q9 0 10.5 -1t1.5 -8v-57z" />
<glyph unicode="&#x2215;" horiz-adv-x="74" d="M-146 0q6 11 21.5 41.5t37 74t47 95.5t51.5 105.5t51 105t44.5 93.5t33 70.5t16.5 36.5q2 3 2.5 6t2.5 6h59q-15 -26 -35 -66t-37 -75l-174 -358q-17 -34 -27 -55t-16 -35t-9.5 -24t-7.5 -21h-60z" />
<glyph unicode="&#x221a;" horiz-adv-x="540" d="M305 -122h-51l-159 330l-46 -20l-19 34l93 39l154 -322l153 811h43z" />
<glyph unicode="&#x221e;" horiz-adv-x="700" d="M307 312q-12 15 -25 30.5t-28.5 27.5t-33 20t-38.5 8t-40 -8.5t-33.5 -23t-22.5 -34t-8 -41.5q0 -21 8 -40t21.5 -33t32 -22t39.5 -8q28 0 48 9.5t35.5 25.5t28.5 35t28 39zM623 292q0 21 -8 39.5t-21.5 33t-31.5 22.5t-39 8t-41 -11.5t-38 -28.5t-33.5 -35.5 t-27.5 -33.5q12 -17 26 -35t31 -32.5t36.5 -24t42.5 -9.5q21 0 40 8.5t33 23t22.5 34t8.5 41.5zM670 293q0 -33 -11.5 -61.5t-31.5 -49.5t-47.5 -33t-59.5 -12q-31 0 -54.5 9t-42.5 24.5t-35.5 36.5t-32.5 44q-17 -22 -34.5 -42t-38 -35.5t-44.5 -25t-53 -9.5 q-33 0 -61 11.5t-48.5 31.5t-32.5 47.5t-12 59.5q0 33 11.5 61.5t31.5 49.5t48 32.5t60 11.5q28 0 53.5 -10t47.5 -26t40 -36.5t33 -42.5q35 50 72.5 82.5t85.5 32.5q34 0 62.5 -11.5t49.5 -31.5t32.5 -47.5t11.5 -60.5z" />
<glyph unicode="&#x222b;" horiz-adv-x="540" d="M463 690q0 -18 -8.5 -32t-30.5 -14q-17 0 -30.5 10t-13.5 27q0 9 2 14t5 8t5 5.5t2 7.5q0 7 -5.5 12.5t-27.5 5.5q-32 0 -46 -32.5t-14 -79.5v-564q0 -33 -4 -65t-17 -57.5t-38 -41.5t-68 -16q-23 0 -41 6.5t-30.5 15.5t-19.5 20t-7 20q0 14 9.5 27.5t31.5 13.5 q19 0 29 -9.5t10 -25.5q0 -18 -4.5 -21.5t-4.5 -12.5q0 -7 10.5 -11.5t28.5 -4.5q31 0 42.5 26t11.5 84v564q0 33 4 65t17 58t38 42t68 16q22 0 40 -6t30.5 -15.5t19 -20t6.5 -19.5z" />
<glyph unicode="&#x2248;" horiz-adv-x="540" d="M532 230q-7 -63 -39 -98t-83 -35q-35 0 -72 11.5t-73.5 25.5t-71 25.5t-63.5 11.5q-31 0 -53 -22.5t-27 -59.5h-41q4 25 6 35t7 24q14 35 43.5 55.5t66.5 20.5q35 0 71.5 -11.5t72.5 -25t70 -25t65 -11.5q38 0 55.5 23.5t25.5 55.5h40zM532 396q-3 -25 -11 -49 t-22.5 -42.5t-36 -30t-51.5 -11.5q-35 0 -72.5 11.5t-74 25.5t-71 25.5t-62.5 11.5q-31 0 -53.5 -22.5t-27.5 -59.5h-41q2 13 3 21t2.5 14t3 11t4.5 12q14 35 43.5 56t66.5 21q34 0 70.5 -11.5t72.5 -25t71 -25t66 -11.5q36 0 55 23.5t25 55.5h40z" />
<glyph unicode="&#x2260;" horiz-adv-x="540" d="M231 123l-76 -143l-43 24l64 119h-156v50h183l73 139h-256v50h283l78 146l42 -23l-65 -123h162v-50h-189l-74 -139h263v-50h-289z" />
<glyph unicode="&#x2264;" horiz-adv-x="540" d="M20 -26v42h499v-42h-499zM20 267v51l499 191v-47l-448 -170l448 -168v-48z" />
<glyph unicode="&#x2265;" horiz-adv-x="540" d="M21 -26v42h499v-42h-499zM21 76v48l447 168l-447 170v47l499 -191v-51z" />
<glyph unicode="&#x25ca;" horiz-adv-x="540" d="M270 635l-138 -286l138 -308l139 308zM299 -20h-59l-167 369l167 344h59l169 -344z" />
<glyph unicode="&#x25fc;" horiz-adv-x="420" d="M0 420h420v-420h-420v420z" />
<glyph unicode="&#xfb01;" horiz-adv-x="630" d="M363 708q29 0 56 -6t48 -17t33.5 -28.5t12.5 -39.5q0 -13 -7 -24.5t-17.5 -19.5t-23 -13t-22.5 -5q-19 0 -28.5 9t-22.5 26q-14 17 -32 28t-47 11q-32 0 -50 -12.5t-26 -30t-10 -35.5t-2 -30q-1 -29 -0.5 -57.5t0.5 -41.5q67 0 108 0.5t66 1.5t39 2.5t28 3.5q4 0 14.5 2 t21.5 4.5t21 4t14 1.5q2 0 7.5 -1.5t5.5 -9.5q0 -2 -1 -11t-2 -20t-2 -21t-1 -14q-1 -10 -1.5 -22.5t-1 -40.5t-0.5 -79v-135q0 -12 2 -20.5t8.5 -14.5t19.5 -9t35 -4q14 -1 16.5 -5t2.5 -14q0 -16 -4 -19.5t-14 -3.5q-17 0 -33 0.5t-31 1.5q-15 0 -30.5 0.5t-32.5 0.5 q-26 0 -45.5 -0.5t-33.5 -0.5q-14 -1 -24 -1.5t-17 -0.5q-10 0 -12 3.5t-2 17.5q0 13 2 16.5t15 5.5q28 7 36 22.5t11 36.5q1 9 1.5 27.5t1 39t0.5 39.5v30q0 38 -1 61t-6.5 35.5t-17 17.5t-33.5 6q-15 1 -35.5 1.5t-40.5 0.5h-35h-20v-33v-50q0 -27 -0.5 -57t0 -56.5 t1 -46.5t1.5 -27q2 -17 6.5 -26.5t12 -14t18.5 -5.5t26 -2q11 0 12.5 -3t1.5 -18q0 -14 -3.5 -17.5t-17.5 -3.5q-6 0 -15.5 0.5t-23.5 1.5q-14 0 -33 0.5t-45 0.5q-23 0 -44.5 -0.5t-38.5 -0.5q-17 -1 -29 -1.5t-17 -0.5q-8 0 -10 5.5t-2 14.5q0 12 1 16t8 5q19 2 30 5.5 t17 12.5t8.5 27t3.5 50q1 30 1.5 64t1 65.5t0.5 56.5v38h-54q-8 -1 -9 1.5t-1 12.5q0 15 1.5 19t6.5 6q3 1 11.5 4t17.5 6.5t17 6.5t11 5q0 23 0.5 46.5t5.5 47t17 47.5t34 50q34 39 87.5 68.5t122.5 29.5z" />
<glyph unicode="&#xfb02;" horiz-adv-x="630" d="M37 358q-6 0 -6 22q0 8 1.5 11.5t6.5 5.5l57 22q1 30 3 59t12 56.5t31 55.5t60 57q50 36 97.5 48.5t79.5 12.5q34 0 63.5 -7.5t47.5 -12.5q6 5 20.5 14t25.5 9q12 0 12 -14l-6 -69q-1 -11 -1.5 -24.5t-1 -37.5t-1 -63t-0.5 -103q0 -50 0.5 -100t1 -93.5t2 -77t4.5 -49.5 q2 -13 6 -20.5t11.5 -11t20 -5.5t30.5 -3q12 -1 15.5 -3t3.5 -16q0 -15 -3.5 -19t-9.5 -4q-8 0 -22 0.5t-31 1.5q-18 0 -39.5 0.5t-47.5 0.5q-13 0 -32 -0.5t-39 -0.5q-19 -1 -34.5 -1.5t-22.5 -0.5q-8 0 -10 6t-2 17q0 13 4 16t19 6q29 7 35 26t7 45q2 76 2.5 151.5 t0.5 151.5v31v40q0 21 -0.5 39.5t-1.5 29.5q-1 22 -9.5 36.5t-21.5 22.5t-28.5 11t-30.5 3q-34 0 -52.5 -12t-27 -37.5t-10 -64.5t-1.5 -93h117q8 0 10 -2t2 -8v-21q0 -20 -0.5 -27t-4.5 -7h-125v-33v-50q0 -27 -0.5 -57t0 -56.5t1 -46.5t1.5 -27q2 -17 6.5 -26.5t12.5 -14 t19.5 -5.5t27.5 -2q8 0 9.5 -4t1.5 -17q0 -10 -2 -15.5t-13 -5.5q-5 0 -22 0.5t-38 1.5q-20 0 -40.5 0.5t-33.5 0.5q-20 0 -38.5 -0.5t-34.5 -0.5q-16 -1 -28 -1.5t-17 -0.5q-8 0 -10 3t-2 17q0 12 1 16t8 5q19 2 30 5.5t17 12.5t8.5 27t3.5 50q1 30 1.5 64t1 65.5t0.5 56.5 v38h-58z" />
</font>
</defs>
</svg>
